<svg xmlns="http://www.w3.org/2000/svg" xmlns:xlink="http://www.w3.org/1999/xlink" width="112.5" viewBox="0 0 112.5 37.5" height="37.5" version="1.0"><defs><clipPath id="b"><path d="M 0.492188 0 L 26 0 L 26 28 L 0.492188 28 Z M 0.492188 0"/></clipPath><clipPath id="e"><path d="M 0.492188 3 L 19 3 L 19 21 L 0.492188 21 Z M 0.492188 3"/></clipPath><clipPath id="f"><path d="M -1.21875 14.917969 L 12.550781 1.148438 L 25.042969 13.636719 L 11.269531 27.40625 Z M -1.21875 14.917969"/></clipPath><clipPath id="g"><path d="M -1.21875 14.917969 L 12.550781 1.148438 L 25.042969 13.636719 L 11.269531 27.40625 Z M -1.21875 14.917969"/></clipPath><clipPath id="d"><path d="M0 0H26V28H0z"/></clipPath><clipPath id="j"><path d="M 6 7 L 25 7 L 25 26 L 6 26 Z M 6 7"/></clipPath><clipPath id="k"><path d="M 0.21875 14.566406 L 13.988281 0.796875 L 26.476562 13.289062 L 12.707031 27.058594 Z M 0.21875 14.566406"/></clipPath><clipPath id="l"><path d="M 12.792969 27.144531 L 26.5625 13.371094 L 14.074219 0.882812 L 0.300781 14.652344 Z M 12.792969 27.144531"/></clipPath><clipPath id="i"><path d="M0 0H27V28H0z"/></clipPath><clipPath id="m"><path d="M 0.492188 9 L 26 9 L 26 37 L 0.492188 37 Z M 0.492188 9"/></clipPath><clipPath id="p"><path d="M 1 7 L 19 7 L 19 26 L 1 26 Z M 1 7"/></clipPath><clipPath id="q"><path d="M 12.671875 27.144531 L -1.097656 13.371094 L 11.390625 0.882812 L 25.160156 14.652344 Z M 12.671875 27.144531"/></clipPath><clipPath id="r"><path d="M 12.671875 27.144531 L -1.097656 13.371094 L 11.390625 0.882812 L 25.160156 14.652344 Z M 12.671875 27.144531"/></clipPath><clipPath id="o"><path d="M0 0H26V28H0z"/></clipPath><clipPath id="u"><path d="M 6 3 L 25 3 L 25 21 L 6 21 Z M 6 3"/></clipPath><clipPath id="v"><path d="M 14.109375 27.492188 L 0.335938 13.722656 L 12.828125 1.234375 L 26.597656 15.003906 Z M 14.109375 27.492188"/></clipPath><clipPath id="w"><path d="M 12.792969 1.027344 L 26.5625 14.796875 L 14.074219 27.289062 L 0.300781 13.515625 Z M 12.792969 1.027344"/></clipPath><clipPath id="t"><path d="M0 0H27V28H0z"/></clipPath><mask id="c"><g filter="url(#a)"><path fill-opacity=".847" d="M-11.25 -3.75H123.75V41.25H-11.25z"/></g></mask><mask id="h"><g filter="url(#a)"><path fill-opacity=".8" d="M-11.25 -3.75H123.75V41.25H-11.25z"/></g></mask><mask id="n"><g filter="url(#a)"><path fill-opacity=".8" d="M-11.25 -3.75H123.75V41.25H-11.25z"/></g></mask><mask id="s"><g filter="url(#a)"><path fill-opacity=".8" d="M-11.25 -3.75H123.75V41.25H-11.25z"/></g></mask><filter x="0%" y="0%" width="100%" xmlns:xlink="http://www.w3.org/1999/xlink" xlink:type="simple" xlink:actuate="onLoad" height="100%" id="a" xlink:show="other"><feColorMatrix values="0 0 0 0 1 0 0 0 0 1 0 0 0 0 1 0 0 0 1 0" color-interpolation-filters="sRGB"/></filter></defs><g clip-path="url(#b)"><g mask="url(#c)"><g><g clip-path="url(#d)"><g clip-path="url(#e)"><g clip-path="url(#f)"><g clip-path="url(#g)"><path fill="#EC5242" d="M 15.609375 4.296875 C 10.832031 1.074219 5.902344 5.871094 8.441406 10.808594 C 3.503906 8.269531 -1.292969 13.199219 1.929688 17.972656 C 4.855469 22.304688 18.121094 20.488281 18.121094 20.488281 C 18.121094 20.488281 19.941406 7.21875 15.609375 4.296875 Z M 15.609375 4.296875"/></g></g></g></g></g></g></g><g mask="url(#h)"><g><g clip-path="url(#i)" transform="translate(8 9)"><g clip-path="url(#j)"><g clip-path="url(#k)"><g clip-path="url(#l)"><path fill="#EC5242" d="M 23.414062 10.316406 C 26.636719 15.089844 21.839844 20.023438 16.902344 17.484375 C 19.441406 22.421875 14.511719 27.21875 9.734375 23.992188 C 5.402344 21.070312 7.222656 7.804688 7.222656 7.804688 C 7.222656 7.804688 20.488281 5.984375 23.414062 10.316406 Z M 23.414062 10.316406"/></g></g></g></g></g></g><g clip-path="url(#m)"><g mask="url(#n)"><g><g clip-path="url(#o)" transform="translate(0 9)"><g clip-path="url(#p)"><g clip-path="url(#q)"><g clip-path="url(#r)"><path fill="#EC5242" d="M 2.050781 10.316406 C -1.171875 15.089844 3.625 20.023438 8.5625 17.484375 C 6.023438 22.421875 10.953125 27.21875 15.726562 23.992188 C 20.058594 21.070312 18.242188 7.804688 18.242188 7.804688 C 18.242188 7.804688 4.976562 5.984375 2.050781 10.316406 Z M 2.050781 10.316406"/></g></g></g></g></g></g></g><g mask="url(#s)"><g><g clip-path="url(#t)" transform="translate(8)"><g clip-path="url(#u)"><g clip-path="url(#v)"><g clip-path="url(#w)"><path fill="#EC5242" d="M 23.414062 17.855469 C 26.636719 13.078125 21.839844 8.148438 16.902344 10.6875 C 19.441406 5.75 14.511719 0.953125 9.734375 4.175781 C 5.402344 7.101562 7.222656 20.367188 7.222656 20.367188 C 7.222656 20.367188 20.488281 22.1875 23.414062 17.855469 Z M 23.414062 17.855469"/></g></g></g></g></g></g><g fill="#EC5242"><g><g><path d="M 0.789062 -0.195312 C 0.789062 -0.0664062 0.847656 0 0.972656 0 L 5.824219 0 C 5.949219 0 6.027344 -0.0664062 6.027344 -0.195312 L 6.027344 -1.128906 C 6.027344 -1.257812 5.949219 -1.324219 5.824219 -1.324219 L 2.210938 -1.324219 L 2.210938 -3.105469 L 4.898438 -3.105469 C 5.035156 -3.105469 5.113281 -3.175781 5.113281 -3.300781 L 5.113281 -4.226562 C 5.113281 -4.363281 5.023438 -4.421875 4.898438 -4.421875 L 2.210938 -4.421875 L 2.210938 -5.890625 L 5.734375 -5.890625 C 5.863281 -5.890625 5.929688 -5.960938 5.929688 -6.085938 L 5.929688 -7.03125 C 5.929688 -7.15625 5.863281 -7.226562 5.734375 -7.226562 L 0.972656 -7.226562 C 0.847656 -7.226562 0.789062 -7.15625 0.789062 -7.03125 Z M 0.789062 -0.195312" transform="translate(36.768 17.062)"/></g></g></g><g fill="#EC5242"><g><g><path d="M 0.730469 -0.214844 C 0.730469 -0.078125 0.796875 0 0.933594 0 L 1.839844 0 C 1.976562 0 2.054688 -0.0859375 2.054688 -0.214844 L 2.054688 -7.011719 C 2.054688 -7.136719 1.96875 -7.226562 1.839844 -7.226562 L 0.933594 -7.226562 C 0.808594 -7.226562 0.730469 -7.148438 0.730469 -7.011719 Z M 0.730469 -0.214844" transform="translate(43.02 17.062)"/></g></g></g><g fill="#EC5242"><g><g><path d="M 5.210938 -6.980469 C 5.210938 -7.128906 5.074219 -7.226562 4.925781 -7.226562 L 4.128906 -7.226562 C 3.964844 -7.226562 3.875 -7.128906 3.875 -6.980469 L 3.875 -4.273438 C 3.601562 -4.617188 3.273438 -4.839844 2.660156 -4.839844 C 1.277344 -4.839844 0.371094 -3.738281 0.371094 -2.367188 C 0.371094 -1.003906 1.296875 0.0976562 2.640625 0.0976562 C 3.300781 0.0976562 3.652344 -0.105469 3.972656 -0.574219 C 4.023438 -0.332031 4.023438 -0.078125 4.207031 -0.0273438 C 4.304688 -0.0078125 4.421875 0 4.539062 0 L 4.964844 0 C 5.132812 -0.0078125 5.210938 -0.0976562 5.210938 -0.242188 Z M 4.003906 -2.355469 L 4.003906 -2.347656 C 3.992188 -1.644531 3.515625 -1.070312 2.832031 -1.070312 C 2.09375 -1.070312 1.675781 -1.644531 1.675781 -2.355469 C 1.675781 -3.066406 2.09375 -3.652344 2.832031 -3.652344 C 3.523438 -3.652344 4.003906 -3.066406 4.003906 -2.355469 Z M 4.003906 -2.355469" transform="translate(45.765 17.062)"/></g></g></g><g fill="#EC5242"><g><g><path d="M 1.78125 -1.9375 L 4.808594 -1.9375 C 5.09375 -1.9375 5.152344 -2.152344 5.152344 -2.660156 C 5.152344 -3.875 4.109375 -4.878906 2.851562 -4.878906 C 1.539062 -4.878906 0.429688 -3.71875 0.429688 -2.375 C 0.429688 -0.992188 1.558594 0.117188 2.910156 0.117188 C 3.464844 0.117188 3.964844 -0.078125 4.371094 -0.390625 C 4.449219 -0.457031 4.527344 -0.527344 4.527344 -0.625 C 4.527344 -0.664062 4.507812 -0.699219 4.480469 -0.75 L 4.117188 -1.324219 C 4.070312 -1.390625 4.023438 -1.410156 3.972656 -1.410156 C 3.894531 -1.410156 3.808594 -1.324219 3.699219 -1.277344 C 3.457031 -1.140625 3.195312 -1.042969 2.921875 -1.042969 C 2.394531 -1.042969 1.839844 -1.371094 1.78125 -1.9375 Z M 1.78125 -2.871094 C 1.851562 -3.367188 2.347656 -3.769531 2.824219 -3.769531 C 3.40625 -3.769531 3.855469 -3.359375 3.875 -2.871094 Z M 1.78125 -2.871094" transform="translate(51.403 17.062)"/></g></g></g><g fill="#EC5242"><g><g><path d="M 1.839844 -4.507812 C 1.800781 -4.636719 1.742188 -4.761719 1.585938 -4.761719 L 0.964844 -4.761719 C 0.835938 -4.761719 0.710938 -4.675781 0.710938 -4.507812 L 0.710938 -0.242188 C 0.710938 -0.078125 0.796875 0 0.964844 0 L 1.773438 0 C 1.949219 0 2.035156 -0.078125 2.035156 -0.242188 L 2.035156 -2.707031 C 2.035156 -3.15625 2.375 -3.652344 2.949219 -3.652344 C 3.125 -3.652344 3.242188 -3.601562 3.425781 -3.476562 C 3.542969 -3.417969 3.660156 -3.359375 3.710938 -3.359375 C 3.789062 -3.359375 3.855469 -3.40625 3.914062 -3.496094 L 4.304688 -4.128906 C 4.332031 -4.175781 4.351562 -4.226562 4.351562 -4.265625 C 4.351562 -4.480469 3.699219 -4.789062 3.339844 -4.828125 C 3.28125 -4.839844 3.222656 -4.839844 3.15625 -4.839844 C 2.589844 -4.839844 2.171875 -4.441406 1.9375 -4.128906 C 1.929688 -4.195312 1.851562 -4.441406 1.839844 -4.507812 Z M 1.839844 -4.507812" transform="translate(56.973 17.062)"/></g></g></g><g fill="#EC5242"><g><g><path d="M 0.730469 -0.214844 C 0.730469 -0.078125 0.796875 0 0.933594 0 L 1.839844 0 C 1.976562 0 2.054688 -0.0859375 2.054688 -0.214844 L 2.054688 -7.011719 C 2.054688 -7.136719 1.96875 -7.226562 1.839844 -7.226562 L 0.933594 -7.226562 C 0.808594 -7.226562 0.730469 -7.148438 0.730469 -7.011719 Z M 0.730469 -0.214844" transform="translate(61.588 17.062)"/></g></g></g><g fill="#EC5242"><g><g><path d="M 5.199219 -4.363281 C 5.230469 -4.449219 5.238281 -4.5 5.238281 -4.539062 C 5.238281 -4.675781 5.171875 -4.769531 4.964844 -4.769531 L 4.128906 -4.769531 C 3.964844 -4.769531 3.855469 -4.710938 3.808594 -4.558594 L 2.753906 -1.703125 L 1.695312 -4.546875 C 1.65625 -4.675781 1.546875 -4.769531 1.382812 -4.769531 L 0.535156 -4.769531 C 0.359375 -4.769531 0.273438 -4.695312 0.273438 -4.558594 C 0.273438 -4.527344 0.273438 -4.46875 0.3125 -4.390625 L 2.082031 -0.046875 L 1.46875 1.597656 C 1.460938 1.636719 1.449219 1.683594 1.449219 1.722656 C 1.449219 1.878906 1.578125 1.929688 1.722656 1.929688 L 2.511719 1.929688 C 2.640625 1.929688 2.753906 1.859375 2.824219 1.714844 Z M 5.199219 -4.363281" transform="translate(64.334 17.062)"/></g></g></g><g fill="#EC5242"><g><g><path d="M 5.53125 -1.683594 C 5.191406 -1.421875 4.695312 -1.226562 4.167969 -1.226562 C 2.851562 -1.226562 1.871094 -2.308594 1.871094 -3.621094 C 1.871094 -4.945312 2.851562 -5.980469 4.167969 -5.980469 C 4.695312 -5.980469 5.101562 -5.8125 5.558594 -5.53125 C 5.617188 -5.5 5.667969 -5.480469 5.714844 -5.480469 C 5.765625 -5.480469 5.804688 -5.5 5.832031 -5.539062 L 6.347656 -6.417969 C 6.378906 -6.464844 6.386719 -6.574219 6.289062 -6.660156 C 5.726562 -7.070312 5.042969 -7.332031 4.167969 -7.332031 C 2.101562 -7.332031 0.429688 -5.6875 0.429688 -3.621094 C 0.429688 -1.558594 2.101562 0.105469 4.167969 0.105469 C 5.042969 0.105469 5.726562 -0.15625 6.28125 -0.574219 C 6.398438 -0.664062 6.425781 -0.738281 6.328125 -0.855469 L 5.84375 -1.683594 C 5.804688 -1.734375 5.753906 -1.761719 5.707031 -1.761719 C 5.648438 -1.761719 5.589844 -1.734375 5.53125 -1.683594 Z M 5.53125 -1.683594" transform="translate(72.825 17.062)"/></g></g></g><g fill="#EC5242"><g><g><path d="M 4.078125 -0.261719 C 4.109375 -0.105469 4.15625 0 4.351562 0 L 4.976562 0 C 5.121094 0 5.257812 -0.0859375 5.257812 -0.242188 L 5.257812 -4.519531 C 5.257812 -4.675781 5.121094 -4.78125 4.976562 -4.78125 L 4.429688 -4.800781 C 4.246094 -4.800781 4.207031 -4.742188 4.15625 -4.527344 L 4.058594 -4.15625 C 3.757812 -4.539062 3.4375 -4.847656 2.746094 -4.847656 C 1.34375 -4.847656 0.390625 -3.789062 0.390625 -2.375 C 0.390625 -0.984375 1.363281 0.0976562 2.746094 0.0976562 L 2.765625 0.0976562 C 3.484375 0.0976562 3.789062 -0.234375 4.023438 -0.585938 C 4.039062 -0.457031 4.058594 -0.390625 4.078125 -0.261719 Z M 1.65625 -2.367188 C 1.65625 -3.066406 2.113281 -3.660156 2.824219 -3.660156 C 3.5625 -3.660156 4.003906 -3.066406 4.003906 -2.355469 C 4.003906 -1.636719 3.542969 -1.082031 2.824219 -1.082031 C 2.121094 -1.082031 1.65625 -1.644531 1.65625 -2.367188 Z M 1.65625 -2.367188" transform="translate(79.69 17.062)"/></g></g></g><g fill="#EC5242"><g><g><path d="M 1.839844 -4.507812 C 1.800781 -4.636719 1.742188 -4.761719 1.585938 -4.761719 L 0.964844 -4.761719 C 0.835938 -4.761719 0.710938 -4.675781 0.710938 -4.507812 L 0.710938 -0.242188 C 0.710938 -0.078125 0.796875 0 0.964844 0 L 1.773438 0 C 1.949219 0 2.035156 -0.078125 2.035156 -0.242188 L 2.035156 -2.707031 C 2.035156 -3.15625 2.375 -3.652344 2.949219 -3.652344 C 3.125 -3.652344 3.242188 -3.601562 3.425781 -3.476562 C 3.542969 -3.417969 3.660156 -3.359375 3.710938 -3.359375 C 3.789062 -3.359375 3.855469 -3.40625 3.914062 -3.496094 L 4.304688 -4.128906 C 4.332031 -4.175781 4.351562 -4.226562 4.351562 -4.265625 C 4.351562 -4.480469 3.699219 -4.789062 3.339844 -4.828125 C 3.28125 -4.839844 3.222656 -4.839844 3.15625 -4.839844 C 2.589844 -4.839844 2.171875 -4.441406 1.9375 -4.128906 C 1.929688 -4.195312 1.851562 -4.441406 1.839844 -4.507812 Z M 1.839844 -4.507812" transform="translate(85.474 17.062)"/></g></g></g><g fill="#EC5242"><g><g><path d="M 1.78125 -1.9375 L 4.808594 -1.9375 C 5.09375 -1.9375 5.152344 -2.152344 5.152344 -2.660156 C 5.152344 -3.875 4.109375 -4.878906 2.851562 -4.878906 C 1.539062 -4.878906 0.429688 -3.71875 0.429688 -2.375 C 0.429688 -0.992188 1.558594 0.117188 2.910156 0.117188 C 3.464844 0.117188 3.964844 -0.078125 4.371094 -0.390625 C 4.449219 -0.457031 4.527344 -0.527344 4.527344 -0.625 C 4.527344 -0.664062 4.507812 -0.699219 4.480469 -0.75 L 4.117188 -1.324219 C 4.070312 -1.390625 4.023438 -1.410156 3.972656 -1.410156 C 3.894531 -1.410156 3.808594 -1.324219 3.699219 -1.277344 C 3.457031 -1.140625 3.195312 -1.042969 2.921875 -1.042969 C 2.394531 -1.042969 1.839844 -1.371094 1.78125 -1.9375 Z M 1.78125 -2.871094 C 1.851562 -3.367188 2.347656 -3.769531 2.824219 -3.769531 C 3.40625 -3.769531 3.855469 -3.359375 3.875 -2.871094 Z M 1.78125 -2.871094" transform="translate(90.09 17.062)"/></g></g></g><g fill="#7B7B7B"><g><g><path d="M 3.617188 -0.75 C 3.4375 -0.621094 3.074219 -0.472656 2.648438 -0.472656 C 1.660156 -0.472656 0.8125 -1.273438 0.8125 -2.292969 C 0.8125 -3.25 1.578125 -4.125 2.652344 -4.125 C 3.058594 -4.125 3.449219 -3.984375 3.753906 -3.765625 C 3.796875 -3.726562 3.839844 -3.714844 3.871094 -3.714844 C 3.910156 -3.714844 3.945312 -3.742188 3.976562 -3.789062 L 4.113281 -4.015625 C 4.125 -4.03125 4.132812 -4.058594 4.132812 -4.082031 C 4.132812 -4.238281 3.710938 -4.429688 3.5 -4.511719 C 3.230469 -4.617188 2.945312 -4.671875 2.648438 -4.671875 C 1.335938 -4.671875 0.273438 -3.605469 0.273438 -2.300781 C 0.273438 -0.988281 1.328125 0.0664062 2.640625 0.0664062 C 3.179688 0.0664062 3.671875 -0.09375 4.058594 -0.378906 L 4.070312 -0.390625 C 4.136719 -0.433594 4.15625 -0.476562 4.15625 -0.523438 L 4.15625 -1.902344 C 4.15625 -1.988281 4.089844 -2.039062 4.015625 -2.039062 L 3.753906 -2.039062 C 3.660156 -2.039062 3.617188 -1.988281 3.617188 -1.902344 Z M 3.617188 -0.75" transform="translate(36.768 25.43)"/></g></g></g><g fill="#7B7B7B"><g><g><path d="M 1.039062 -4.472656 C 1.039062 -4.554688 0.980469 -4.609375 0.902344 -4.609375 L 0.640625 -4.609375 C 0.554688 -4.609375 0.503906 -4.5625 0.503906 -4.472656 L 0.503906 -0.136719 C 0.503906 -0.0429688 0.546875 0 0.640625 0 L 0.902344 0 C 0.988281 0 1.039062 -0.0429688 1.039062 -0.136719 Z M 1.039062 -4.472656" transform="translate(41.279 25.43)"/></g></g></g><g fill="#7B7B7B"><g><g><path d="M 0.273438 -1.515625 C 0.273438 -0.632812 0.980469 0.0742188 1.863281 0.0742188 C 2.746094 0.0742188 3.460938 -0.632812 3.460938 -1.515625 C 3.460938 -2.398438 2.746094 -3.113281 1.863281 -3.113281 C 0.980469 -3.113281 0.273438 -2.398438 0.273438 -1.515625 Z M 0.777344 -1.515625 C 0.777344 -2.113281 1.269531 -2.617188 1.863281 -2.617188 C 2.460938 -2.617188 2.957031 -2.113281 2.957031 -1.515625 C 2.957031 -0.917969 2.460938 -0.421875 1.863281 -0.421875 C 1.269531 -0.421875 0.777344 -0.917969 0.777344 -1.515625 Z M 0.777344 -1.515625" transform="translate(42.82 25.43)"/></g></g></g><g fill="#7B7B7B"><g><g><path d="M 0.503906 -0.15625 C 0.503906 -0.0546875 0.566406 0 0.675781 0 L 0.863281 0 C 0.96875 0 1.039062 -0.0546875 1.039062 -0.15625 L 1.039062 -0.410156 C 1.242188 -0.128906 1.578125 0.0625 1.976562 0.0625 C 2.777344 0.0625 3.40625 -0.632812 3.40625 -1.515625 C 3.40625 -2.398438 2.777344 -3.101562 1.976562 -3.101562 C 1.558594 -3.101562 1.238281 -2.902344 1.039062 -2.609375 L 1.039062 -4.460938 C 1.039062 -4.554688 0.980469 -4.609375 0.863281 -4.609375 L 0.683594 -4.609375 C 0.578125 -4.609375 0.503906 -4.554688 0.503906 -4.460938 Z M 0.988281 -1.511719 C 0.988281 -2.09375 1.429688 -2.578125 1.925781 -2.578125 C 2.421875 -2.578125 2.863281 -2.09375 2.863281 -1.511719 C 2.863281 -0.933594 2.421875 -0.449219 1.925781 -0.449219 C 1.429688 -0.449219 0.988281 -0.933594 0.988281 -1.511719 Z M 0.988281 -1.511719" transform="translate(46.61 25.43)"/></g></g></g><g fill="#7B7B7B"><g><g><path d="M 2.671875 -0.15625 C 2.671875 -0.0625 2.714844 0 2.828125 0 L 3.027344 0 C 3.113281 0 3.1875 -0.0546875 3.1875 -0.136719 L 3.1875 -2.894531 C 3.1875 -2.996094 3.113281 -3.050781 3.027344 -3.050781 L 2.847656 -3.050781 C 2.742188 -3.050781 2.703125 -2.996094 2.695312 -2.894531 L 2.671875 -2.585938 C 2.484375 -2.851562 2.242188 -3.101562 1.734375 -3.101562 C 0.859375 -3.101562 0.25 -2.398438 0.25 -1.515625 C 0.25 -0.632812 0.863281 0.0625 1.734375 0.0625 C 2.238281 0.0625 2.484375 -0.167969 2.671875 -0.449219 Z M 0.765625 -1.515625 C 0.765625 -2.09375 1.136719 -2.578125 1.734375 -2.578125 C 2.34375 -2.578125 2.671875 -2.085938 2.671875 -1.503906 C 2.671875 -0.90625 2.332031 -0.453125 1.734375 -0.453125 C 1.148438 -0.453125 0.765625 -0.933594 0.765625 -1.515625 Z M 0.765625 -1.515625" transform="translate(50.294 25.43)"/></g></g></g><g fill="#7B7B7B"><g><g><path d="M 1.039062 -4.472656 C 1.039062 -4.554688 0.980469 -4.609375 0.902344 -4.609375 L 0.640625 -4.609375 C 0.554688 -4.609375 0.503906 -4.5625 0.503906 -4.472656 L 0.503906 -0.136719 C 0.503906 -0.0429688 0.546875 0 0.640625 0 L 0.902344 0 C 0.988281 0 1.039062 -0.0429688 1.039062 -0.136719 Z M 1.039062 -4.472656" transform="translate(53.985 25.43)"/></g></g></g><g fill="#7B7B7B"><g><g><path d="M 4.058594 -4.207031 C 3.652344 -4.503906 3.167969 -4.671875 2.648438 -4.671875 C 1.335938 -4.671875 0.273438 -3.609375 0.273438 -2.300781 C 0.273438 -0.988281 1.328125 0.0664062 2.640625 0.0664062 C 3.1875 0.0664062 3.667969 -0.105469 4.058594 -0.390625 C 4.101562 -0.417969 4.125 -0.453125 4.125 -0.496094 C 4.125 -0.523438 4.121094 -0.554688 4.105469 -0.585938 L 3.964844 -0.820312 C 3.925781 -0.875 3.894531 -0.894531 3.859375 -0.894531 C 3.804688 -0.894531 3.710938 -0.796875 3.628906 -0.757812 C 3.261719 -0.535156 2.96875 -0.464844 2.652344 -0.464844 C 1.691406 -0.464844 0.8125 -1.261719 0.8125 -2.292969 C 0.8125 -3.269531 1.578125 -4.125 2.664062 -4.125 C 3.042969 -4.125 3.4375 -3.988281 3.746094 -3.765625 C 3.796875 -3.734375 3.832031 -3.722656 3.859375 -3.714844 C 3.894531 -3.714844 3.933594 -3.746094 3.964844 -3.789062 L 4.09375 -3.996094 C 4.113281 -4.019531 4.136719 -4.0625 4.136719 -4.101562 C 4.136719 -4.144531 4.105469 -4.175781 4.058594 -4.207031 Z M 4.058594 -4.207031" transform="translate(57.47 25.43)"/></g></g></g><g fill="#7B7B7B"><g><g><path d="M 0.273438 -1.515625 C 0.273438 -0.632812 0.980469 0.0742188 1.863281 0.0742188 C 2.746094 0.0742188 3.460938 -0.632812 3.460938 -1.515625 C 3.460938 -2.398438 2.746094 -3.113281 1.863281 -3.113281 C 0.980469 -3.113281 0.273438 -2.398438 0.273438 -1.515625 Z M 0.777344 -1.515625 C 0.777344 -2.113281 1.269531 -2.617188 1.863281 -2.617188 C 2.460938 -2.617188 2.957031 -2.113281 2.957031 -1.515625 C 2.957031 -0.917969 2.460938 -0.421875 1.863281 -0.421875 C 1.269531 -0.421875 0.777344 -0.917969 0.777344 -1.515625 Z M 0.777344 -1.515625" transform="translate(61.85 25.43)"/></g></g></g><g fill="#7B7B7B"><g><g><path d="M 1.019531 -2.902344 C 1.011719 -2.988281 0.957031 -3.039062 0.875 -3.039062 L 0.640625 -3.039062 C 0.566406 -3.039062 0.503906 -2.988281 0.503906 -2.902344 L 0.503906 -0.136719 C 0.503906 -0.0507812 0.554688 0 0.644531 0 L 0.902344 0 C 0.988281 0 1.039062 -0.0429688 1.039062 -0.136719 L 1.039062 -1.914062 C 1.039062 -2.25 1.535156 -2.574219 1.945312 -2.574219 C 2.417969 -2.574219 2.710938 -2.222656 2.710938 -1.808594 L 2.710938 -0.148438 C 2.710938 -0.0507812 2.734375 0 2.847656 0 L 3.101562 0 C 3.179688 0 3.25 -0.0546875 3.25 -0.15625 L 3.25 -1.808594 C 3.25 -2.527344 2.796875 -3.105469 2.082031 -3.105469 C 1.707031 -3.105469 1.230469 -2.859375 1.039062 -2.621094 Z M 1.019531 -2.902344" transform="translate(65.64 25.43)"/></g></g></g><g fill="#7B7B7B"><g><g><path d="M 1.664062 -4.636719 C 0.957031 -4.621094 0.671875 -4.226562 0.671875 -3.648438 L 0.671875 -3.050781 L 0.347656 -3.050781 C 0.261719 -3.050781 0.191406 -3.007812 0.191406 -2.894531 L 0.191406 -2.734375 C 0.191406 -2.628906 0.261719 -2.558594 0.347656 -2.558594 L 0.671875 -2.558594 L 0.671875 -0.15625 C 0.671875 -0.0625 0.722656 0 0.820312 0 L 1.054688 0 C 1.132812 0 1.21875 -0.0546875 1.21875 -0.15625 L 1.21875 -2.558594 L 1.664062 -2.558594 C 1.757812 -2.558594 1.8125 -2.628906 1.8125 -2.734375 L 1.8125 -2.894531 C 1.8125 -3.007812 1.757812 -3.050781 1.664062 -3.050781 L 1.21875 -3.050781 L 1.21875 -3.640625 C 1.21875 -4.019531 1.386719 -4.09375 1.675781 -4.105469 C 1.765625 -4.105469 1.8125 -4.183594 1.8125 -4.261719 L 1.8125 -4.472656 C 1.8125 -4.574219 1.757812 -4.636719 1.664062 -4.636719 Z M 1.664062 -4.636719" transform="translate(69.313 25.43)"/></g></g></g><g fill="#7B7B7B"><g><g><path d="M 1.738281 0.0742188 C 2.125 0.0742188 2.449219 -0.0859375 2.726562 -0.273438 C 2.765625 -0.296875 2.828125 -0.339844 2.832031 -0.398438 C 2.832031 -0.417969 2.828125 -0.433594 2.808594 -0.453125 L 2.632812 -0.714844 C 2.617188 -0.738281 2.589844 -0.75 2.566406 -0.75 C 2.523438 -0.75 2.480469 -0.734375 2.453125 -0.707031 C 2.253906 -0.539062 1.988281 -0.449219 1.738281 -0.449219 C 1.28125 -0.449219 0.894531 -0.789062 0.820312 -1.285156 L 2.726562 -1.285156 C 2.953125 -1.285156 3.132812 -1.324219 3.132812 -1.570312 L 3.132812 -1.648438 C 3.132812 -2.453125 2.496094 -3.113281 1.738281 -3.113281 C 0.925781 -3.113281 0.273438 -2.398438 0.273438 -1.515625 C 0.273438 -0.632812 0.925781 0.0742188 1.738281 0.0742188 Z M 0.84375 -1.746094 C 0.949219 -2.210938 1.296875 -2.589844 1.726562 -2.589844 C 2.144531 -2.589844 2.523438 -2.210938 2.605469 -1.746094 Z M 0.84375 -1.746094" transform="translate(71.326 25.43)"/></g></g></g><g fill="#7B7B7B"><g><g><path d="M 1.007812 -2.914062 C 0.996094 -2.988281 0.949219 -3.050781 0.863281 -3.050781 L 0.640625 -3.050781 C 0.566406 -3.050781 0.503906 -2.996094 0.503906 -2.914062 L 0.503906 -0.136719 C 0.503906 -0.0429688 0.554688 0 0.644531 0 L 0.902344 0 C 0.988281 0 1.039062 -0.0429688 1.039062 -0.136719 L 1.039062 -1.753906 C 1.039062 -2.132812 1.292969 -2.566406 1.664062 -2.566406 C 1.777344 -2.558594 1.921875 -2.515625 2 -2.46875 C 2.011719 -2.460938 2.039062 -2.4375 2.074219 -2.4375 C 2.101562 -2.4375 2.132812 -2.453125 2.15625 -2.496094 L 2.3125 -2.789062 C 2.316406 -2.808594 2.324219 -2.820312 2.324219 -2.839844 C 2.324219 -2.914062 2.011719 -3.101562 1.738281 -3.101562 C 1.355469 -3.101562 1.144531 -2.878906 1.039062 -2.683594 Z M 1.007812 -2.914062" transform="translate(74.631 25.43)"/></g></g></g><g fill="#7B7B7B"><g><g><path d="M 1.738281 0.0742188 C 2.125 0.0742188 2.449219 -0.0859375 2.726562 -0.273438 C 2.765625 -0.296875 2.828125 -0.339844 2.832031 -0.398438 C 2.832031 -0.417969 2.828125 -0.433594 2.808594 -0.453125 L 2.632812 -0.714844 C 2.617188 -0.738281 2.589844 -0.75 2.566406 -0.75 C 2.523438 -0.75 2.480469 -0.734375 2.453125 -0.707031 C 2.253906 -0.539062 1.988281 -0.449219 1.738281 -0.449219 C 1.28125 -0.449219 0.894531 -0.789062 0.820312 -1.285156 L 2.726562 -1.285156 C 2.953125 -1.285156 3.132812 -1.324219 3.132812 -1.570312 L 3.132812 -1.648438 C 3.132812 -2.453125 2.496094 -3.113281 1.738281 -3.113281 C 0.925781 -3.113281 0.273438 -2.398438 0.273438 -1.515625 C 0.273438 -0.632812 0.925781 0.0742188 1.738281 0.0742188 Z M 0.84375 -1.746094 C 0.949219 -2.210938 1.296875 -2.589844 1.726562 -2.589844 C 2.144531 -2.589844 2.523438 -2.210938 2.605469 -1.746094 Z M 0.84375 -1.746094" transform="translate(76.999 25.43)"/></g></g></g><g fill="#7B7B7B"><g><g><path d="M 1.019531 -2.902344 C 1.011719 -2.988281 0.957031 -3.039062 0.875 -3.039062 L 0.640625 -3.039062 C 0.566406 -3.039062 0.503906 -2.988281 0.503906 -2.902344 L 0.503906 -0.136719 C 0.503906 -0.0507812 0.554688 0 0.644531 0 L 0.902344 0 C 0.988281 0 1.039062 -0.0429688 1.039062 -0.136719 L 1.039062 -1.914062 C 1.039062 -2.25 1.535156 -2.574219 1.945312 -2.574219 C 2.417969 -2.574219 2.710938 -2.222656 2.710938 -1.808594 L 2.710938 -0.148438 C 2.710938 -0.0507812 2.734375 0 2.847656 0 L 3.101562 0 C 3.179688 0 3.25 -0.0546875 3.25 -0.15625 L 3.25 -1.808594 C 3.25 -2.527344 2.796875 -3.105469 2.082031 -3.105469 C 1.707031 -3.105469 1.230469 -2.859375 1.039062 -2.621094 Z M 1.019531 -2.902344" transform="translate(80.304 25.43)"/></g></g></g><g fill="#7B7B7B"><g><g><path d="M 1.832031 -0.421875 C 1.238281 -0.421875 0.738281 -0.917969 0.738281 -1.515625 C 0.738281 -2.113281 1.238281 -2.617188 1.832031 -2.617188 C 2.101562 -2.617188 2.332031 -2.496094 2.523438 -2.347656 C 2.558594 -2.316406 2.605469 -2.300781 2.621094 -2.300781 C 2.660156 -2.300781 2.683594 -2.3125 2.703125 -2.335938 L 2.703125 -2.332031 L 2.871094 -2.597656 C 2.882812 -2.609375 2.890625 -2.648438 2.890625 -2.664062 C 2.890625 -2.710938 2.851562 -2.746094 2.789062 -2.789062 C 2.46875 -3.019531 2.164062 -3.113281 1.832031 -3.113281 C 0.949219 -3.113281 0.242188 -2.398438 0.242188 -1.515625 C 0.242188 -0.632812 0.949219 0.0742188 1.832031 0.0742188 C 2.210938 0.0742188 2.546875 -0.0820312 2.820312 -0.273438 C 2.859375 -0.296875 2.925781 -0.339844 2.925781 -0.398438 C 2.925781 -0.417969 2.921875 -0.433594 2.90625 -0.453125 L 2.726562 -0.707031 C 2.714844 -0.734375 2.691406 -0.746094 2.660156 -0.746094 C 2.621094 -0.746094 2.578125 -0.726562 2.546875 -0.703125 C 2.355469 -0.535156 2.082031 -0.421875 1.832031 -0.421875 Z M 1.832031 -0.421875" transform="translate(83.976 25.43)"/></g></g></g><g fill="#7B7B7B"><g><g><path d="M 1.738281 0.0742188 C 2.125 0.0742188 2.449219 -0.0859375 2.726562 -0.273438 C 2.765625 -0.296875 2.828125 -0.339844 2.832031 -0.398438 C 2.832031 -0.417969 2.828125 -0.433594 2.808594 -0.453125 L 2.632812 -0.714844 C 2.617188 -0.738281 2.589844 -0.75 2.566406 -0.75 C 2.523438 -0.75 2.480469 -0.734375 2.453125 -0.707031 C 2.253906 -0.539062 1.988281 -0.449219 1.738281 -0.449219 C 1.28125 -0.449219 0.894531 -0.789062 0.820312 -1.285156 L 2.726562 -1.285156 C 2.953125 -1.285156 3.132812 -1.324219 3.132812 -1.570312 L 3.132812 -1.648438 C 3.132812 -2.453125 2.496094 -3.113281 1.738281 -3.113281 C 0.925781 -3.113281 0.273438 -2.398438 0.273438 -1.515625 C 0.273438 -0.632812 0.925781 0.0742188 1.738281 0.0742188 Z M 0.84375 -1.746094 C 0.949219 -2.210938 1.296875 -2.589844 1.726562 -2.589844 C 2.144531 -2.589844 2.523438 -2.210938 2.605469 -1.746094 Z M 0.84375 -1.746094" transform="translate(87.15 25.43)"/></g></g></g><g fill="#7B7B7B"><g><g><path d="M 3.3125 0 C 3.394531 0 3.453125 -0.0742188 3.453125 -0.148438 L 3.453125 -0.390625 C 3.453125 -0.492188 3.394531 -0.527344 3.3125 -0.527344 L 1.191406 -0.527344 C 1.511719 -0.832031 2.695312 -1.96875 3.007812 -2.273438 C 3.25 -2.511719 3.421875 -2.863281 3.421875 -3.261719 C 3.421875 -4.105469 2.726562 -4.640625 1.882812 -4.640625 C 1.304688 -4.640625 0.875 -4.34375 0.597656 -3.996094 C 0.578125 -3.964844 0.539062 -3.902344 0.539062 -3.851562 C 0.539062 -3.828125 0.554688 -3.816406 0.570312 -3.789062 L 0.808594 -3.597656 C 0.820312 -3.585938 0.839844 -3.578125 0.859375 -3.578125 C 0.902344 -3.578125 0.957031 -3.617188 0.980469 -3.652344 C 1.175781 -3.953125 1.511719 -4.113281 1.84375 -4.125 L 1.882812 -4.125 C 2.421875 -4.125 2.871094 -3.757812 2.871094 -3.25 C 2.871094 -2.996094 2.785156 -2.800781 2.523438 -2.542969 L 0.402344 -0.472656 C 0.390625 -0.441406 0.386719 -0.417969 0.386719 -0.390625 L 0.386719 -0.148438 C 0.386719 -0.0664062 0.453125 0 0.535156 0 Z M 3.3125 0" transform="translate(92.401 25.43)"/></g></g></g><g fill="#7B7B7B"><g><g><path d="M 2.648438 -4.671875 C 1.335938 -4.671875 0.273438 -3.609375 0.273438 -2.300781 C 0.273438 -0.988281 1.328125 0.0664062 2.640625 0.0664062 C 3.957031 0.0664062 5.019531 -0.988281 5.019531 -2.292969 C 5.019531 -3.617188 3.953125 -4.671875 2.648438 -4.671875 Z M 0.8125 -2.304688 C 0.8125 -3.3125 1.628906 -4.132812 2.648438 -4.132812 C 3.652344 -4.132812 4.472656 -3.3125 4.472656 -2.304688 C 4.472656 -1.285156 3.652344 -0.464844 2.648438 -0.464844 C 1.628906 -0.464844 0.8125 -1.285156 0.8125 -2.304688 Z M 0.8125 -2.304688" transform="translate(96.228 25.43)"/></g></g></g><g fill="#7B7B7B"><g><g><path d="M 3.3125 0 C 3.394531 0 3.453125 -0.0742188 3.453125 -0.148438 L 3.453125 -0.390625 C 3.453125 -0.492188 3.394531 -0.527344 3.3125 -0.527344 L 1.191406 -0.527344 C 1.511719 -0.832031 2.695312 -1.96875 3.007812 -2.273438 C 3.25 -2.511719 3.421875 -2.863281 3.421875 -3.261719 C 3.421875 -4.105469 2.726562 -4.640625 1.882812 -4.640625 C 1.304688 -4.640625 0.875 -4.34375 0.597656 -3.996094 C 0.578125 -3.964844 0.539062 -3.902344 0.539062 -3.851562 C 0.539062 -3.828125 0.554688 -3.816406 0.570312 -3.789062 L 0.808594 -3.597656 C 0.820312 -3.585938 0.839844 -3.578125 0.859375 -3.578125 C 0.902344 -3.578125 0.957031 -3.617188 0.980469 -3.652344 C 1.175781 -3.953125 1.511719 -4.113281 1.84375 -4.125 L 1.882812 -4.125 C 2.421875 -4.125 2.871094 -3.757812 2.871094 -3.25 C 2.871094 -2.996094 2.785156 -2.800781 2.523438 -2.542969 L 0.402344 -0.472656 C 0.390625 -0.441406 0.386719 -0.417969 0.386719 -0.390625 L 0.386719 -0.148438 C 0.386719 -0.0664062 0.453125 0 0.535156 0 Z M 3.3125 0" transform="translate(101.528 25.43)"/></g></g></g><g fill="#7B7B7B"><g><g><path d="M 3.3125 0 C 3.394531 0 3.453125 -0.0742188 3.453125 -0.148438 L 3.453125 -0.390625 C 3.453125 -0.492188 3.394531 -0.527344 3.3125 -0.527344 L 1.191406 -0.527344 C 1.511719 -0.832031 2.695312 -1.96875 3.007812 -2.273438 C 3.25 -2.511719 3.421875 -2.863281 3.421875 -3.261719 C 3.421875 -4.105469 2.726562 -4.640625 1.882812 -4.640625 C 1.304688 -4.640625 0.875 -4.34375 0.597656 -3.996094 C 0.578125 -3.964844 0.539062 -3.902344 0.539062 -3.851562 C 0.539062 -3.828125 0.554688 -3.816406 0.570312 -3.789062 L 0.808594 -3.597656 C 0.820312 -3.585938 0.839844 -3.578125 0.859375 -3.578125 C 0.902344 -3.578125 0.957031 -3.617188 0.980469 -3.652344 C 1.175781 -3.953125 1.511719 -4.113281 1.84375 -4.125 L 1.882812 -4.125 C 2.421875 -4.125 2.871094 -3.757812 2.871094 -3.25 C 2.871094 -2.996094 2.785156 -2.800781 2.523438 -2.542969 L 0.402344 -0.472656 C 0.390625 -0.441406 0.386719 -0.417969 0.386719 -0.390625 L 0.386719 -0.148438 C 0.386719 -0.0664062 0.453125 0 0.535156 0 Z M 3.3125 0" transform="translate(105.356 25.43)"/></g></g></g><g fill="#7B7B7B"><g><g><path d="M 1.320312 -2.332031 C 0.667969 -2.332031 0.136719 -1.800781 0.136719 -1.144531 C 0.136719 -0.492188 0.664062 0.0351562 1.316406 0.0351562 C 1.972656 0.0351562 2.503906 -0.492188 2.503906 -1.144531 C 2.503906 -1.804688 1.96875 -2.332031 1.320312 -2.332031 Z M 0.40625 -1.148438 C 0.40625 -1.652344 0.8125 -2.058594 1.320312 -2.058594 C 1.820312 -2.058594 2.230469 -1.652344 2.230469 -1.148438 C 2.230469 -0.640625 1.820312 -0.230469 1.320312 -0.230469 C 0.8125 -0.230469 0.40625 -0.640625 0.40625 -1.148438 Z M 0.40625 -1.148438" transform="translate(36.768 30.026)"/></g></g></g><g fill="#7B7B7B"><g><g><path d="M 0.914062 -0.210938 C 0.617188 -0.210938 0.367188 -0.457031 0.367188 -0.757812 C 0.367188 -1.054688 0.617188 -1.304688 0.914062 -1.304688 C 1.046875 -1.304688 1.160156 -1.246094 1.257812 -1.171875 C 1.277344 -1.15625 1.296875 -1.144531 1.308594 -1.144531 C 1.324219 -1.144531 1.339844 -1.152344 1.347656 -1.164062 L 1.347656 -1.160156 L 1.429688 -1.296875 C 1.4375 -1.300781 1.441406 -1.320312 1.441406 -1.328125 C 1.441406 -1.351562 1.421875 -1.371094 1.390625 -1.390625 C 1.230469 -1.507812 1.078125 -1.550781 0.914062 -1.550781 C 0.472656 -1.550781 0.121094 -1.195312 0.121094 -0.757812 C 0.121094 -0.316406 0.472656 0.0390625 0.914062 0.0390625 C 1.101562 0.0390625 1.269531 -0.0390625 1.40625 -0.136719 C 1.425781 -0.148438 1.460938 -0.171875 1.460938 -0.199219 C 1.460938 -0.207031 1.457031 -0.21875 1.449219 -0.226562 L 1.359375 -0.351562 C 1.355469 -0.367188 1.339844 -0.371094 1.324219 -0.371094 C 1.308594 -0.371094 1.285156 -0.363281 1.269531 -0.351562 C 1.175781 -0.265625 1.039062 -0.210938 0.914062 -0.210938 Z M 0.914062 -0.210938" transform="translate(39.411 30.026)"/></g></g></g><g fill="#7B7B7B"><g><g><path d="M 0.777344 0.0234375 C 0.828125 0.0234375 0.855469 -0.00390625 0.855469 -0.0507812 L 0.855469 -0.148438 C 0.855469 -0.199219 0.824219 -0.226562 0.777344 -0.226562 C 0.652344 -0.230469 0.613281 -0.230469 0.613281 -0.441406 L 0.613281 -1.273438 L 0.84375 -1.273438 C 0.890625 -1.273438 0.910156 -1.296875 0.910156 -1.347656 L 0.910156 -1.449219 C 0.910156 -1.503906 0.890625 -1.519531 0.84375 -1.519531 L 0.613281 -1.519531 L 0.613281 -1.960938 C 0.613281 -2 0.605469 -2.042969 0.554688 -2.042969 L 0.398438 -2.019531 C 0.359375 -2.011719 0.34375 -1.996094 0.34375 -1.957031 L 0.34375 -1.519531 L 0.15625 -1.519531 C 0.109375 -1.519531 0.0820312 -1.507812 0.0820312 -1.457031 L 0.0820312 -1.339844 C 0.0820312 -1.289062 0.109375 -1.273438 0.15625 -1.273438 L 0.34375 -1.273438 L 0.34375 -0.34375 C 0.34375 -0.0117188 0.53125 0.0273438 0.726562 0.0273438 C 0.746094 0.0273438 0.761719 0.0234375 0.777344 0.0234375 Z M 0.777344 0.0234375" transform="translate(40.994 30.026)"/></g></g></g><g fill="#7B7B7B"><g><g><path d="M 0.1875 -0.144531 C 0.1875 -0.0390625 0.273438 0.0507812 0.378906 0.0507812 C 0.488281 0.0507812 0.574219 -0.0390625 0.574219 -0.144531 C 0.574219 -0.253906 0.488281 -0.339844 0.378906 -0.339844 C 0.273438 -0.339844 0.1875 -0.253906 0.1875 -0.144531 Z M 0.1875 -0.144531" transform="translate(42.01 30.026)"/></g></g></g><g fill="#7B7B7B"><g><g><path d="M 0.574219 -2.300781 C 0.558594 -2.300781 0.535156 -2.289062 0.53125 -2.289062 C 0.445312 -2.25 0.375 -2.214844 0.289062 -2.179688 C 0.25 -2.160156 0.234375 -2.144531 0.234375 -2.105469 L 0.234375 -1.953125 C 0.234375 -1.925781 0.25 -1.910156 0.277344 -1.910156 C 0.320312 -1.910156 0.429688 -1.964844 0.503906 -2 L 0.503906 -0.0664062 C 0.503906 -0.0234375 0.523438 0 0.570312 0 L 0.695312 0 C 0.746094 0 0.769531 -0.0234375 0.769531 -0.0664062 L 0.769531 -2.230469 C 0.769531 -2.273438 0.742188 -2.300781 0.695312 -2.300781 Z M 0.574219 -2.300781" transform="translate(43.799 30.026)"/></g></g></g><g fill="#7B7B7B"><g><g><path d="M 1.320312 -2.332031 C 0.667969 -2.332031 0.136719 -1.800781 0.136719 -1.144531 C 0.136719 -0.492188 0.664062 0.0351562 1.316406 0.0351562 C 1.972656 0.0351562 2.503906 -0.492188 2.503906 -1.144531 C 2.503906 -1.804688 1.96875 -2.332031 1.320312 -2.332031 Z M 0.40625 -1.148438 C 0.40625 -1.652344 0.8125 -2.058594 1.320312 -2.058594 C 1.820312 -2.058594 2.230469 -1.652344 2.230469 -1.148438 C 2.230469 -0.640625 1.820312 -0.230469 1.320312 -0.230469 C 0.8125 -0.230469 0.40625 -0.640625 0.40625 -1.148438 Z M 0.40625 -1.148438" transform="translate(44.855 30.026)"/></g></g></g><g fill="#7B7B7B"><g><g><path d="M 1.652344 0 C 1.691406 0 1.722656 -0.0390625 1.722656 -0.0742188 L 1.722656 -0.195312 C 1.722656 -0.246094 1.691406 -0.261719 1.652344 -0.261719 L 0.59375 -0.261719 C 0.753906 -0.414062 1.34375 -0.980469 1.5 -1.132812 C 1.621094 -1.25 1.707031 -1.429688 1.707031 -1.625 C 1.707031 -2.046875 1.359375 -2.316406 0.9375 -2.316406 C 0.652344 -2.316406 0.4375 -2.164062 0.296875 -1.992188 C 0.289062 -1.976562 0.269531 -1.945312 0.269531 -1.921875 C 0.269531 -1.910156 0.277344 -1.902344 0.285156 -1.890625 L 0.402344 -1.792969 C 0.410156 -1.789062 0.417969 -1.785156 0.425781 -1.785156 C 0.449219 -1.785156 0.476562 -1.804688 0.488281 -1.820312 C 0.585938 -1.96875 0.753906 -2.050781 0.921875 -2.058594 L 0.9375 -2.058594 C 1.207031 -2.058594 1.429688 -1.875 1.429688 -1.621094 C 1.429688 -1.492188 1.386719 -1.398438 1.257812 -1.265625 L 0.203125 -0.234375 C 0.195312 -0.21875 0.191406 -0.207031 0.191406 -0.195312 L 0.191406 -0.0742188 C 0.191406 -0.0351562 0.226562 0 0.265625 0 Z M 1.652344 0" transform="translate(48.468 30.026)"/></g></g></g><g fill="#7B7B7B"><g><g><path d="M 1.320312 -2.332031 C 0.667969 -2.332031 0.136719 -1.800781 0.136719 -1.144531 C 0.136719 -0.492188 0.664062 0.0351562 1.316406 0.0351562 C 1.972656 0.0351562 2.503906 -0.492188 2.503906 -1.144531 C 2.503906 -1.804688 1.96875 -2.332031 1.320312 -2.332031 Z M 0.40625 -1.148438 C 0.40625 -1.652344 0.8125 -2.058594 1.320312 -2.058594 C 1.820312 -2.058594 2.230469 -1.652344 2.230469 -1.148438 C 2.230469 -0.640625 1.820312 -0.230469 1.320312 -0.230469 C 0.8125 -0.230469 0.40625 -0.640625 0.40625 -1.148438 Z M 0.40625 -1.148438" transform="translate(50.377 30.026)"/></g></g></g><g fill="#7B7B7B"><g><g><path d="M 1.652344 0 C 1.691406 0 1.722656 -0.0390625 1.722656 -0.0742188 L 1.722656 -0.195312 C 1.722656 -0.246094 1.691406 -0.261719 1.652344 -0.261719 L 0.59375 -0.261719 C 0.753906 -0.414062 1.34375 -0.980469 1.5 -1.132812 C 1.621094 -1.25 1.707031 -1.429688 1.707031 -1.625 C 1.707031 -2.046875 1.359375 -2.316406 0.9375 -2.316406 C 0.652344 -2.316406 0.4375 -2.164062 0.296875 -1.992188 C 0.289062 -1.976562 0.269531 -1.945312 0.269531 -1.921875 C 0.269531 -1.910156 0.277344 -1.902344 0.285156 -1.890625 L 0.402344 -1.792969 C 0.410156 -1.789062 0.417969 -1.785156 0.425781 -1.785156 C 0.449219 -1.785156 0.476562 -1.804688 0.488281 -1.820312 C 0.585938 -1.96875 0.753906 -2.050781 0.921875 -2.058594 L 0.9375 -2.058594 C 1.207031 -2.058594 1.429688 -1.875 1.429688 -1.621094 C 1.429688 -1.492188 1.386719 -1.398438 1.257812 -1.265625 L 0.203125 -0.234375 C 0.195312 -0.21875 0.191406 -0.207031 0.191406 -0.195312 L 0.191406 -0.0742188 C 0.191406 -0.0351562 0.226562 0 0.265625 0 Z M 1.652344 0" transform="translate(53.02 30.026)"/></g></g></g><g fill="#7B7B7B"><g><g><path d="M 1.652344 0 C 1.691406 0 1.722656 -0.0390625 1.722656 -0.0742188 L 1.722656 -0.195312 C 1.722656 -0.246094 1.691406 -0.261719 1.652344 -0.261719 L 0.59375 -0.261719 C 0.753906 -0.414062 1.34375 -0.980469 1.5 -1.132812 C 1.621094 -1.25 1.707031 -1.429688 1.707031 -1.625 C 1.707031 -2.046875 1.359375 -2.316406 0.9375 -2.316406 C 0.652344 -2.316406 0.4375 -2.164062 0.296875 -1.992188 C 0.289062 -1.976562 0.269531 -1.945312 0.269531 -1.921875 C 0.269531 -1.910156 0.277344 -1.902344 0.285156 -1.890625 L 0.402344 -1.792969 C 0.410156 -1.789062 0.417969 -1.785156 0.425781 -1.785156 C 0.449219 -1.785156 0.476562 -1.804688 0.488281 -1.820312 C 0.585938 -1.96875 0.753906 -2.050781 0.921875 -2.058594 L 0.9375 -2.058594 C 1.207031 -2.058594 1.429688 -1.875 1.429688 -1.621094 C 1.429688 -1.492188 1.386719 -1.398438 1.257812 -1.265625 L 0.203125 -0.234375 C 0.195312 -0.21875 0.191406 -0.207031 0.191406 -0.195312 L 0.191406 -0.0742188 C 0.191406 -0.0351562 0.226562 0 0.265625 0 Z M 1.652344 0" transform="translate(54.929 30.026)"/></g></g></g><g fill="#7B7B7B"><g><g><path d="M 0.1875 -0.140625 C 0.1875 -0.0390625 0.265625 0.0507812 0.363281 0.0664062 L 0.363281 0.078125 C 0.363281 0.15625 0.304688 0.171875 0.304688 0.210938 C 0.304688 0.222656 0.3125 0.246094 0.328125 0.257812 L 0.375 0.292969 C 0.386719 0.304688 0.398438 0.308594 0.410156 0.308594 C 0.464844 0.308594 0.597656 0.167969 0.597656 -0.125 C 0.597656 -0.257812 0.511719 -0.347656 0.390625 -0.347656 C 0.277344 -0.347656 0.1875 -0.257812 0.1875 -0.140625 Z M 0.1875 -0.140625" transform="translate(56.837 30.026)"/></g></g></g><g fill="#7B7B7B"><g><g><path d="M 1.652344 0 C 1.691406 0 1.722656 -0.0390625 1.722656 -0.0742188 L 1.722656 -0.195312 C 1.722656 -0.246094 1.691406 -0.261719 1.652344 -0.261719 L 0.59375 -0.261719 C 0.753906 -0.414062 1.34375 -0.980469 1.5 -1.132812 C 1.621094 -1.25 1.707031 -1.429688 1.707031 -1.625 C 1.707031 -2.046875 1.359375 -2.316406 0.9375 -2.316406 C 0.652344 -2.316406 0.4375 -2.164062 0.296875 -1.992188 C 0.289062 -1.976562 0.269531 -1.945312 0.269531 -1.921875 C 0.269531 -1.910156 0.277344 -1.902344 0.285156 -1.890625 L 0.402344 -1.792969 C 0.410156 -1.789062 0.417969 -1.785156 0.425781 -1.785156 C 0.449219 -1.785156 0.476562 -1.804688 0.488281 -1.820312 C 0.585938 -1.96875 0.753906 -2.050781 0.921875 -2.058594 L 0.9375 -2.058594 C 1.207031 -2.058594 1.429688 -1.875 1.429688 -1.621094 C 1.429688 -1.492188 1.386719 -1.398438 1.257812 -1.265625 L 0.203125 -0.234375 C 0.195312 -0.21875 0.191406 -0.207031 0.191406 -0.195312 L 0.191406 -0.0742188 C 0.191406 -0.0351562 0.226562 0 0.265625 0 Z M 1.652344 0" transform="translate(58.625 30.026)"/></g></g></g><g fill="#7B7B7B"><g><g><path d="M 0.320312 -0.988281 C 0.273438 -0.988281 0.246094 -0.964844 0.246094 -0.921875 L 0.246094 -0.789062 C 0.246094 -0.742188 0.273438 -0.71875 0.320312 -0.71875 L 1.308594 -0.71875 C 1.347656 -0.71875 1.375 -0.753906 1.375 -0.789062 L 1.375 -0.921875 C 1.375 -0.964844 1.34375 -0.988281 1.308594 -0.988281 Z M 0.320312 -0.988281" transform="translate(61.504 30.026)"/></g></g></g><g fill="#7B7B7B"><g><g><path d="M 0.136719 -0.757812 C 0.136719 -0.320312 0.488281 0.03125 0.921875 0.03125 C 1.359375 0.03125 1.714844 -0.320312 1.714844 -0.757812 C 1.714844 -1.195312 1.359375 -1.546875 0.921875 -1.546875 C 0.863281 -1.546875 0.808594 -1.535156 0.761719 -1.515625 C 0.890625 -1.742188 0.902344 -1.761719 1.167969 -2.222656 C 1.179688 -2.242188 1.179688 -2.265625 1.179688 -2.273438 C 1.179688 -2.296875 1.160156 -2.300781 1.125 -2.300781 L 0.964844 -2.300781 C 0.910156 -2.300781 0.890625 -2.285156 0.863281 -2.234375 L 0.246094 -1.164062 C 0.179688 -1.042969 0.136719 -0.90625 0.136719 -0.757812 Z M 0.40625 -0.757812 C 0.40625 -1.046875 0.632812 -1.289062 0.921875 -1.289062 C 1.214844 -1.289062 1.4375 -1.046875 1.4375 -0.757812 C 1.4375 -0.464844 1.214844 -0.230469 0.921875 -0.230469 C 0.632812 -0.230469 0.40625 -0.464844 0.40625 -0.757812 Z M 0.40625 -0.757812" transform="translate(64.075 30.026)"/></g></g></g><g fill="#7B7B7B"><g><g><path d="M 0.25 0.519531 C 0.25 0.566406 0.289062 0.597656 0.339844 0.597656 L 0.429688 0.597656 C 0.488281 0.597656 0.519531 0.566406 0.519531 0.519531 L 0.519531 -0.210938 C 0.617188 -0.0664062 0.769531 0.0234375 0.980469 0.0234375 C 1.378906 0.0234375 1.691406 -0.320312 1.691406 -0.761719 C 1.691406 -1.203125 1.378906 -1.550781 0.980469 -1.550781 C 0.78125 -1.550781 0.613281 -1.445312 0.515625 -1.308594 L 0.503906 -1.445312 C 0.503906 -1.492188 0.46875 -1.519531 0.414062 -1.519531 L 0.335938 -1.519531 C 0.28125 -1.519531 0.25 -1.492188 0.25 -1.445312 Z M 0.515625 -0.757812 L 0.515625 -0.761719 C 0.519531 -1.046875 0.714844 -1.289062 0.964844 -1.289062 C 1.21875 -1.289062 1.414062 -1.046875 1.414062 -0.757812 C 1.414062 -0.464844 1.21875 -0.230469 0.964844 -0.230469 C 0.714844 -0.230469 0.515625 -0.464844 0.515625 -0.757812 Z M 0.515625 -0.757812" transform="translate(66.901 30.026)"/></g></g></g><g fill="#7B7B7B"><g><g><path d="M 0.1875 -0.144531 C 0.1875 -0.0390625 0.273438 0.0507812 0.378906 0.0507812 C 0.488281 0.0507812 0.574219 -0.0390625 0.574219 -0.144531 C 0.574219 -0.253906 0.488281 -0.339844 0.378906 -0.339844 C 0.273438 -0.339844 0.1875 -0.253906 0.1875 -0.144531 Z M 0.1875 -0.144531" transform="translate(68.733 30.026)"/></g></g></g><g fill="#7B7B7B"><g><g><path d="M 0.507812 -1.445312 C 0.503906 -1.488281 0.480469 -1.515625 0.4375 -1.515625 L 0.320312 -1.515625 C 0.277344 -1.515625 0.25 -1.492188 0.25 -1.445312 L 0.25 -0.0664062 C 0.25 -0.0234375 0.277344 0 0.320312 0 L 0.449219 0 C 0.492188 0 0.515625 -0.0234375 0.515625 -0.0664062 L 0.515625 -0.914062 C 0.515625 -1.117188 0.699219 -1.28125 0.902344 -1.28125 C 1.128906 -1.28125 1.230469 -1.117188 1.230469 -0.910156 L 1.230469 -0.0742188 C 1.230469 -0.0234375 1.246094 0 1.296875 0 L 1.421875 0 C 1.46875 0 1.496094 -0.0273438 1.496094 -0.078125 L 1.496094 -0.90625 C 1.496094 -1.121094 1.695312 -1.28125 1.878906 -1.28125 C 2.113281 -1.28125 2.207031 -1.117188 2.207031 -0.910156 L 2.207031 -0.0742188 C 2.207031 -0.0234375 2.230469 0 2.285156 0 L 2.398438 0 C 2.441406 0 2.476562 -0.0273438 2.476562 -0.078125 L 2.476562 -0.90625 C 2.476562 -1.25 2.273438 -1.550781 1.921875 -1.550781 C 1.691406 -1.550781 1.511719 -1.410156 1.417969 -1.226562 C 1.328125 -1.398438 1.191406 -1.542969 0.953125 -1.542969 C 0.757812 -1.542969 0.601562 -1.429688 0.515625 -1.3125 Z M 0.507812 -1.445312" transform="translate(69.55 30.026)"/></g></g></g><g fill="#7B7B7B"><g><g><path d="M 0.1875 -0.144531 C 0.1875 -0.0390625 0.273438 0.0507812 0.378906 0.0507812 C 0.488281 0.0507812 0.574219 -0.0390625 0.574219 -0.144531 C 0.574219 -0.253906 0.488281 -0.339844 0.378906 -0.339844 C 0.273438 -0.339844 0.1875 -0.253906 0.1875 -0.144531 Z M 0.1875 -0.144531" transform="translate(72.256 30.026)"/></g></g></g><g fill="#7B7B7B"><g><g><path d="M 2.023438 -2.097656 C 1.820312 -2.246094 1.582031 -2.332031 1.320312 -2.332031 C 0.667969 -2.332031 0.136719 -1.800781 0.136719 -1.144531 C 0.136719 -0.492188 0.664062 0.0351562 1.316406 0.0351562 C 1.589844 0.0351562 1.828125 -0.0507812 2.023438 -0.195312 C 2.046875 -0.207031 2.058594 -0.226562 2.058594 -0.246094 C 2.058594 -0.261719 2.054688 -0.277344 2.046875 -0.292969 L 1.976562 -0.410156 C 1.957031 -0.4375 1.941406 -0.445312 1.925781 -0.445312 C 1.894531 -0.445312 1.851562 -0.398438 1.808594 -0.378906 C 1.625 -0.265625 1.480469 -0.230469 1.324219 -0.230469 C 0.84375 -0.230469 0.40625 -0.628906 0.40625 -1.144531 C 0.40625 -1.628906 0.785156 -2.058594 1.328125 -2.058594 C 1.519531 -2.058594 1.714844 -1.988281 1.867188 -1.878906 C 1.894531 -1.863281 1.910156 -1.855469 1.925781 -1.851562 C 1.941406 -1.851562 1.960938 -1.867188 1.976562 -1.890625 L 2.042969 -1.992188 C 2.050781 -2.003906 2.0625 -2.027344 2.0625 -2.046875 C 2.0625 -2.066406 2.046875 -2.082031 2.023438 -2.097656 Z M 2.023438 -2.097656" transform="translate(36.768 34.157)"/></g></g></g><g fill="#7B7B7B"><g><g><path d="M 0.515625 -1.453125 C 0.515625 -1.492188 0.488281 -1.519531 0.449219 -1.519531 L 0.320312 -1.519531 C 0.277344 -1.519531 0.25 -1.496094 0.25 -1.453125 L 0.25 -0.0664062 C 0.25 -0.0234375 0.273438 0 0.320312 0 L 0.449219 0 C 0.492188 0 0.515625 -0.0234375 0.515625 -0.0664062 Z M 0.1875 -1.949219 C 0.1875 -1.84375 0.277344 -1.757812 0.382812 -1.757812 C 0.496094 -1.757812 0.578125 -1.84375 0.578125 -1.949219 C 0.578125 -2.058594 0.496094 -2.144531 0.382812 -2.144531 C 0.277344 -2.144531 0.1875 -2.058594 0.1875 -1.949219 Z M 0.1875 -1.949219" transform="translate(38.952 34.157)"/></g></g></g><g fill="#7B7B7B"><g><g><path d="M 1.566406 -2.226562 C 1.566406 -2.269531 1.527344 -2.300781 1.476562 -2.300781 L 1.386719 -2.300781 C 1.324219 -2.300781 1.296875 -2.269531 1.296875 -2.226562 L 1.296875 -1.300781 C 1.199219 -1.445312 1.0625 -1.546875 0.832031 -1.546875 C 0.398438 -1.546875 0.117188 -1.195312 0.117188 -0.757812 C 0.117188 -0.316406 0.398438 0.03125 0.832031 0.03125 C 1.0625 0.03125 1.195312 -0.0664062 1.296875 -0.203125 L 1.296875 -0.078125 C 1.296875 -0.0273438 1.332031 0 1.386719 0 L 1.476562 0 C 1.535156 0 1.566406 -0.0273438 1.566406 -0.078125 Z M 1.324219 -0.753906 C 1.324219 -0.464844 1.132812 -0.222656 0.855469 -0.222656 C 0.546875 -0.222656 0.386719 -0.464844 0.386719 -0.753906 C 0.386719 -1.042969 0.546875 -1.285156 0.855469 -1.285156 C 1.136719 -1.285156 1.324219 -1.042969 1.324219 -0.753906 Z M 1.324219 -0.753906" transform="translate(39.72 34.157)"/></g></g></g><g fill="#7B7B7B"><g><g><path d="M 1.332031 -0.078125 C 1.332031 -0.03125 1.355469 0 1.410156 0 L 1.507812 0 C 1.550781 0 1.589844 -0.0273438 1.589844 -0.0664062 L 1.589844 -1.445312 C 1.589844 -1.492188 1.550781 -1.519531 1.507812 -1.519531 L 1.417969 -1.519531 C 1.367188 -1.519531 1.347656 -1.492188 1.34375 -1.445312 L 1.332031 -1.289062 C 1.238281 -1.421875 1.117188 -1.546875 0.863281 -1.546875 C 0.425781 -1.546875 0.125 -1.195312 0.125 -0.757812 C 0.125 -0.316406 0.429688 0.03125 0.863281 0.03125 C 1.117188 0.03125 1.238281 -0.0820312 1.332031 -0.222656 Z M 0.382812 -0.757812 C 0.382812 -1.042969 0.566406 -1.285156 0.863281 -1.285156 C 1.167969 -1.285156 1.332031 -1.042969 1.332031 -0.75 C 1.332031 -0.453125 1.160156 -0.226562 0.863281 -0.226562 C 0.574219 -0.226562 0.382812 -0.464844 0.382812 -0.757812 Z M 0.382812 -0.757812" transform="translate(41.515 34.157)"/></g></g></g><g fill="#7B7B7B"><g><g><path d="M 1.566406 -2.226562 C 1.566406 -2.269531 1.527344 -2.300781 1.476562 -2.300781 L 1.386719 -2.300781 C 1.324219 -2.300781 1.296875 -2.269531 1.296875 -2.226562 L 1.296875 -1.300781 C 1.199219 -1.445312 1.0625 -1.546875 0.832031 -1.546875 C 0.398438 -1.546875 0.117188 -1.195312 0.117188 -0.757812 C 0.117188 -0.316406 0.398438 0.03125 0.832031 0.03125 C 1.0625 0.03125 1.195312 -0.0664062 1.296875 -0.203125 L 1.296875 -0.078125 C 1.296875 -0.0273438 1.332031 0 1.386719 0 L 1.476562 0 C 1.535156 0 1.566406 -0.0273438 1.566406 -0.078125 Z M 1.324219 -0.753906 C 1.324219 -0.464844 1.132812 -0.222656 0.855469 -0.222656 C 0.546875 -0.222656 0.386719 -0.464844 0.386719 -0.753906 C 0.386719 -1.042969 0.546875 -1.285156 0.855469 -1.285156 C 1.136719 -1.285156 1.324219 -1.042969 1.324219 -0.753906 Z M 1.324219 -0.753906" transform="translate(43.355 34.157)"/></g></g></g><g fill="#7B7B7B"><g><g><path d="M 0.867188 0.0390625 C 1.058594 0.0390625 1.222656 -0.0429688 1.359375 -0.136719 C 1.378906 -0.148438 1.410156 -0.171875 1.414062 -0.199219 C 1.414062 -0.207031 1.410156 -0.21875 1.402344 -0.226562 L 1.3125 -0.355469 C 1.304688 -0.367188 1.292969 -0.375 1.28125 -0.375 C 1.257812 -0.375 1.234375 -0.367188 1.222656 -0.351562 C 1.125 -0.269531 0.992188 -0.222656 0.867188 -0.222656 C 0.636719 -0.222656 0.445312 -0.394531 0.410156 -0.640625 L 1.359375 -0.640625 C 1.472656 -0.640625 1.5625 -0.660156 1.5625 -0.785156 L 1.5625 -0.820312 C 1.5625 -1.222656 1.246094 -1.550781 0.867188 -1.550781 C 0.460938 -1.550781 0.136719 -1.195312 0.136719 -0.757812 C 0.136719 -0.316406 0.460938 0.0390625 0.867188 0.0390625 Z M 0.421875 -0.871094 C 0.472656 -1.101562 0.648438 -1.292969 0.863281 -1.292969 C 1.070312 -1.292969 1.257812 -1.101562 1.296875 -0.871094 Z M 0.421875 -0.871094" transform="translate(45.15 34.157)"/></g></g></g><g fill="#7B7B7B"><g><g><path d="M 1.566406 -2.226562 C 1.566406 -2.269531 1.527344 -2.300781 1.476562 -2.300781 L 1.386719 -2.300781 C 1.324219 -2.300781 1.296875 -2.269531 1.296875 -2.226562 L 1.296875 -1.300781 C 1.199219 -1.445312 1.0625 -1.546875 0.832031 -1.546875 C 0.398438 -1.546875 0.117188 -1.195312 0.117188 -0.757812 C 0.117188 -0.316406 0.398438 0.03125 0.832031 0.03125 C 1.0625 0.03125 1.195312 -0.0664062 1.296875 -0.203125 L 1.296875 -0.078125 C 1.296875 -0.0273438 1.332031 0 1.386719 0 L 1.476562 0 C 1.535156 0 1.566406 -0.0273438 1.566406 -0.078125 Z M 1.324219 -0.753906 C 1.324219 -0.464844 1.132812 -0.222656 0.855469 -0.222656 C 0.546875 -0.222656 0.386719 -0.464844 0.386719 -0.753906 C 0.386719 -1.042969 0.546875 -1.285156 0.855469 -1.285156 C 1.136719 -1.285156 1.324219 -1.042969 1.324219 -0.753906 Z M 1.324219 -0.753906" transform="translate(47.768 34.157)"/></g></g></g><g fill="#7B7B7B"><g><g><path d="M 1.332031 -0.078125 C 1.332031 -0.03125 1.355469 0 1.410156 0 L 1.507812 0 C 1.550781 0 1.589844 -0.0273438 1.589844 -0.0664062 L 1.589844 -1.445312 C 1.589844 -1.492188 1.550781 -1.519531 1.507812 -1.519531 L 1.417969 -1.519531 C 1.367188 -1.519531 1.347656 -1.492188 1.34375 -1.445312 L 1.332031 -1.289062 C 1.238281 -1.421875 1.117188 -1.546875 0.863281 -1.546875 C 0.425781 -1.546875 0.125 -1.195312 0.125 -0.757812 C 0.125 -0.316406 0.429688 0.03125 0.863281 0.03125 C 1.117188 0.03125 1.238281 -0.0820312 1.332031 -0.222656 Z M 0.382812 -0.757812 C 0.382812 -1.042969 0.566406 -1.285156 0.863281 -1.285156 C 1.167969 -1.285156 1.332031 -1.042969 1.332031 -0.75 C 1.332031 -0.453125 1.160156 -0.226562 0.863281 -0.226562 C 0.574219 -0.226562 0.382812 -0.464844 0.382812 -0.757812 Z M 0.382812 -0.757812" transform="translate(49.562 34.157)"/></g></g></g><g fill="#7B7B7B"><g><g><path d="M 0.121094 -0.308594 C 0.183594 -0.0859375 0.425781 0.0273438 0.648438 0.0273438 C 0.964844 0.0273438 1.199219 -0.140625 1.199219 -0.417969 C 1.199219 -0.667969 0.996094 -0.828125 0.667969 -0.910156 C 0.550781 -0.941406 0.414062 -0.996094 0.414062 -1.121094 C 0.414062 -1.222656 0.515625 -1.316406 0.667969 -1.316406 C 0.777344 -1.316406 0.859375 -1.246094 0.917969 -1.164062 C 0.9375 -1.136719 0.957031 -1.105469 0.980469 -1.105469 C 0.984375 -1.105469 0.996094 -1.109375 1 -1.117188 L 1.128906 -1.207031 C 1.148438 -1.222656 1.140625 -1.242188 1.132812 -1.257812 C 1.027344 -1.445312 0.890625 -1.558594 0.664062 -1.558594 C 0.367188 -1.558594 0.167969 -1.375 0.167969 -1.121094 C 0.167969 -0.882812 0.347656 -0.730469 0.621094 -0.660156 C 0.789062 -0.613281 0.9375 -0.554688 0.9375 -0.417969 C 0.9375 -0.292969 0.785156 -0.21875 0.648438 -0.21875 C 0.566406 -0.21875 0.410156 -0.261719 0.363281 -0.386719 C 0.355469 -0.410156 0.335938 -0.4375 0.308594 -0.4375 C 0.304688 -0.4375 0.296875 -0.4375 0.292969 -0.433594 L 0.136719 -0.371094 C 0.113281 -0.363281 0.113281 -0.328125 0.121094 -0.308594 Z M 0.121094 -0.308594" transform="translate(51.402 34.157)"/></g></g></g><g fill="#7B7B7B"><g><g><path d="M 0.53125 -0.503906 L 1.660156 -0.503906 L 1.839844 -0.0585938 C 1.851562 -0.0234375 1.882812 0 1.925781 0 L 2.058594 0 C 2.097656 0 2.125 -0.015625 2.125 -0.0507812 C 2.125 -0.0625 2.117188 -0.0859375 2.117188 -0.0859375 L 1.222656 -2.242188 C 1.214844 -2.265625 1.199219 -2.300781 1.144531 -2.300781 L 1.054688 -2.300781 C 1 -2.300781 0.988281 -2.265625 0.980469 -2.242188 C 0.980469 -2.238281 0.976562 -2.238281 0.0820312 -0.0898438 C 0.0820312 -0.0898438 0.0742188 -0.0703125 0.0742188 -0.0507812 C 0.0742188 -0.015625 0.0976562 0 0.140625 0 L 0.273438 0 C 0.316406 0 0.339844 -0.0195312 0.359375 -0.0625 Z M 1.101562 -1.898438 L 1.550781 -0.765625 L 0.644531 -0.765625 Z M 1.101562 -1.898438" transform="translate(53.69 34.157)"/></g></g></g><g fill="#7B7B7B"><g><g><path d="M 0.503906 -1.453125 C 0.496094 -1.492188 0.472656 -1.519531 0.429688 -1.519531 L 0.320312 -1.519531 C 0.28125 -1.519531 0.25 -1.492188 0.25 -1.453125 L 0.25 -0.0664062 C 0.25 -0.0234375 0.277344 0 0.320312 0 L 0.449219 0 C 0.492188 0 0.515625 -0.0234375 0.515625 -0.0664062 L 0.515625 -0.875 C 0.515625 -1.0625 0.644531 -1.28125 0.832031 -1.28125 C 0.886719 -1.277344 0.957031 -1.253906 0.996094 -1.230469 C 1.003906 -1.226562 1.015625 -1.214844 1.035156 -1.214844 C 1.046875 -1.214844 1.0625 -1.222656 1.074219 -1.246094 L 1.152344 -1.390625 C 1.15625 -1.402344 1.160156 -1.40625 1.160156 -1.417969 C 1.160156 -1.453125 1.003906 -1.546875 0.867188 -1.546875 C 0.675781 -1.546875 0.570312 -1.433594 0.515625 -1.339844 Z M 0.503906 -1.453125" transform="translate(55.908 34.157)"/></g></g></g><g fill="#7B7B7B"><g><g><path d="M 0.777344 0.0234375 C 0.828125 0.0234375 0.855469 -0.00390625 0.855469 -0.0507812 L 0.855469 -0.148438 C 0.855469 -0.199219 0.824219 -0.226562 0.777344 -0.226562 C 0.652344 -0.230469 0.613281 -0.230469 0.613281 -0.441406 L 0.613281 -1.273438 L 0.84375 -1.273438 C 0.890625 -1.273438 0.910156 -1.296875 0.910156 -1.347656 L 0.910156 -1.449219 C 0.910156 -1.503906 0.890625 -1.519531 0.84375 -1.519531 L 0.613281 -1.519531 L 0.613281 -1.960938 C 0.613281 -2 0.605469 -2.042969 0.554688 -2.042969 L 0.398438 -2.019531 C 0.359375 -2.011719 0.34375 -1.996094 0.34375 -1.957031 L 0.34375 -1.519531 L 0.15625 -1.519531 C 0.109375 -1.519531 0.0820312 -1.507812 0.0820312 -1.457031 L 0.0820312 -1.339844 C 0.0820312 -1.289062 0.109375 -1.273438 0.15625 -1.273438 L 0.34375 -1.273438 L 0.34375 -0.34375 C 0.34375 -0.0117188 0.53125 0.0273438 0.726562 0.0273438 C 0.746094 0.0273438 0.761719 0.0234375 0.777344 0.0234375 Z M 0.777344 0.0234375" transform="translate(57.088 34.157)"/></g></g></g><g fill="#7B7B7B"><g><g><path d="M 0.867188 0.0390625 C 1.058594 0.0390625 1.222656 -0.0429688 1.359375 -0.136719 C 1.378906 -0.148438 1.410156 -0.171875 1.414062 -0.199219 C 1.414062 -0.207031 1.410156 -0.21875 1.402344 -0.226562 L 1.3125 -0.355469 C 1.304688 -0.367188 1.292969 -0.375 1.28125 -0.375 C 1.257812 -0.375 1.234375 -0.367188 1.222656 -0.351562 C 1.125 -0.269531 0.992188 -0.222656 0.867188 -0.222656 C 0.636719 -0.222656 0.445312 -0.394531 0.410156 -0.640625 L 1.359375 -0.640625 C 1.472656 -0.640625 1.5625 -0.660156 1.5625 -0.785156 L 1.5625 -0.820312 C 1.5625 -1.222656 1.246094 -1.550781 0.867188 -1.550781 C 0.460938 -1.550781 0.136719 -1.195312 0.136719 -0.757812 C 0.136719 -0.316406 0.460938 0.0390625 0.867188 0.0390625 Z M 0.421875 -0.871094 C 0.472656 -1.101562 0.648438 -1.292969 0.863281 -1.292969 C 1.070312 -1.292969 1.257812 -1.101562 1.296875 -0.871094 Z M 0.421875 -0.871094" transform="translate(58.105 34.157)"/></g></g></g><g fill="#7B7B7B"><g><g><path d="M 0.121094 -0.308594 C 0.183594 -0.0859375 0.425781 0.0273438 0.648438 0.0273438 C 0.964844 0.0273438 1.199219 -0.140625 1.199219 -0.417969 C 1.199219 -0.667969 0.996094 -0.828125 0.667969 -0.910156 C 0.550781 -0.941406 0.414062 -0.996094 0.414062 -1.121094 C 0.414062 -1.222656 0.515625 -1.316406 0.667969 -1.316406 C 0.777344 -1.316406 0.859375 -1.246094 0.917969 -1.164062 C 0.9375 -1.136719 0.957031 -1.105469 0.980469 -1.105469 C 0.984375 -1.105469 0.996094 -1.109375 1 -1.117188 L 1.128906 -1.207031 C 1.148438 -1.222656 1.140625 -1.242188 1.132812 -1.257812 C 1.027344 -1.445312 0.890625 -1.558594 0.664062 -1.558594 C 0.367188 -1.558594 0.167969 -1.375 0.167969 -1.121094 C 0.167969 -0.882812 0.347656 -0.730469 0.621094 -0.660156 C 0.789062 -0.613281 0.9375 -0.554688 0.9375 -0.417969 C 0.9375 -0.292969 0.785156 -0.21875 0.648438 -0.21875 C 0.566406 -0.21875 0.410156 -0.261719 0.363281 -0.386719 C 0.355469 -0.410156 0.335938 -0.4375 0.308594 -0.4375 C 0.304688 -0.4375 0.296875 -0.4375 0.292969 -0.433594 L 0.136719 -0.371094 C 0.113281 -0.363281 0.113281 -0.328125 0.121094 -0.308594 Z M 0.121094 -0.308594" transform="translate(59.753 34.157)"/></g></g></g><g fill="#7B7B7B"><g><g><path d="M 0.25 0.59375 C 0.25 0.640625 0.273438 0.664062 0.320312 0.664062 L 0.445312 0.664062 C 0.492188 0.664062 0.515625 0.640625 0.515625 0.59375 L 0.515625 -2.300781 C 0.515625 -2.34375 0.484375 -2.367188 0.445312 -2.367188 L 0.320312 -2.367188 C 0.273438 -2.367188 0.25 -2.335938 0.25 -2.300781 Z M 0.25 0.59375" transform="translate(62.04 34.157)"/></g></g></g><g fill="#7B7B7B"><g><g><path d="M 1.675781 -1.570312 C 1.675781 -1.320312 1.476562 -1.105469 1.21875 -1.105469 L 0.515625 -1.105469 L 0.515625 -2.035156 L 1.214844 -2.035156 C 1.476562 -2.035156 1.675781 -1.816406 1.675781 -1.570312 Z M 0.25 -0.0664062 C 0.25 -0.0234375 0.277344 0 0.320312 0 L 0.449219 0 C 0.496094 0 0.515625 -0.0234375 0.515625 -0.0664062 L 0.515625 -0.84375 L 1.058594 -0.84375 C 1.101562 -0.84375 1.230469 -0.84375 1.25 -0.847656 L 1.625 -0.0585938 C 1.644531 -0.0234375 1.667969 0 1.707031 0 L 1.878906 0 C 1.914062 0 1.933594 -0.015625 1.933594 -0.0390625 C 1.933594 -0.046875 1.929688 -0.0546875 1.925781 -0.0664062 L 1.519531 -0.90625 C 1.769531 -1.023438 1.941406 -1.277344 1.941406 -1.566406 C 1.941406 -1.96875 1.621094 -2.300781 1.214844 -2.300781 L 0.320312 -2.300781 C 0.277344 -2.300781 0.25 -2.273438 0.25 -2.226562 Z M 0.25 -0.0664062" transform="translate(63.787 34.157)"/></g></g></g><g fill="#7B7B7B"><g><g><path d="M 0.515625 -1.453125 C 0.515625 -1.492188 0.488281 -1.519531 0.449219 -1.519531 L 0.320312 -1.519531 C 0.277344 -1.519531 0.25 -1.496094 0.25 -1.453125 L 0.25 -0.0664062 C 0.25 -0.0234375 0.273438 0 0.320312 0 L 0.449219 0 C 0.492188 0 0.515625 -0.0234375 0.515625 -0.0664062 Z M 0.1875 -1.949219 C 0.1875 -1.84375 0.277344 -1.757812 0.382812 -1.757812 C 0.496094 -1.757812 0.578125 -1.84375 0.578125 -1.949219 C 0.578125 -2.058594 0.496094 -2.144531 0.382812 -2.144531 C 0.277344 -2.144531 0.1875 -2.058594 0.1875 -1.949219 Z M 0.1875 -1.949219" transform="translate(65.866 34.157)"/></g></g></g><g fill="#7B7B7B"><g><g><path d="M 0.136719 -0.757812 C 0.136719 -0.316406 0.488281 0.0390625 0.929688 0.0390625 C 1.371094 0.0390625 1.726562 -0.316406 1.726562 -0.757812 C 1.726562 -1.195312 1.371094 -1.550781 0.929688 -1.550781 C 0.488281 -1.550781 0.136719 -1.195312 0.136719 -0.757812 Z M 0.386719 -0.757812 C 0.386719 -1.054688 0.632812 -1.304688 0.929688 -1.304688 C 1.226562 -1.304688 1.476562 -1.054688 1.476562 -0.757812 C 1.476562 -0.457031 1.226562 -0.210938 0.929688 -0.210938 C 0.632812 -0.210938 0.386719 -0.457031 0.386719 -0.757812 Z M 0.386719 -0.757812" transform="translate(66.635 34.157)"/></g></g></g><g fill="#7B7B7B"><g><g><path d="M 1.566406 -2.226562 C 1.566406 -2.269531 1.527344 -2.300781 1.476562 -2.300781 L 1.386719 -2.300781 C 1.324219 -2.300781 1.296875 -2.269531 1.296875 -2.226562 L 1.296875 -1.300781 C 1.199219 -1.445312 1.0625 -1.546875 0.832031 -1.546875 C 0.398438 -1.546875 0.117188 -1.195312 0.117188 -0.757812 C 0.117188 -0.316406 0.398438 0.03125 0.832031 0.03125 C 1.0625 0.03125 1.195312 -0.0664062 1.296875 -0.203125 L 1.296875 -0.078125 C 1.296875 -0.0273438 1.332031 0 1.386719 0 L 1.476562 0 C 1.535156 0 1.566406 -0.0273438 1.566406 -0.078125 Z M 1.324219 -0.753906 C 1.324219 -0.464844 1.132812 -0.222656 0.855469 -0.222656 C 0.546875 -0.222656 0.386719 -0.464844 0.386719 -0.753906 C 0.386719 -1.042969 0.546875 -1.285156 0.855469 -1.285156 C 1.136719 -1.285156 1.324219 -1.042969 1.324219 -0.753906 Z M 1.324219 -0.753906" transform="translate(69.495 34.157)"/></g></g></g><g fill="#7B7B7B"><g><g><path d="M 0.867188 0.0390625 C 1.058594 0.0390625 1.222656 -0.0429688 1.359375 -0.136719 C 1.378906 -0.148438 1.410156 -0.171875 1.414062 -0.199219 C 1.414062 -0.207031 1.410156 -0.21875 1.402344 -0.226562 L 1.3125 -0.355469 C 1.304688 -0.367188 1.292969 -0.375 1.28125 -0.375 C 1.257812 -0.375 1.234375 -0.367188 1.222656 -0.351562 C 1.125 -0.269531 0.992188 -0.222656 0.867188 -0.222656 C 0.636719 -0.222656 0.445312 -0.394531 0.410156 -0.640625 L 1.359375 -0.640625 C 1.472656 -0.640625 1.5625 -0.660156 1.5625 -0.785156 L 1.5625 -0.820312 C 1.5625 -1.222656 1.246094 -1.550781 0.867188 -1.550781 C 0.460938 -1.550781 0.136719 -1.195312 0.136719 -0.757812 C 0.136719 -0.316406 0.460938 0.0390625 0.867188 0.0390625 Z M 0.421875 -0.871094 C 0.472656 -1.101562 0.648438 -1.292969 0.863281 -1.292969 C 1.070312 -1.292969 1.257812 -1.101562 1.296875 -0.871094 Z M 0.421875 -0.871094" transform="translate(71.289 34.157)"/></g></g></g><g fill="#7B7B7B"><g><g><path d="M 0.0234375 -0.140625 C 0.128906 -0.0273438 0.28125 0.0390625 0.449219 0.0390625 C 0.753906 0.0390625 0.996094 -0.203125 0.996094 -0.511719 L 0.996094 -2.230469 C 0.996094 -2.273438 0.972656 -2.300781 0.929688 -2.300781 L 0.800781 -2.300781 C 0.753906 -2.300781 0.730469 -2.269531 0.730469 -2.234375 L 0.730469 -0.511719 C 0.730469 -0.351562 0.605469 -0.226562 0.449219 -0.226562 C 0.308594 -0.226562 0.242188 -0.292969 0.199219 -0.332031 C 0.1875 -0.339844 0.175781 -0.34375 0.164062 -0.34375 C 0.15625 -0.34375 0.140625 -0.34375 0.121094 -0.320312 L 0.03125 -0.222656 C 0.0117188 -0.207031 0.0078125 -0.195312 0.0078125 -0.175781 C 0.0078125 -0.160156 0.0117188 -0.148438 0.0234375 -0.140625 Z M 0.0234375 -0.140625" transform="translate(73.907 34.157)"/></g></g></g><g fill="#7B7B7B"><g><g><path d="M 1.332031 -0.078125 C 1.332031 -0.03125 1.355469 0 1.410156 0 L 1.507812 0 C 1.550781 0 1.589844 -0.0273438 1.589844 -0.0664062 L 1.589844 -1.445312 C 1.589844 -1.492188 1.550781 -1.519531 1.507812 -1.519531 L 1.417969 -1.519531 C 1.367188 -1.519531 1.347656 -1.492188 1.34375 -1.445312 L 1.332031 -1.289062 C 1.238281 -1.421875 1.117188 -1.546875 0.863281 -1.546875 C 0.425781 -1.546875 0.125 -1.195312 0.125 -0.757812 C 0.125 -0.316406 0.429688 0.03125 0.863281 0.03125 C 1.117188 0.03125 1.238281 -0.0820312 1.332031 -0.222656 Z M 0.382812 -0.757812 C 0.382812 -1.042969 0.566406 -1.285156 0.863281 -1.285156 C 1.167969 -1.285156 1.332031 -1.042969 1.332031 -0.75 C 1.332031 -0.453125 1.160156 -0.226562 0.863281 -0.226562 C 0.574219 -0.226562 0.382812 -0.464844 0.382812 -0.757812 Z M 0.382812 -0.757812" transform="translate(75.147 34.157)"/></g></g></g><g fill="#7B7B7B"><g><g><path d="M 0.507812 -1.445312 C 0.503906 -1.492188 0.476562 -1.515625 0.4375 -1.515625 L 0.320312 -1.515625 C 0.28125 -1.515625 0.25 -1.492188 0.25 -1.445312 L 0.25 -0.0664062 C 0.25 -0.0234375 0.277344 0 0.320312 0 L 0.449219 0 C 0.492188 0 0.515625 -0.0234375 0.515625 -0.0664062 L 0.515625 -0.953125 C 0.515625 -1.121094 0.765625 -1.28125 0.96875 -1.28125 C 1.207031 -1.28125 1.351562 -1.109375 1.351562 -0.902344 L 1.351562 -0.0742188 C 1.351562 -0.0234375 1.363281 0 1.417969 0 L 1.546875 0 C 1.585938 0 1.621094 -0.0273438 1.621094 -0.078125 L 1.621094 -0.902344 C 1.621094 -1.261719 1.394531 -1.550781 1.039062 -1.550781 C 0.851562 -1.550781 0.613281 -1.425781 0.515625 -1.308594 Z M 0.507812 -1.445312" transform="translate(76.987 34.157)"/></g></g></g><g fill="#7B7B7B"><g><g><path d="M 0.515625 -1.453125 C 0.515625 -1.492188 0.488281 -1.519531 0.449219 -1.519531 L 0.320312 -1.519531 C 0.277344 -1.519531 0.25 -1.496094 0.25 -1.453125 L 0.25 -0.0664062 C 0.25 -0.0234375 0.273438 0 0.320312 0 L 0.449219 0 C 0.492188 0 0.515625 -0.0234375 0.515625 -0.0664062 Z M 0.1875 -1.949219 C 0.1875 -1.84375 0.277344 -1.757812 0.382812 -1.757812 C 0.496094 -1.757812 0.578125 -1.84375 0.578125 -1.949219 C 0.578125 -2.058594 0.496094 -2.144531 0.382812 -2.144531 C 0.277344 -2.144531 0.1875 -2.058594 0.1875 -1.949219 Z M 0.1875 -1.949219" transform="translate(78.818 34.157)"/></g></g></g><g fill="#7B7B7B"><g><g><path d="M 0.867188 0.0390625 C 1.058594 0.0390625 1.222656 -0.0429688 1.359375 -0.136719 C 1.378906 -0.148438 1.410156 -0.171875 1.414062 -0.199219 C 1.414062 -0.207031 1.410156 -0.21875 1.402344 -0.226562 L 1.3125 -0.355469 C 1.304688 -0.367188 1.292969 -0.375 1.28125 -0.375 C 1.257812 -0.375 1.234375 -0.367188 1.222656 -0.351562 C 1.125 -0.269531 0.992188 -0.222656 0.867188 -0.222656 C 0.636719 -0.222656 0.445312 -0.394531 0.410156 -0.640625 L 1.359375 -0.640625 C 1.472656 -0.640625 1.5625 -0.660156 1.5625 -0.785156 L 1.5625 -0.820312 C 1.5625 -1.222656 1.246094 -1.550781 0.867188 -1.550781 C 0.460938 -1.550781 0.136719 -1.195312 0.136719 -0.757812 C 0.136719 -0.316406 0.460938 0.0390625 0.867188 0.0390625 Z M 0.421875 -0.871094 C 0.472656 -1.101562 0.648438 -1.292969 0.863281 -1.292969 C 1.070312 -1.292969 1.257812 -1.101562 1.296875 -0.871094 Z M 0.421875 -0.871094" transform="translate(79.587 34.157)"/></g></g></g><g fill="#7B7B7B"><g><g><path d="M 0.503906 -1.453125 C 0.496094 -1.492188 0.472656 -1.519531 0.429688 -1.519531 L 0.320312 -1.519531 C 0.28125 -1.519531 0.25 -1.492188 0.25 -1.453125 L 0.25 -0.0664062 C 0.25 -0.0234375 0.277344 0 0.320312 0 L 0.449219 0 C 0.492188 0 0.515625 -0.0234375 0.515625 -0.0664062 L 0.515625 -0.875 C 0.515625 -1.0625 0.644531 -1.28125 0.832031 -1.28125 C 0.886719 -1.277344 0.957031 -1.253906 0.996094 -1.230469 C 1.003906 -1.226562 1.015625 -1.214844 1.035156 -1.214844 C 1.046875 -1.214844 1.0625 -1.222656 1.074219 -1.246094 L 1.152344 -1.390625 C 1.15625 -1.402344 1.160156 -1.40625 1.160156 -1.417969 C 1.160156 -1.453125 1.003906 -1.546875 0.867188 -1.546875 C 0.675781 -1.546875 0.570312 -1.433594 0.515625 -1.339844 Z M 0.503906 -1.453125" transform="translate(81.235 34.157)"/></g></g></g><g fill="#7B7B7B"><g><g><path d="M 0.136719 -0.757812 C 0.136719 -0.316406 0.488281 0.0390625 0.929688 0.0390625 C 1.371094 0.0390625 1.726562 -0.316406 1.726562 -0.757812 C 1.726562 -1.195312 1.371094 -1.550781 0.929688 -1.550781 C 0.488281 -1.550781 0.136719 -1.195312 0.136719 -0.757812 Z M 0.386719 -0.757812 C 0.386719 -1.054688 0.632812 -1.304688 0.929688 -1.304688 C 1.226562 -1.304688 1.476562 -1.054688 1.476562 -0.757812 C 1.476562 -0.457031 1.226562 -0.210938 0.929688 -0.210938 C 0.632812 -0.210938 0.386719 -0.457031 0.386719 -0.757812 Z M 0.386719 -0.757812" transform="translate(82.416 34.157)"/></g></g></g></svg>