<svg xmlns="http://www.w3.org/2000/svg" width="112.5" viewBox="0 0 112.5 37.5" height="37.5" version="1.0"><path fill="#545454" d="M 16.753906 33.429688 C 12.8125 33.429688 9.101562 31.894531 6.3125 29.105469 C 3.523438 26.320312 1.988281 22.609375 1.988281 18.664062 C 1.988281 14.722656 3.523438 11.011719 6.3125 8.226562 C 9.101562 5.433594 12.8125 3.902344 16.753906 3.902344 C 20.695312 3.902344 24.40625 5.433594 27.191406 8.226562 C 29.984375 11.019531 31.519531 14.722656 31.519531 18.664062 C 31.519531 22.609375 29.984375 26.320312 27.191406 29.105469 C 24.40625 31.894531 20.695312 33.429688 16.753906 33.429688 Z M 16.753906 4.785156 C 13.046875 4.785156 9.558594 6.230469 6.941406 8.851562 C 4.320312 11.472656 2.875 14.960938 2.875 18.664062 C 2.875 22.371094 4.320312 25.859375 6.941406 28.480469 C 9.558594 31.097656 13.046875 32.546875 16.753906 32.546875 C 20.460938 32.546875 23.945312 31.097656 26.566406 28.480469 C 29.1875 25.859375 30.632812 22.371094 30.632812 18.664062 C 30.632812 14.960938 29.1875 11.472656 26.566406 8.851562 C 23.945312 6.230469 20.460938 4.785156 16.753906 4.785156 Z M 16.753906 4.785156"/><g fill="#545454"><g><g><path d="M 1.128906 -0.277344 C 1.128906 -0.0976562 1.214844 0 1.394531 0 L 8.339844 0 C 8.523438 0 8.632812 -0.0976562 8.632812 -0.277344 L 8.632812 -1.617188 C 8.632812 -1.800781 8.523438 -1.898438 8.339844 -1.898438 L 3.167969 -1.898438 L 3.167969 -4.449219 L 7.015625 -4.449219 C 7.210938 -4.449219 7.324219 -4.546875 7.324219 -4.726562 L 7.324219 -6.054688 C 7.324219 -6.25 7.195312 -6.332031 7.015625 -6.332031 L 3.167969 -6.332031 L 3.167969 -8.4375 L 8.214844 -8.4375 C 8.398438 -8.4375 8.496094 -8.535156 8.496094 -8.71875 L 8.496094 -10.070312 C 8.496094 -10.25 8.398438 -10.347656 8.214844 -10.347656 L 1.394531 -10.347656 C 1.214844 -10.347656 1.128906 -10.25 1.128906 -10.070312 Z M 1.128906 -0.277344" transform="translate(7.372 23.54)"/></g></g></g><g fill="#545454"><g><g><path d="M 7.921875 -2.414062 C 7.433594 -2.035156 6.722656 -1.757812 5.96875 -1.757812 C 4.085938 -1.757812 2.679688 -3.304688 2.679688 -5.1875 C 2.679688 -7.085938 4.085938 -8.5625 5.96875 -8.5625 C 6.722656 -8.5625 7.308594 -8.328125 7.964844 -7.921875 C 8.046875 -7.878906 8.117188 -7.851562 8.1875 -7.851562 C 8.257812 -7.851562 8.3125 -7.878906 8.355469 -7.9375 L 9.09375 -9.191406 C 9.136719 -9.261719 9.148438 -9.414062 9.011719 -9.539062 C 8.203125 -10.125 7.226562 -10.503906 5.96875 -10.503906 C 3.011719 -10.503906 0.613281 -8.144531 0.613281 -5.1875 C 0.613281 -2.230469 3.011719 0.152344 5.96875 0.152344 C 7.226562 0.152344 8.203125 -0.222656 8.996094 -0.824219 C 9.164062 -0.949219 9.207031 -1.058594 9.066406 -1.226562 L 8.367188 -2.414062 C 8.3125 -2.484375 8.242188 -2.523438 8.171875 -2.523438 C 8.089844 -2.523438 8.007812 -2.484375 7.921875 -2.414062 Z M 7.921875 -2.414062" transform="translate(16.326 23.54)"/></g></g></g><g><g><g><path d="M 0.453125 -0.113281 C 0.453125 -0.0390625 0.488281 0 0.5625 0 L 3.355469 0 C 3.429688 0 3.476562 -0.0390625 3.476562 -0.113281 L 3.476562 -0.652344 C 3.476562 -0.722656 3.429688 -0.761719 3.355469 -0.761719 L 1.273438 -0.761719 L 1.273438 -1.789062 L 2.824219 -1.789062 C 2.902344 -1.789062 2.949219 -1.832031 2.949219 -1.902344 L 2.949219 -2.4375 C 2.949219 -2.515625 2.898438 -2.550781 2.824219 -2.550781 L 1.273438 -2.550781 L 1.273438 -3.398438 L 3.308594 -3.398438 C 3.378906 -3.398438 3.417969 -3.4375 3.417969 -3.507812 L 3.417969 -4.054688 C 3.417969 -4.125 3.378906 -4.164062 3.308594 -4.164062 L 0.5625 -4.164062 C 0.488281 -4.164062 0.453125 -4.125 0.453125 -4.054688 Z M 0.453125 -0.113281" transform="translate(39.927 16.18)"/></g></g></g><g><g><g><path d="M 0.421875 -0.125 C 0.421875 -0.0429688 0.460938 0 0.539062 0 L 1.0625 0 C 1.140625 0 1.183594 -0.0507812 1.183594 -0.125 L 1.183594 -4.042969 C 1.183594 -4.113281 1.132812 -4.164062 1.0625 -4.164062 L 0.539062 -4.164062 C 0.464844 -4.164062 0.421875 -4.121094 0.421875 -4.042969 Z M 0.421875 -0.125" transform="translate(43.528 16.18)"/></g></g></g><g><g><g><path d="M 3.003906 -4.023438 C 3.003906 -4.109375 2.925781 -4.164062 2.839844 -4.164062 L 2.378906 -4.164062 C 2.285156 -4.164062 2.234375 -4.109375 2.234375 -4.023438 L 2.234375 -2.464844 C 2.078125 -2.660156 1.886719 -2.789062 1.53125 -2.789062 C 0.734375 -2.789062 0.214844 -2.15625 0.214844 -1.363281 C 0.214844 -0.578125 0.746094 0.0546875 1.519531 0.0546875 C 1.902344 0.0546875 2.105469 -0.0625 2.289062 -0.332031 C 2.320312 -0.191406 2.320312 -0.0429688 2.425781 -0.015625 C 2.480469 -0.00390625 2.550781 0 2.617188 0 L 2.863281 0 C 2.957031 -0.00390625 3.003906 -0.0546875 3.003906 -0.140625 Z M 2.308594 -1.359375 L 2.308594 -1.351562 C 2.300781 -0.949219 2.027344 -0.617188 1.632812 -0.617188 C 1.207031 -0.617188 0.964844 -0.949219 0.964844 -1.359375 C 0.964844 -1.769531 1.207031 -2.105469 1.632812 -2.105469 C 2.03125 -2.105469 2.308594 -1.769531 2.308594 -1.359375 Z M 2.308594 -1.359375" transform="translate(45.11 16.18)"/></g></g></g><g><g><g><path d="M 1.027344 -1.117188 L 2.773438 -1.117188 C 2.9375 -1.117188 2.96875 -1.242188 2.96875 -1.53125 C 2.96875 -2.234375 2.371094 -2.8125 1.644531 -2.8125 C 0.886719 -2.8125 0.246094 -2.144531 0.246094 -1.371094 C 0.246094 -0.574219 0.898438 0.0664062 1.679688 0.0664062 C 2 0.0664062 2.285156 -0.0429688 2.519531 -0.222656 C 2.566406 -0.265625 2.609375 -0.304688 2.609375 -0.359375 C 2.609375 -0.382812 2.597656 -0.402344 2.582031 -0.433594 L 2.375 -0.761719 C 2.347656 -0.804688 2.320312 -0.8125 2.289062 -0.8125 C 2.246094 -0.8125 2.195312 -0.761719 2.132812 -0.734375 C 1.992188 -0.65625 1.839844 -0.601562 1.683594 -0.601562 C 1.382812 -0.601562 1.0625 -0.792969 1.027344 -1.117188 Z M 1.027344 -1.65625 C 1.066406 -1.941406 1.351562 -2.171875 1.628906 -2.171875 C 1.964844 -2.171875 2.222656 -1.9375 2.234375 -1.65625 Z M 1.027344 -1.65625" transform="translate(48.359 16.18)"/></g></g></g><g><g><g><path d="M 1.0625 -2.597656 C 1.039062 -2.671875 1.003906 -2.746094 0.914062 -2.746094 L 0.554688 -2.746094 C 0.484375 -2.746094 0.410156 -2.695312 0.410156 -2.597656 L 0.410156 -0.140625 C 0.410156 -0.0429688 0.460938 0 0.554688 0 L 1.023438 0 C 1.121094 0 1.171875 -0.0429688 1.171875 -0.140625 L 1.171875 -1.5625 C 1.171875 -1.820312 1.371094 -2.105469 1.699219 -2.105469 C 1.800781 -2.105469 1.871094 -2.078125 1.976562 -2.003906 C 2.042969 -1.96875 2.109375 -1.9375 2.140625 -1.9375 C 2.183594 -1.9375 2.222656 -1.964844 2.257812 -2.015625 L 2.480469 -2.378906 C 2.5 -2.410156 2.507812 -2.4375 2.507812 -2.460938 C 2.507812 -2.582031 2.132812 -2.761719 1.925781 -2.785156 C 1.890625 -2.789062 1.859375 -2.789062 1.820312 -2.789062 C 1.492188 -2.789062 1.253906 -2.558594 1.117188 -2.378906 C 1.113281 -2.417969 1.066406 -2.558594 1.0625 -2.597656 Z M 1.0625 -2.597656" transform="translate(51.568 16.18)"/></g></g></g><g><g><g><path d="M 0.421875 -0.125 C 0.421875 -0.0429688 0.460938 0 0.539062 0 L 1.0625 0 C 1.140625 0 1.183594 -0.0507812 1.183594 -0.125 L 1.183594 -4.042969 C 1.183594 -4.113281 1.132812 -4.164062 1.0625 -4.164062 L 0.539062 -4.164062 C 0.464844 -4.164062 0.421875 -4.121094 0.421875 -4.042969 Z M 0.421875 -0.125" transform="translate(54.227 16.18)"/></g></g></g><g><g><g><path d="M 2.996094 -2.515625 C 3.015625 -2.566406 3.019531 -2.59375 3.019531 -2.617188 C 3.019531 -2.695312 2.980469 -2.75 2.863281 -2.75 L 2.378906 -2.75 C 2.285156 -2.75 2.222656 -2.71875 2.195312 -2.628906 L 1.589844 -0.984375 L 0.976562 -2.621094 C 0.953125 -2.695312 0.894531 -2.75 0.796875 -2.75 L 0.308594 -2.75 C 0.207031 -2.75 0.15625 -2.707031 0.15625 -2.628906 C 0.15625 -2.609375 0.15625 -2.578125 0.179688 -2.53125 L 1.203125 -0.0273438 L 0.847656 0.921875 C 0.84375 0.941406 0.835938 0.972656 0.835938 0.992188 C 0.835938 1.082031 0.910156 1.113281 0.992188 1.113281 L 1.449219 1.113281 C 1.519531 1.113281 1.589844 1.074219 1.628906 0.988281 Z M 2.996094 -2.515625" transform="translate(55.809 16.18)"/></g></g></g><g><g><g><path d="M 3.1875 -0.972656 C 2.992188 -0.820312 2.707031 -0.707031 2.402344 -0.707031 C 1.644531 -0.707031 1.078125 -1.332031 1.078125 -2.089844 C 1.078125 -2.851562 1.644531 -3.445312 2.402344 -3.445312 C 2.707031 -3.445312 2.941406 -3.351562 3.207031 -3.1875 C 3.238281 -3.171875 3.265625 -3.160156 3.296875 -3.160156 C 3.324219 -3.160156 3.347656 -3.171875 3.363281 -3.195312 L 3.660156 -3.699219 C 3.675781 -3.726562 3.683594 -3.789062 3.625 -3.839844 C 3.300781 -4.074219 2.90625 -4.226562 2.402344 -4.226562 C 1.210938 -4.226562 0.246094 -3.277344 0.246094 -2.089844 C 0.246094 -0.898438 1.210938 0.0625 2.402344 0.0625 C 2.90625 0.0625 3.300781 -0.0898438 3.621094 -0.332031 C 3.6875 -0.382812 3.707031 -0.425781 3.648438 -0.492188 L 3.367188 -0.972656 C 3.347656 -1 3.316406 -1.015625 3.289062 -1.015625 C 3.257812 -1.015625 3.222656 -1 3.1875 -0.972656 Z M 3.1875 -0.972656" transform="translate(60.701 16.18)"/></g></g></g><g><g><g><path d="M 2.351562 -0.152344 C 2.371094 -0.0625 2.398438 0 2.507812 0 L 2.867188 0 C 2.953125 0 3.03125 -0.0507812 3.03125 -0.140625 L 3.03125 -2.605469 C 3.03125 -2.695312 2.953125 -2.757812 2.867188 -2.757812 L 2.554688 -2.769531 C 2.449219 -2.769531 2.425781 -2.734375 2.398438 -2.609375 L 2.339844 -2.398438 C 2.167969 -2.617188 1.980469 -2.796875 1.582031 -2.796875 C 0.773438 -2.796875 0.222656 -2.183594 0.222656 -1.371094 C 0.222656 -0.566406 0.785156 0.0546875 1.582031 0.0546875 L 1.59375 0.0546875 C 2.011719 0.0546875 2.183594 -0.132812 2.320312 -0.335938 C 2.328125 -0.265625 2.339844 -0.222656 2.351562 -0.152344 Z M 0.953125 -1.363281 C 0.953125 -1.769531 1.21875 -2.109375 1.628906 -2.109375 C 2.054688 -2.109375 2.308594 -1.769531 2.308594 -1.359375 C 2.308594 -0.941406 2.042969 -0.625 1.628906 -0.625 C 1.222656 -0.625 0.953125 -0.949219 0.953125 -1.363281 Z M 0.953125 -1.363281" transform="translate(64.656 16.18)"/></g></g></g><g><g><g><path d="M 1.0625 -2.597656 C 1.039062 -2.671875 1.003906 -2.746094 0.914062 -2.746094 L 0.554688 -2.746094 C 0.484375 -2.746094 0.410156 -2.695312 0.410156 -2.597656 L 0.410156 -0.140625 C 0.410156 -0.0429688 0.460938 0 0.554688 0 L 1.023438 0 C 1.121094 0 1.171875 -0.0429688 1.171875 -0.140625 L 1.171875 -1.5625 C 1.171875 -1.820312 1.371094 -2.105469 1.699219 -2.105469 C 1.800781 -2.105469 1.871094 -2.078125 1.976562 -2.003906 C 2.042969 -1.96875 2.109375 -1.9375 2.140625 -1.9375 C 2.183594 -1.9375 2.222656 -1.964844 2.257812 -2.015625 L 2.480469 -2.378906 C 2.5 -2.410156 2.507812 -2.4375 2.507812 -2.460938 C 2.507812 -2.582031 2.132812 -2.761719 1.925781 -2.785156 C 1.890625 -2.789062 1.859375 -2.789062 1.820312 -2.789062 C 1.492188 -2.789062 1.253906 -2.558594 1.117188 -2.378906 C 1.113281 -2.417969 1.066406 -2.558594 1.0625 -2.597656 Z M 1.0625 -2.597656" transform="translate(67.989 16.18)"/></g></g></g><g><g><g><path d="M 1.027344 -1.117188 L 2.773438 -1.117188 C 2.9375 -1.117188 2.96875 -1.242188 2.96875 -1.53125 C 2.96875 -2.234375 2.371094 -2.8125 1.644531 -2.8125 C 0.886719 -2.8125 0.246094 -2.144531 0.246094 -1.371094 C 0.246094 -0.574219 0.898438 0.0664062 1.679688 0.0664062 C 2 0.0664062 2.285156 -0.0429688 2.519531 -0.222656 C 2.566406 -0.265625 2.609375 -0.304688 2.609375 -0.359375 C 2.609375 -0.382812 2.597656 -0.402344 2.582031 -0.433594 L 2.375 -0.761719 C 2.347656 -0.804688 2.320312 -0.8125 2.289062 -0.8125 C 2.246094 -0.8125 2.195312 -0.761719 2.132812 -0.734375 C 1.992188 -0.65625 1.839844 -0.601562 1.683594 -0.601562 C 1.382812 -0.601562 1.0625 -0.792969 1.027344 -1.117188 Z M 1.027344 -1.65625 C 1.066406 -1.941406 1.351562 -2.171875 1.628906 -2.171875 C 1.964844 -2.171875 2.222656 -1.9375 2.234375 -1.65625 Z M 1.027344 -1.65625" transform="translate(70.648 16.18)"/></g></g></g><g><g><g><path d="M 0.453125 -0.113281 C 0.453125 -0.0390625 0.488281 0 0.566406 0 L 1.171875 0 C 1.246094 0 1.28125 -0.0390625 1.28125 -0.113281 L 1.28125 -4.046875 C 1.28125 -4.121094 1.246094 -4.164062 1.171875 -4.164062 L 0.566406 -4.164062 C 0.492188 -4.164062 0.453125 -4.121094 0.453125 -4.046875 Z M 0.453125 -0.113281" transform="translate(75.613 16.18)"/></g></g></g><g><g><g><path d="M 0.925781 -2.757812 L 0.625 -2.757812 C 0.511719 -2.757812 0.453125 -2.695312 0.453125 -2.589844 L 0.453125 -0.125 C 0.453125 -0.0351562 0.476562 0 0.589844 0 L 1.09375 0 C 1.207031 0 1.234375 -0.0273438 1.234375 -0.125 L 1.234375 -1.566406 C 1.273438 -1.835938 1.582031 -2.054688 1.824219 -2.054688 C 2.117188 -2.054688 2.335938 -1.851562 2.335938 -1.550781 L 2.335938 -0.128906 C 2.335938 -0.0273438 2.347656 0 2.464844 0 L 2.980469 0 C 3.070312 0 3.117188 -0.0351562 3.117188 -0.132812 L 3.117188 -1.679688 C 3.117188 -2.324219 2.71875 -2.789062 2.019531 -2.789062 C 1.65625 -2.789062 1.347656 -2.59375 1.179688 -2.398438 C 1.128906 -2.59375 1.152344 -2.757812 0.925781 -2.757812 Z M 0.925781 -2.757812" transform="translate(77.346 16.18)"/></g></g></g><g><g><g><path d="M 0.460938 -2.757812 L 0.308594 -2.757812 C 0.195312 -2.757812 0.144531 -2.699219 0.144531 -2.59375 L 0.144531 -2.285156 C 0.144531 -2.167969 0.195312 -2.109375 0.308594 -2.109375 L 0.460938 -2.109375 L 0.460938 -0.164062 C 0.460938 -0.0546875 0.488281 0 0.601562 0 L 1.074219 0 C 1.183594 0 1.222656 -0.0546875 1.222656 -0.164062 L 1.222656 -2.109375 L 1.5625 -2.109375 C 1.652344 -2.109375 1.710938 -2.167969 1.710938 -2.285156 L 1.710938 -2.59375 C 1.710938 -2.699219 1.652344 -2.757812 1.5625 -2.757812 L 1.222656 -2.757812 L 1.222656 -3.578125 C 1.222656 -3.671875 1.195312 -3.746094 1.089844 -3.746094 C 1.078125 -3.746094 1.0625 -3.746094 1.050781 -3.738281 L 0.632812 -3.675781 C 0.515625 -3.667969 0.460938 -3.605469 0.460938 -3.515625 Z M 0.460938 -2.757812" transform="translate(80.864 16.18)"/></g></g></g><g><g><g><path d="M 1.027344 -1.117188 L 2.773438 -1.117188 C 2.9375 -1.117188 2.96875 -1.242188 2.96875 -1.53125 C 2.96875 -2.234375 2.371094 -2.8125 1.644531 -2.8125 C 0.886719 -2.8125 0.246094 -2.144531 0.246094 -1.371094 C 0.246094 -0.574219 0.898438 0.0664062 1.679688 0.0664062 C 2 0.0664062 2.285156 -0.0429688 2.519531 -0.222656 C 2.566406 -0.265625 2.609375 -0.304688 2.609375 -0.359375 C 2.609375 -0.382812 2.597656 -0.402344 2.582031 -0.433594 L 2.375 -0.761719 C 2.347656 -0.804688 2.320312 -0.8125 2.289062 -0.8125 C 2.246094 -0.8125 2.195312 -0.761719 2.132812 -0.734375 C 1.992188 -0.65625 1.839844 -0.601562 1.683594 -0.601562 C 1.382812 -0.601562 1.0625 -0.792969 1.027344 -1.117188 Z M 1.027344 -1.65625 C 1.066406 -1.941406 1.351562 -2.171875 1.628906 -2.171875 C 1.964844 -2.171875 2.222656 -1.9375 2.234375 -1.65625 Z M 1.027344 -1.65625" transform="translate(82.704 16.18)"/></g></g></g><g><g><g><path d="M 1.0625 -2.597656 C 1.039062 -2.671875 1.003906 -2.746094 0.914062 -2.746094 L 0.554688 -2.746094 C 0.484375 -2.746094 0.410156 -2.695312 0.410156 -2.597656 L 0.410156 -0.140625 C 0.410156 -0.0429688 0.460938 0 0.554688 0 L 1.023438 0 C 1.121094 0 1.171875 -0.0429688 1.171875 -0.140625 L 1.171875 -1.5625 C 1.171875 -1.820312 1.371094 -2.105469 1.699219 -2.105469 C 1.800781 -2.105469 1.871094 -2.078125 1.976562 -2.003906 C 2.042969 -1.96875 2.109375 -1.9375 2.140625 -1.9375 C 2.183594 -1.9375 2.222656 -1.964844 2.257812 -2.015625 L 2.480469 -2.378906 C 2.5 -2.410156 2.507812 -2.4375 2.507812 -2.460938 C 2.507812 -2.582031 2.132812 -2.761719 1.925781 -2.785156 C 1.890625 -2.789062 1.859375 -2.789062 1.820312 -2.789062 C 1.492188 -2.789062 1.253906 -2.558594 1.117188 -2.378906 C 1.113281 -2.417969 1.066406 -2.558594 1.0625 -2.597656 Z M 1.0625 -2.597656" transform="translate(85.913 16.18)"/></g></g></g><g><g><g><path d="M 0.925781 -2.757812 L 0.625 -2.757812 C 0.511719 -2.757812 0.453125 -2.695312 0.453125 -2.589844 L 0.453125 -0.125 C 0.453125 -0.0351562 0.476562 0 0.589844 0 L 1.09375 0 C 1.207031 0 1.234375 -0.0273438 1.234375 -0.125 L 1.234375 -1.566406 C 1.273438 -1.835938 1.582031 -2.054688 1.824219 -2.054688 C 2.117188 -2.054688 2.335938 -1.851562 2.335938 -1.550781 L 2.335938 -0.128906 C 2.335938 -0.0273438 2.347656 0 2.464844 0 L 2.980469 0 C 3.070312 0 3.117188 -0.0351562 3.117188 -0.132812 L 3.117188 -1.679688 C 3.117188 -2.324219 2.71875 -2.789062 2.019531 -2.789062 C 1.65625 -2.789062 1.347656 -2.59375 1.179688 -2.398438 C 1.128906 -2.59375 1.152344 -2.757812 0.925781 -2.757812 Z M 0.925781 -2.757812" transform="translate(88.572 16.18)"/></g></g></g><g><g><g><path d="M 2.351562 -0.152344 C 2.371094 -0.0625 2.398438 0 2.507812 0 L 2.867188 0 C 2.953125 0 3.03125 -0.0507812 3.03125 -0.140625 L 3.03125 -2.605469 C 3.03125 -2.695312 2.953125 -2.757812 2.867188 -2.757812 L 2.554688 -2.769531 C 2.449219 -2.769531 2.425781 -2.734375 2.398438 -2.609375 L 2.339844 -2.398438 C 2.167969 -2.617188 1.980469 -2.796875 1.582031 -2.796875 C 0.773438 -2.796875 0.222656 -2.183594 0.222656 -1.371094 C 0.222656 -0.566406 0.785156 0.0546875 1.582031 0.0546875 L 1.59375 0.0546875 C 2.011719 0.0546875 2.183594 -0.132812 2.320312 -0.335938 C 2.328125 -0.265625 2.339844 -0.222656 2.351562 -0.152344 Z M 0.953125 -1.363281 C 0.953125 -1.769531 1.21875 -2.109375 1.628906 -2.109375 C 2.054688 -2.109375 2.308594 -1.769531 2.308594 -1.359375 C 2.308594 -0.941406 2.042969 -0.625 1.628906 -0.625 C 1.222656 -0.625 0.953125 -0.949219 0.953125 -1.363281 Z M 0.953125 -1.363281" transform="translate(92.09 16.18)"/></g></g></g><g><g><g><path d="M 0.460938 -2.757812 L 0.308594 -2.757812 C 0.195312 -2.757812 0.144531 -2.699219 0.144531 -2.59375 L 0.144531 -2.285156 C 0.144531 -2.167969 0.195312 -2.109375 0.308594 -2.109375 L 0.460938 -2.109375 L 0.460938 -0.164062 C 0.460938 -0.0546875 0.488281 0 0.601562 0 L 1.074219 0 C 1.183594 0 1.222656 -0.0546875 1.222656 -0.164062 L 1.222656 -2.109375 L 1.5625 -2.109375 C 1.652344 -2.109375 1.710938 -2.167969 1.710938 -2.285156 L 1.710938 -2.59375 C 1.710938 -2.699219 1.652344 -2.757812 1.5625 -2.757812 L 1.222656 -2.757812 L 1.222656 -3.578125 C 1.222656 -3.671875 1.195312 -3.746094 1.089844 -3.746094 C 1.078125 -3.746094 1.0625 -3.746094 1.050781 -3.738281 L 0.632812 -3.675781 C 0.515625 -3.667969 0.460938 -3.605469 0.460938 -3.515625 Z M 0.460938 -2.757812" transform="translate(95.422 16.18)"/></g></g></g><g><g><g><path d="M 1.164062 -2.621094 C 1.164062 -2.699219 1.089844 -2.757812 1.023438 -2.757812 L 0.535156 -2.757812 C 0.449219 -2.757812 0.402344 -2.699219 0.402344 -2.621094 L 0.402344 -0.128906 C 0.402344 -0.0429688 0.449219 0 0.535156 0 L 1.023438 0 C 1.113281 0 1.164062 -0.0429688 1.164062 -0.128906 Z M 0.332031 -3.578125 C 0.332031 -3.339844 0.527344 -3.148438 0.761719 -3.148438 C 1.011719 -3.148438 1.195312 -3.339844 1.195312 -3.578125 C 1.195312 -3.816406 1.011719 -4.007812 0.761719 -4.007812 C 0.527344 -4.007812 0.332031 -3.816406 0.332031 -3.578125 Z M 0.332031 -3.578125" transform="translate(97.262 16.18)"/></g></g></g><g><g><g><path d="M 0.167969 -1.371094 C 0.167969 -0.574219 0.8125 0.0625 1.621094 0.0625 C 2.425781 0.0625 3.078125 -0.574219 3.078125 -1.371094 C 3.078125 -2.167969 2.425781 -2.8125 1.621094 -2.8125 C 0.8125 -2.8125 0.167969 -2.167969 0.167969 -1.371094 Z M 0.914062 -1.363281 C 0.914062 -1.761719 1.222656 -2.101562 1.621094 -2.101562 C 2.019531 -2.101562 2.335938 -1.761719 2.335938 -1.363281 C 2.335938 -0.960938 2.019531 -0.632812 1.621094 -0.632812 C 1.222656 -0.632812 0.914062 -0.960938 0.914062 -1.363281 Z M 0.914062 -1.363281" transform="translate(98.878 16.18)"/></g></g></g><g><g><g><path d="M 0.925781 -2.757812 L 0.625 -2.757812 C 0.511719 -2.757812 0.453125 -2.695312 0.453125 -2.589844 L 0.453125 -0.125 C 0.453125 -0.0351562 0.476562 0 0.589844 0 L 1.09375 0 C 1.207031 0 1.234375 -0.0273438 1.234375 -0.125 L 1.234375 -1.566406 C 1.273438 -1.835938 1.582031 -2.054688 1.824219 -2.054688 C 2.117188 -2.054688 2.335938 -1.851562 2.335938 -1.550781 L 2.335938 -0.128906 C 2.335938 -0.0273438 2.347656 0 2.464844 0 L 2.980469 0 C 3.070312 0 3.117188 -0.0351562 3.117188 -0.132812 L 3.117188 -1.679688 C 3.117188 -2.324219 2.71875 -2.789062 2.019531 -2.789062 C 1.65625 -2.789062 1.347656 -2.59375 1.179688 -2.398438 C 1.128906 -2.59375 1.152344 -2.757812 0.925781 -2.757812 Z M 0.925781 -2.757812" transform="translate(102.12 16.18)"/></g></g></g><g><g><g><path d="M 4.53125 -2.082031 C 4.53125 -3.273438 3.566406 -4.226562 2.378906 -4.226562 C 1.195312 -4.226562 0.246094 -3.273438 0.246094 -2.082031 C 0.246094 -0.898438 1.195312 0.0546875 2.378906 0.0546875 C 3.566406 0.0546875 4.53125 -0.898438 4.53125 -2.082031 Z M 3.707031 -2.082031 C 3.707031 -1.332031 3.136719 -0.730469 2.378906 -0.730469 C 1.628906 -0.730469 1.066406 -1.332031 1.066406 -2.082031 C 1.066406 -2.839844 1.628906 -3.441406 2.378906 -3.441406 C 3.136719 -3.441406 3.707031 -2.839844 3.707031 -2.082031 Z M 3.707031 -2.082031" transform="translate(54.928 24.031)"/></g></g></g><g><g><g><path d="M 1.0625 -2.597656 C 1.039062 -2.671875 1.003906 -2.746094 0.914062 -2.746094 L 0.554688 -2.746094 C 0.484375 -2.746094 0.410156 -2.695312 0.410156 -2.597656 L 0.410156 -0.140625 C 0.410156 -0.0429688 0.460938 0 0.554688 0 L 1.023438 0 C 1.121094 0 1.171875 -0.0429688 1.171875 -0.140625 L 1.171875 -1.5625 C 1.171875 -1.820312 1.371094 -2.105469 1.699219 -2.105469 C 1.800781 -2.105469 1.871094 -2.078125 1.976562 -2.003906 C 2.042969 -1.96875 2.109375 -1.9375 2.140625 -1.9375 C 2.183594 -1.9375 2.222656 -1.964844 2.257812 -2.015625 L 2.480469 -2.378906 C 2.5 -2.410156 2.507812 -2.4375 2.507812 -2.460938 C 2.507812 -2.582031 2.132812 -2.761719 1.925781 -2.785156 C 1.890625 -2.789062 1.859375 -2.789062 1.820312 -2.789062 C 1.492188 -2.789062 1.253906 -2.558594 1.117188 -2.378906 C 1.113281 -2.417969 1.066406 -2.558594 1.0625 -2.597656 Z M 1.0625 -2.597656" transform="translate(59.713 24.031)"/></g></g></g><g><g><g><path d="M 2.21875 0.0546875 C 2.148438 0.308594 1.851562 0.453125 1.601562 0.453125 C 1.441406 0.453125 1.195312 0.425781 1.050781 0.292969 C 1.003906 0.257812 0.964844 0.242188 0.933594 0.242188 C 0.894531 0.242188 0.859375 0.265625 0.820312 0.304688 L 0.59375 0.605469 C 0.5625 0.644531 0.554688 0.683594 0.554688 0.71875 C 0.554688 0.78125 0.589844 0.832031 0.628906 0.859375 C 0.882812 1.089844 1.3125 1.171875 1.621094 1.171875 C 2.425781 1.171875 3.046875 0.671875 3.046875 -0.21875 L 3.046875 -2.59375 C 3.046875 -2.695312 2.957031 -2.75 2.878906 -2.75 L 2.554688 -2.75 C 2.441406 -2.75 2.429688 -2.707031 2.398438 -2.605469 L 2.347656 -2.402344 C 2.183594 -2.589844 1.929688 -2.789062 1.578125 -2.789062 C 0.796875 -2.789062 0.222656 -2.167969 0.222656 -1.375 C 0.222656 -0.578125 0.796875 0.0507812 1.578125 0.0507812 C 1.925781 0.0507812 2.140625 -0.117188 2.257812 -0.332031 C 2.257812 -0.203125 2.246094 -0.0390625 2.21875 0.0546875 Z M 0.960938 -1.363281 C 0.960938 -1.769531 1.222656 -2.109375 1.632812 -2.109375 C 2.058594 -2.109375 2.3125 -1.769531 2.3125 -1.359375 C 2.3125 -0.941406 2.050781 -0.625 1.632812 -0.625 C 1.230469 -0.625 0.960938 -0.949219 0.960938 -1.363281 Z M 0.960938 -1.363281" transform="translate(62.373 24.031)"/></g></g></g><g><g><g><path d="M 2.351562 -0.152344 C 2.371094 -0.0625 2.398438 0 2.507812 0 L 2.867188 0 C 2.953125 0 3.03125 -0.0507812 3.03125 -0.140625 L 3.03125 -2.605469 C 3.03125 -2.695312 2.953125 -2.757812 2.867188 -2.757812 L 2.554688 -2.769531 C 2.449219 -2.769531 2.425781 -2.734375 2.398438 -2.609375 L 2.339844 -2.398438 C 2.167969 -2.617188 1.980469 -2.796875 1.582031 -2.796875 C 0.773438 -2.796875 0.222656 -2.183594 0.222656 -1.371094 C 0.222656 -0.566406 0.785156 0.0546875 1.582031 0.0546875 L 1.59375 0.0546875 C 2.011719 0.0546875 2.183594 -0.132812 2.320312 -0.335938 C 2.328125 -0.265625 2.339844 -0.222656 2.351562 -0.152344 Z M 0.953125 -1.363281 C 0.953125 -1.769531 1.21875 -2.109375 1.628906 -2.109375 C 2.054688 -2.109375 2.308594 -1.769531 2.308594 -1.359375 C 2.308594 -0.941406 2.042969 -0.625 1.628906 -0.625 C 1.222656 -0.625 0.953125 -0.949219 0.953125 -1.363281 Z M 0.953125 -1.363281" transform="translate(65.716 24.031)"/></g></g></g><g><g><g><path d="M 0.925781 -2.757812 L 0.625 -2.757812 C 0.511719 -2.757812 0.453125 -2.695312 0.453125 -2.589844 L 0.453125 -0.125 C 0.453125 -0.0351562 0.476562 0 0.589844 0 L 1.09375 0 C 1.207031 0 1.234375 -0.0273438 1.234375 -0.125 L 1.234375 -1.566406 C 1.273438 -1.835938 1.582031 -2.054688 1.824219 -2.054688 C 2.117188 -2.054688 2.335938 -1.851562 2.335938 -1.550781 L 2.335938 -0.128906 C 2.335938 -0.0273438 2.347656 0 2.464844 0 L 2.980469 0 C 3.070312 0 3.117188 -0.0351562 3.117188 -0.132812 L 3.117188 -1.679688 C 3.117188 -2.324219 2.71875 -2.789062 2.019531 -2.789062 C 1.65625 -2.789062 1.347656 -2.59375 1.179688 -2.398438 C 1.128906 -2.59375 1.152344 -2.757812 0.925781 -2.757812 Z M 0.925781 -2.757812" transform="translate(69.049 24.031)"/></g></g></g><g><g><g><path d="M 1.164062 -2.621094 C 1.164062 -2.699219 1.089844 -2.757812 1.023438 -2.757812 L 0.535156 -2.757812 C 0.449219 -2.757812 0.402344 -2.699219 0.402344 -2.621094 L 0.402344 -0.128906 C 0.402344 -0.0429688 0.449219 0 0.535156 0 L 1.023438 0 C 1.113281 0 1.164062 -0.0429688 1.164062 -0.128906 Z M 0.332031 -3.578125 C 0.332031 -3.339844 0.527344 -3.148438 0.761719 -3.148438 C 1.011719 -3.148438 1.195312 -3.339844 1.195312 -3.578125 C 1.195312 -3.816406 1.011719 -4.007812 0.761719 -4.007812 C 0.527344 -4.007812 0.332031 -3.816406 0.332031 -3.578125 Z M 0.332031 -3.578125" transform="translate(72.566 24.031)"/></g></g></g><g><g><g><path d="M 0.34375 -2.234375 C 0.34375 -2.109375 0.410156 -2.054688 0.515625 -2.054688 L 1.671875 -2.054688 C 1.285156 -1.621094 0.703125 -1.027344 0.3125 -0.601562 C 0.28125 -0.5625 0.28125 -0.523438 0.28125 -0.484375 L 0.28125 -0.183594 C 0.28125 -0.0898438 0.359375 0 0.453125 0 L 2.53125 0 C 2.636719 0 2.707031 -0.09375 2.707031 -0.183594 L 2.707031 -0.523438 C 2.707031 -0.640625 2.636719 -0.695312 2.53125 -0.695312 L 1.359375 -0.695312 L 2.65625 -2.109375 C 2.683594 -2.144531 2.683594 -2.183594 2.683594 -2.207031 L 2.683594 -2.582031 C 2.683594 -2.695312 2.597656 -2.75 2.507812 -2.75 L 0.515625 -2.75 C 0.410156 -2.75 0.34375 -2.683594 0.34375 -2.582031 Z M 0.34375 -2.234375" transform="translate(74.182 24.031)"/></g></g></g><g><g><g><path d="M 2.351562 -0.152344 C 2.371094 -0.0625 2.398438 0 2.507812 0 L 2.867188 0 C 2.953125 0 3.03125 -0.0507812 3.03125 -0.140625 L 3.03125 -2.605469 C 3.03125 -2.695312 2.953125 -2.757812 2.867188 -2.757812 L 2.554688 -2.769531 C 2.449219 -2.769531 2.425781 -2.734375 2.398438 -2.609375 L 2.339844 -2.398438 C 2.167969 -2.617188 1.980469 -2.796875 1.582031 -2.796875 C 0.773438 -2.796875 0.222656 -2.183594 0.222656 -1.371094 C 0.222656 -0.566406 0.785156 0.0546875 1.582031 0.0546875 L 1.59375 0.0546875 C 2.011719 0.0546875 2.183594 -0.132812 2.320312 -0.335938 C 2.328125 -0.265625 2.339844 -0.222656 2.351562 -0.152344 Z M 0.953125 -1.363281 C 0.953125 -1.769531 1.21875 -2.109375 1.628906 -2.109375 C 2.054688 -2.109375 2.308594 -1.769531 2.308594 -1.359375 C 2.308594 -0.941406 2.042969 -0.625 1.628906 -0.625 C 1.222656 -0.625 0.953125 -0.949219 0.953125 -1.363281 Z M 0.953125 -1.363281" transform="translate(77.082 24.031)"/></g></g></g><g><g><g><path d="M 0.460938 -2.757812 L 0.308594 -2.757812 C 0.195312 -2.757812 0.144531 -2.699219 0.144531 -2.59375 L 0.144531 -2.285156 C 0.144531 -2.167969 0.195312 -2.109375 0.308594 -2.109375 L 0.460938 -2.109375 L 0.460938 -0.164062 C 0.460938 -0.0546875 0.488281 0 0.601562 0 L 1.074219 0 C 1.183594 0 1.222656 -0.0546875 1.222656 -0.164062 L 1.222656 -2.109375 L 1.5625 -2.109375 C 1.652344 -2.109375 1.710938 -2.167969 1.710938 -2.285156 L 1.710938 -2.59375 C 1.710938 -2.699219 1.652344 -2.757812 1.5625 -2.757812 L 1.222656 -2.757812 L 1.222656 -3.578125 C 1.222656 -3.671875 1.195312 -3.746094 1.089844 -3.746094 C 1.078125 -3.746094 1.0625 -3.746094 1.050781 -3.738281 L 0.632812 -3.675781 C 0.515625 -3.667969 0.460938 -3.605469 0.460938 -3.515625 Z M 0.460938 -2.757812" transform="translate(80.415 24.031)"/></g></g></g><g><g><g><path d="M 1.164062 -2.621094 C 1.164062 -2.699219 1.089844 -2.757812 1.023438 -2.757812 L 0.535156 -2.757812 C 0.449219 -2.757812 0.402344 -2.699219 0.402344 -2.621094 L 0.402344 -0.128906 C 0.402344 -0.0429688 0.449219 0 0.535156 0 L 1.023438 0 C 1.113281 0 1.164062 -0.0429688 1.164062 -0.128906 Z M 0.332031 -3.578125 C 0.332031 -3.339844 0.527344 -3.148438 0.761719 -3.148438 C 1.011719 -3.148438 1.195312 -3.339844 1.195312 -3.578125 C 1.195312 -3.816406 1.011719 -4.007812 0.761719 -4.007812 C 0.527344 -4.007812 0.332031 -3.816406 0.332031 -3.578125 Z M 0.332031 -3.578125" transform="translate(82.255 24.031)"/></g></g></g><g><g><g><path d="M 0.167969 -1.371094 C 0.167969 -0.574219 0.8125 0.0625 1.621094 0.0625 C 2.425781 0.0625 3.078125 -0.574219 3.078125 -1.371094 C 3.078125 -2.167969 2.425781 -2.8125 1.621094 -2.8125 C 0.8125 -2.8125 0.167969 -2.167969 0.167969 -1.371094 Z M 0.914062 -1.363281 C 0.914062 -1.761719 1.222656 -2.101562 1.621094 -2.101562 C 2.019531 -2.101562 2.335938 -1.761719 2.335938 -1.363281 C 2.335938 -0.960938 2.019531 -0.632812 1.621094 -0.632812 C 1.222656 -0.632812 0.914062 -0.960938 0.914062 -1.363281 Z M 0.914062 -1.363281" transform="translate(83.87 24.031)"/></g></g></g><g><g><g><path d="M 0.925781 -2.757812 L 0.625 -2.757812 C 0.511719 -2.757812 0.453125 -2.695312 0.453125 -2.589844 L 0.453125 -0.125 C 0.453125 -0.0351562 0.476562 0 0.589844 0 L 1.09375 0 C 1.207031 0 1.234375 -0.0273438 1.234375 -0.125 L 1.234375 -1.566406 C 1.273438 -1.835938 1.582031 -2.054688 1.824219 -2.054688 C 2.117188 -2.054688 2.335938 -1.851562 2.335938 -1.550781 L 2.335938 -0.128906 C 2.335938 -0.0273438 2.347656 0 2.464844 0 L 2.980469 0 C 3.070312 0 3.117188 -0.0351562 3.117188 -0.132812 L 3.117188 -1.679688 C 3.117188 -2.324219 2.71875 -2.789062 2.019531 -2.789062 C 1.65625 -2.789062 1.347656 -2.59375 1.179688 -2.398438 C 1.128906 -2.59375 1.152344 -2.757812 0.925781 -2.757812 Z M 0.925781 -2.757812" transform="translate(87.113 24.031)"/></g></g></g></svg>