<svg xmlns="http://www.w3.org/2000/svg" width="112.5" viewBox="0 0 112.5 37.5" height="37.5" version="1.0"><path fill="#545454" d="M 17.792969 33.429688 C 13.851562 33.429688 10.140625 31.894531 7.355469 29.105469 C 4.5625 26.320312 3.03125 22.609375 3.03125 18.664062 C 3.03125 14.722656 4.5625 11.011719 7.355469 8.226562 C 10.140625 5.433594 13.851562 3.902344 17.792969 3.902344 C 21.734375 3.902344 25.449219 5.433594 28.234375 8.226562 C 31.023438 11.019531 32.558594 14.722656 32.558594 18.664062 C 32.558594 22.609375 31.023438 26.320312 28.234375 29.105469 C 25.449219 31.894531 21.734375 33.429688 17.792969 33.429688 Z M 17.792969 4.785156 C 14.089844 4.785156 10.601562 6.230469 7.980469 8.851562 C 5.359375 11.472656 3.914062 14.960938 3.914062 18.664062 C 3.914062 22.371094 5.359375 25.859375 7.980469 28.480469 C 10.601562 31.097656 14.089844 32.546875 17.792969 32.546875 C 21.5 32.546875 24.988281 31.097656 27.609375 28.480469 C 30.226562 25.859375 31.671875 22.371094 31.671875 18.664062 C 31.671875 14.960938 30.226562 11.472656 27.609375 8.851562 C 24.988281 6.230469 21.5 4.785156 17.792969 4.785156 Z M 17.792969 4.785156"/><g fill="#545454"><g><g><path d="M 1.128906 -0.277344 C 1.128906 -0.0976562 1.214844 0 1.394531 0 L 8.339844 0 C 8.523438 0 8.632812 -0.0976562 8.632812 -0.277344 L 8.632812 -1.617188 C 8.632812 -1.800781 8.523438 -1.898438 8.339844 -1.898438 L 3.167969 -1.898438 L 3.167969 -4.449219 L 7.015625 -4.449219 C 7.210938 -4.449219 7.324219 -4.546875 7.324219 -4.726562 L 7.324219 -6.054688 C 7.324219 -6.25 7.195312 -6.332031 7.015625 -6.332031 L 3.167969 -6.332031 L 3.167969 -8.4375 L 8.214844 -8.4375 C 8.398438 -8.4375 8.496094 -8.535156 8.496094 -8.71875 L 8.496094 -10.070312 C 8.496094 -10.25 8.398438 -10.347656 8.214844 -10.347656 L 1.394531 -10.347656 C 1.214844 -10.347656 1.128906 -10.25 1.128906 -10.070312 Z M 1.128906 -0.277344" transform="translate(8.412 23.54)"/></g></g></g><g fill="#545454"><g><g><path d="M 7.921875 -2.414062 C 7.433594 -2.035156 6.722656 -1.757812 5.96875 -1.757812 C 4.085938 -1.757812 2.679688 -3.304688 2.679688 -5.1875 C 2.679688 -7.085938 4.085938 -8.5625 5.96875 -8.5625 C 6.722656 -8.5625 7.308594 -8.328125 7.964844 -7.921875 C 8.046875 -7.878906 8.117188 -7.851562 8.1875 -7.851562 C 8.257812 -7.851562 8.3125 -7.878906 8.355469 -7.9375 L 9.09375 -9.191406 C 9.136719 -9.261719 9.148438 -9.414062 9.011719 -9.539062 C 8.203125 -10.125 7.226562 -10.503906 5.96875 -10.503906 C 3.011719 -10.503906 0.613281 -8.144531 0.613281 -5.1875 C 0.613281 -2.230469 3.011719 0.152344 5.96875 0.152344 C 7.226562 0.152344 8.203125 -0.222656 8.996094 -0.824219 C 9.164062 -0.949219 9.207031 -1.058594 9.066406 -1.226562 L 8.367188 -2.414062 C 8.3125 -2.484375 8.242188 -2.523438 8.171875 -2.523438 C 8.089844 -2.523438 8.007812 -2.484375 7.921875 -2.414062 Z M 7.921875 -2.414062" transform="translate(17.367 23.54)"/></g></g></g><g><g><g><path d="M 0.445312 -0.109375 C 0.445312 -0.0390625 0.476562 0 0.546875 0 L 3.28125 0 C 3.351562 0 3.394531 -0.0390625 3.394531 -0.109375 L 3.394531 -0.636719 C 3.394531 -0.707031 3.351562 -0.746094 3.28125 -0.746094 L 1.246094 -0.746094 L 1.246094 -1.75 L 2.757812 -1.75 C 2.835938 -1.75 2.878906 -1.789062 2.878906 -1.859375 L 2.878906 -2.382812 C 2.878906 -2.457031 2.832031 -2.492188 2.757812 -2.492188 L 1.246094 -2.492188 L 1.246094 -3.320312 L 3.230469 -3.320312 C 3.300781 -3.320312 3.339844 -3.355469 3.339844 -3.429688 L 3.339844 -3.960938 C 3.339844 -4.03125 3.300781 -4.070312 3.230469 -4.070312 L 0.546875 -4.070312 C 0.476562 -4.070312 0.445312 -4.03125 0.445312 -3.960938 Z M 0.445312 -0.109375" transform="translate(35.259 17.506)"/></g></g></g><g><g><g><path d="M 0.410156 -0.121094 C 0.410156 -0.0429688 0.449219 0 0.527344 0 L 1.035156 0 C 1.113281 0 1.15625 -0.0507812 1.15625 -0.121094 L 1.15625 -3.949219 C 1.15625 -4.019531 1.109375 -4.070312 1.035156 -4.070312 L 0.527344 -4.070312 C 0.457031 -4.070312 0.410156 -4.027344 0.410156 -3.949219 Z M 0.410156 -0.121094" transform="translate(38.78 17.506)"/></g></g></g><g><g><g><path d="M 2.933594 -3.933594 C 2.933594 -4.015625 2.859375 -4.070312 2.777344 -4.070312 L 2.324219 -4.070312 C 2.234375 -4.070312 2.183594 -4.015625 2.183594 -3.933594 L 2.183594 -2.410156 C 2.03125 -2.601562 1.84375 -2.726562 1.496094 -2.726562 C 0.71875 -2.726562 0.207031 -2.105469 0.207031 -1.332031 C 0.207031 -0.566406 0.730469 0.0546875 1.488281 0.0546875 C 1.859375 0.0546875 2.058594 -0.0585938 2.238281 -0.324219 C 2.265625 -0.1875 2.265625 -0.0429688 2.371094 -0.015625 C 2.425781 -0.00390625 2.492188 0 2.554688 0 L 2.796875 0 C 2.890625 -0.00390625 2.933594 -0.0546875 2.933594 -0.136719 Z M 2.253906 -1.328125 L 2.253906 -1.320312 C 2.25 -0.925781 1.980469 -0.601562 1.597656 -0.601562 C 1.179688 -0.601562 0.945312 -0.925781 0.945312 -1.328125 C 0.945312 -1.726562 1.179688 -2.058594 1.597656 -2.058594 C 1.984375 -2.058594 2.253906 -1.726562 2.253906 -1.328125 Z M 2.253906 -1.328125" transform="translate(40.328 17.506)"/></g></g></g><g><g><g><path d="M 1.003906 -1.089844 L 2.710938 -1.089844 C 2.867188 -1.089844 2.902344 -1.210938 2.902344 -1.496094 C 2.902344 -2.183594 2.316406 -2.75 1.605469 -2.75 C 0.867188 -2.75 0.242188 -2.09375 0.242188 -1.339844 C 0.242188 -0.558594 0.878906 0.0664062 1.640625 0.0664062 C 1.953125 0.0664062 2.234375 -0.0429688 2.464844 -0.21875 C 2.507812 -0.257812 2.550781 -0.296875 2.550781 -0.351562 C 2.550781 -0.371094 2.539062 -0.394531 2.523438 -0.421875 L 2.320312 -0.746094 C 2.292969 -0.785156 2.265625 -0.796875 2.238281 -0.796875 C 2.195312 -0.796875 2.144531 -0.746094 2.085938 -0.71875 C 1.949219 -0.640625 1.800781 -0.585938 1.644531 -0.585938 C 1.347656 -0.585938 1.035156 -0.773438 1.003906 -1.089844 Z M 1.003906 -1.617188 C 1.042969 -1.898438 1.320312 -2.125 1.589844 -2.125 C 1.921875 -2.125 2.171875 -1.894531 2.183594 -1.617188 Z M 1.003906 -1.617188" transform="translate(43.504 17.506)"/></g></g></g><g><g><g><path d="M 1.035156 -2.539062 C 1.015625 -2.609375 0.980469 -2.683594 0.894531 -2.683594 L 0.542969 -2.683594 C 0.472656 -2.683594 0.402344 -2.632812 0.402344 -2.539062 L 0.402344 -0.136719 C 0.402344 -0.0429688 0.449219 0 0.542969 0 L 1 0 C 1.097656 0 1.148438 -0.0429688 1.148438 -0.136719 L 1.148438 -1.523438 C 1.148438 -1.777344 1.339844 -2.058594 1.664062 -2.058594 C 1.761719 -2.058594 1.828125 -2.03125 1.929688 -1.957031 C 1.996094 -1.925781 2.0625 -1.894531 2.089844 -1.894531 C 2.132812 -1.894531 2.171875 -1.921875 2.207031 -1.96875 L 2.425781 -2.324219 C 2.441406 -2.351562 2.453125 -2.382812 2.453125 -2.402344 C 2.453125 -2.523438 2.085938 -2.699219 1.882812 -2.722656 C 1.847656 -2.726562 1.816406 -2.726562 1.777344 -2.726562 C 1.460938 -2.726562 1.222656 -2.5 1.089844 -2.324219 C 1.085938 -2.363281 1.042969 -2.5 1.035156 -2.539062 Z M 1.035156 -2.539062" transform="translate(46.642 17.506)"/></g></g></g><g><g><g><path d="M 0.410156 -0.121094 C 0.410156 -0.0429688 0.449219 0 0.527344 0 L 1.035156 0 C 1.113281 0 1.15625 -0.0507812 1.15625 -0.121094 L 1.15625 -3.949219 C 1.15625 -4.019531 1.109375 -4.070312 1.035156 -4.070312 L 0.527344 -4.070312 C 0.457031 -4.070312 0.410156 -4.027344 0.410156 -3.949219 Z M 0.410156 -0.121094" transform="translate(49.243 17.506)"/></g></g></g><g><g><g><path d="M 2.929688 -2.457031 C 2.945312 -2.507812 2.953125 -2.535156 2.953125 -2.554688 C 2.953125 -2.632812 2.914062 -2.6875 2.796875 -2.6875 L 2.324219 -2.6875 C 2.234375 -2.6875 2.171875 -2.65625 2.144531 -2.566406 L 1.550781 -0.960938 L 0.953125 -2.5625 C 0.933594 -2.632812 0.871094 -2.6875 0.777344 -2.6875 L 0.300781 -2.6875 C 0.203125 -2.6875 0.152344 -2.644531 0.152344 -2.566406 C 0.152344 -2.550781 0.152344 -2.519531 0.175781 -2.472656 L 1.175781 -0.0273438 L 0.828125 0.898438 C 0.824219 0.921875 0.816406 0.949219 0.816406 0.972656 C 0.816406 1.058594 0.890625 1.085938 0.972656 1.085938 L 1.414062 1.085938 C 1.488281 1.085938 1.550781 1.046875 1.589844 0.964844 Z M 2.929688 -2.457031" transform="translate(50.79 17.506)"/></g></g></g><g><g><g><path d="M 3.117188 -0.949219 C 2.925781 -0.800781 2.644531 -0.691406 2.347656 -0.691406 C 1.605469 -0.691406 1.054688 -1.300781 1.054688 -2.039062 C 1.054688 -2.785156 1.605469 -3.367188 2.347656 -3.367188 C 2.644531 -3.367188 2.875 -3.273438 3.132812 -3.117188 C 3.164062 -3.097656 3.191406 -3.089844 3.21875 -3.089844 C 3.246094 -3.089844 3.269531 -3.097656 3.285156 -3.121094 L 3.578125 -3.613281 C 3.59375 -3.644531 3.597656 -3.703125 3.542969 -3.753906 C 3.226562 -3.984375 2.839844 -4.132812 2.347656 -4.132812 C 1.183594 -4.132812 0.242188 -3.203125 0.242188 -2.039062 C 0.242188 -0.878906 1.183594 0.0585938 2.347656 0.0585938 C 2.839844 0.0585938 3.226562 -0.0859375 3.539062 -0.324219 C 3.605469 -0.371094 3.621094 -0.417969 3.566406 -0.484375 L 3.292969 -0.949219 C 3.269531 -0.976562 3.242188 -0.992188 3.214844 -0.992188 C 3.183594 -0.992188 3.148438 -0.976562 3.117188 -0.949219 Z M 3.117188 -0.949219" transform="translate(55.573 17.506)"/></g></g></g><g><g><g><path d="M 2.296875 -0.148438 C 2.316406 -0.0585938 2.34375 0 2.453125 0 L 2.804688 0 C 2.886719 0 2.960938 -0.0507812 2.960938 -0.136719 L 2.960938 -2.546875 C 2.960938 -2.632812 2.886719 -2.695312 2.804688 -2.695312 L 2.496094 -2.703125 C 2.390625 -2.703125 2.371094 -2.671875 2.34375 -2.550781 L 2.289062 -2.34375 C 2.117188 -2.554688 1.9375 -2.730469 1.546875 -2.730469 C 0.757812 -2.730469 0.21875 -2.132812 0.21875 -1.339844 C 0.21875 -0.554688 0.769531 0.0546875 1.546875 0.0546875 L 1.558594 0.0546875 C 1.964844 0.0546875 2.132812 -0.132812 2.265625 -0.328125 C 2.277344 -0.257812 2.289062 -0.21875 2.296875 -0.148438 Z M 0.933594 -1.332031 C 0.933594 -1.726562 1.191406 -2.0625 1.589844 -2.0625 C 2.007812 -2.0625 2.253906 -1.726562 2.253906 -1.328125 C 2.253906 -0.921875 1.996094 -0.609375 1.589844 -0.609375 C 1.195312 -0.609375 0.933594 -0.925781 0.933594 -1.332031 Z M 0.933594 -1.332031" transform="translate(59.44 17.506)"/></g></g></g><g><g><g><path d="M 1.035156 -2.539062 C 1.015625 -2.609375 0.980469 -2.683594 0.894531 -2.683594 L 0.542969 -2.683594 C 0.472656 -2.683594 0.402344 -2.632812 0.402344 -2.539062 L 0.402344 -0.136719 C 0.402344 -0.0429688 0.449219 0 0.542969 0 L 1 0 C 1.097656 0 1.148438 -0.0429688 1.148438 -0.136719 L 1.148438 -1.523438 C 1.148438 -1.777344 1.339844 -2.058594 1.664062 -2.058594 C 1.761719 -2.058594 1.828125 -2.03125 1.929688 -1.957031 C 1.996094 -1.925781 2.0625 -1.894531 2.089844 -1.894531 C 2.132812 -1.894531 2.171875 -1.921875 2.207031 -1.96875 L 2.425781 -2.324219 C 2.441406 -2.351562 2.453125 -2.382812 2.453125 -2.402344 C 2.453125 -2.523438 2.085938 -2.699219 1.882812 -2.722656 C 1.847656 -2.726562 1.816406 -2.726562 1.777344 -2.726562 C 1.460938 -2.726562 1.222656 -2.5 1.089844 -2.324219 C 1.085938 -2.363281 1.042969 -2.5 1.035156 -2.539062 Z M 1.035156 -2.539062" transform="translate(62.7 17.506)"/></g></g></g><g><g><g><path d="M 1.003906 -1.089844 L 2.710938 -1.089844 C 2.867188 -1.089844 2.902344 -1.210938 2.902344 -1.496094 C 2.902344 -2.183594 2.316406 -2.75 1.605469 -2.75 C 0.867188 -2.75 0.242188 -2.09375 0.242188 -1.339844 C 0.242188 -0.558594 0.878906 0.0664062 1.640625 0.0664062 C 1.953125 0.0664062 2.234375 -0.0429688 2.464844 -0.21875 C 2.507812 -0.257812 2.550781 -0.296875 2.550781 -0.351562 C 2.550781 -0.371094 2.539062 -0.394531 2.523438 -0.421875 L 2.320312 -0.746094 C 2.292969 -0.785156 2.265625 -0.796875 2.238281 -0.796875 C 2.195312 -0.796875 2.144531 -0.746094 2.085938 -0.71875 C 1.949219 -0.640625 1.800781 -0.585938 1.644531 -0.585938 C 1.347656 -0.585938 1.035156 -0.773438 1.003906 -1.089844 Z M 1.003906 -1.617188 C 1.042969 -1.898438 1.320312 -2.125 1.589844 -2.125 C 1.921875 -2.125 2.171875 -1.894531 2.183594 -1.617188 Z M 1.003906 -1.617188" transform="translate(65.3 17.506)"/></g></g></g><g><g><g><path d="M 0.445312 -0.109375 C 0.445312 -0.0390625 0.476562 0 0.554688 0 L 1.148438 0 C 1.21875 0 1.25 -0.0390625 1.25 -0.109375 L 1.25 -3.957031 C 1.25 -4.027344 1.21875 -4.070312 1.148438 -4.070312 L 0.554688 -4.070312 C 0.484375 -4.070312 0.445312 -4.027344 0.445312 -3.957031 Z M 0.445312 -0.109375" transform="translate(70.155 17.506)"/></g></g></g><g><g><g><path d="M 0.90625 -2.695312 L 0.609375 -2.695312 C 0.5 -2.695312 0.445312 -2.632812 0.445312 -2.527344 L 0.445312 -0.121094 C 0.445312 -0.03125 0.464844 0 0.574219 0 L 1.070312 0 C 1.179688 0 1.207031 -0.0273438 1.207031 -0.121094 L 1.207031 -1.53125 C 1.246094 -1.792969 1.546875 -2.007812 1.78125 -2.007812 C 2.066406 -2.007812 2.28125 -1.808594 2.28125 -1.515625 L 2.28125 -0.125 C 2.28125 -0.0273438 2.292969 0 2.410156 0 L 2.914062 0 C 3 0 3.042969 -0.03125 3.042969 -0.132812 L 3.042969 -1.640625 C 3.042969 -2.269531 2.65625 -2.726562 1.976562 -2.726562 C 1.617188 -2.726562 1.316406 -2.535156 1.152344 -2.34375 C 1.101562 -2.535156 1.125 -2.695312 0.90625 -2.695312 Z M 0.90625 -2.695312" transform="translate(71.85 17.506)"/></g></g></g><g><g><g><path d="M 0.449219 -2.695312 L 0.300781 -2.695312 C 0.191406 -2.695312 0.144531 -2.640625 0.144531 -2.535156 L 0.144531 -2.234375 C 0.144531 -2.117188 0.191406 -2.0625 0.300781 -2.0625 L 0.449219 -2.0625 L 0.449219 -0.160156 C 0.449219 -0.0546875 0.476562 0 0.585938 0 L 1.046875 0 C 1.15625 0 1.195312 -0.0546875 1.195312 -0.160156 L 1.195312 -2.0625 L 1.523438 -2.0625 C 1.613281 -2.0625 1.671875 -2.117188 1.671875 -2.234375 L 1.671875 -2.535156 C 1.671875 -2.640625 1.613281 -2.695312 1.523438 -2.695312 L 1.195312 -2.695312 L 1.195312 -3.496094 C 1.195312 -3.585938 1.167969 -3.660156 1.0625 -3.660156 C 1.054688 -3.660156 1.035156 -3.660156 1.027344 -3.652344 L 0.621094 -3.59375 C 0.503906 -3.582031 0.449219 -3.523438 0.449219 -3.433594 Z M 0.449219 -2.695312" transform="translate(75.29 17.506)"/></g></g></g><g><g><g><path d="M 1.003906 -1.089844 L 2.710938 -1.089844 C 2.867188 -1.089844 2.902344 -1.210938 2.902344 -1.496094 C 2.902344 -2.183594 2.316406 -2.75 1.605469 -2.75 C 0.867188 -2.75 0.242188 -2.09375 0.242188 -1.339844 C 0.242188 -0.558594 0.878906 0.0664062 1.640625 0.0664062 C 1.953125 0.0664062 2.234375 -0.0429688 2.464844 -0.21875 C 2.507812 -0.257812 2.550781 -0.296875 2.550781 -0.351562 C 2.550781 -0.371094 2.539062 -0.394531 2.523438 -0.421875 L 2.320312 -0.746094 C 2.292969 -0.785156 2.265625 -0.796875 2.238281 -0.796875 C 2.195312 -0.796875 2.144531 -0.746094 2.085938 -0.71875 C 1.949219 -0.640625 1.800781 -0.585938 1.644531 -0.585938 C 1.347656 -0.585938 1.035156 -0.773438 1.003906 -1.089844 Z M 1.003906 -1.617188 C 1.042969 -1.898438 1.320312 -2.125 1.589844 -2.125 C 1.921875 -2.125 2.171875 -1.894531 2.183594 -1.617188 Z M 1.003906 -1.617188" transform="translate(77.09 17.506)"/></g></g></g><g><g><g><path d="M 1.035156 -2.539062 C 1.015625 -2.609375 0.980469 -2.683594 0.894531 -2.683594 L 0.542969 -2.683594 C 0.472656 -2.683594 0.402344 -2.632812 0.402344 -2.539062 L 0.402344 -0.136719 C 0.402344 -0.0429688 0.449219 0 0.542969 0 L 1 0 C 1.097656 0 1.148438 -0.0429688 1.148438 -0.136719 L 1.148438 -1.523438 C 1.148438 -1.777344 1.339844 -2.058594 1.664062 -2.058594 C 1.761719 -2.058594 1.828125 -2.03125 1.929688 -1.957031 C 1.996094 -1.925781 2.0625 -1.894531 2.089844 -1.894531 C 2.132812 -1.894531 2.171875 -1.921875 2.207031 -1.96875 L 2.425781 -2.324219 C 2.441406 -2.351562 2.453125 -2.382812 2.453125 -2.402344 C 2.453125 -2.523438 2.085938 -2.699219 1.882812 -2.722656 C 1.847656 -2.726562 1.816406 -2.726562 1.777344 -2.726562 C 1.460938 -2.726562 1.222656 -2.5 1.089844 -2.324219 C 1.085938 -2.363281 1.042969 -2.5 1.035156 -2.539062 Z M 1.035156 -2.539062" transform="translate(80.227 17.506)"/></g></g></g><g><g><g><path d="M 0.90625 -2.695312 L 0.609375 -2.695312 C 0.5 -2.695312 0.445312 -2.632812 0.445312 -2.527344 L 0.445312 -0.121094 C 0.445312 -0.03125 0.464844 0 0.574219 0 L 1.070312 0 C 1.179688 0 1.207031 -0.0273438 1.207031 -0.121094 L 1.207031 -1.53125 C 1.246094 -1.792969 1.546875 -2.007812 1.78125 -2.007812 C 2.066406 -2.007812 2.28125 -1.808594 2.28125 -1.515625 L 2.28125 -0.125 C 2.28125 -0.0273438 2.292969 0 2.410156 0 L 2.914062 0 C 3 0 3.042969 -0.03125 3.042969 -0.132812 L 3.042969 -1.640625 C 3.042969 -2.269531 2.65625 -2.726562 1.976562 -2.726562 C 1.617188 -2.726562 1.316406 -2.535156 1.152344 -2.34375 C 1.101562 -2.535156 1.125 -2.695312 0.90625 -2.695312 Z M 0.90625 -2.695312" transform="translate(82.828 17.506)"/></g></g></g><g><g><g><path d="M 2.296875 -0.148438 C 2.316406 -0.0585938 2.34375 0 2.453125 0 L 2.804688 0 C 2.886719 0 2.960938 -0.0507812 2.960938 -0.136719 L 2.960938 -2.546875 C 2.960938 -2.632812 2.886719 -2.695312 2.804688 -2.695312 L 2.496094 -2.703125 C 2.390625 -2.703125 2.371094 -2.671875 2.34375 -2.550781 L 2.289062 -2.34375 C 2.117188 -2.554688 1.9375 -2.730469 1.546875 -2.730469 C 0.757812 -2.730469 0.21875 -2.132812 0.21875 -1.339844 C 0.21875 -0.554688 0.769531 0.0546875 1.546875 0.0546875 L 1.558594 0.0546875 C 1.964844 0.0546875 2.132812 -0.132812 2.265625 -0.328125 C 2.277344 -0.257812 2.289062 -0.21875 2.296875 -0.148438 Z M 0.933594 -1.332031 C 0.933594 -1.726562 1.191406 -2.0625 1.589844 -2.0625 C 2.007812 -2.0625 2.253906 -1.726562 2.253906 -1.328125 C 2.253906 -0.921875 1.996094 -0.609375 1.589844 -0.609375 C 1.195312 -0.609375 0.933594 -0.925781 0.933594 -1.332031 Z M 0.933594 -1.332031" transform="translate(86.267 17.506)"/></g></g></g><g><g><g><path d="M 0.449219 -2.695312 L 0.300781 -2.695312 C 0.191406 -2.695312 0.144531 -2.640625 0.144531 -2.535156 L 0.144531 -2.234375 C 0.144531 -2.117188 0.191406 -2.0625 0.300781 -2.0625 L 0.449219 -2.0625 L 0.449219 -0.160156 C 0.449219 -0.0546875 0.476562 0 0.585938 0 L 1.046875 0 C 1.15625 0 1.195312 -0.0546875 1.195312 -0.160156 L 1.195312 -2.0625 L 1.523438 -2.0625 C 1.613281 -2.0625 1.671875 -2.117188 1.671875 -2.234375 L 1.671875 -2.535156 C 1.671875 -2.640625 1.613281 -2.695312 1.523438 -2.695312 L 1.195312 -2.695312 L 1.195312 -3.496094 C 1.195312 -3.585938 1.167969 -3.660156 1.0625 -3.660156 C 1.054688 -3.660156 1.035156 -3.660156 1.027344 -3.652344 L 0.621094 -3.59375 C 0.503906 -3.582031 0.449219 -3.523438 0.449219 -3.433594 Z M 0.449219 -2.695312" transform="translate(89.526 17.506)"/></g></g></g><g><g><g><path d="M 1.136719 -2.5625 C 1.136719 -2.640625 1.0625 -2.695312 1 -2.695312 L 0.519531 -2.695312 C 0.4375 -2.695312 0.394531 -2.640625 0.394531 -2.5625 L 0.394531 -0.125 C 0.394531 -0.0429688 0.4375 0 0.519531 0 L 1 0 C 1.085938 0 1.136719 -0.0429688 1.136719 -0.125 Z M 0.324219 -3.496094 C 0.324219 -3.265625 0.515625 -3.078125 0.746094 -3.078125 C 0.988281 -3.078125 1.167969 -3.265625 1.167969 -3.496094 C 1.167969 -3.730469 0.988281 -3.917969 0.746094 -3.917969 C 0.515625 -3.917969 0.324219 -3.730469 0.324219 -3.496094 Z M 0.324219 -3.496094" transform="translate(91.325 17.506)"/></g></g></g><g><g><g><path d="M 0.164062 -1.339844 C 0.164062 -0.558594 0.796875 0.0585938 1.585938 0.0585938 C 2.371094 0.0585938 3.007812 -0.558594 3.007812 -1.339844 C 3.007812 -2.117188 2.371094 -2.75 1.585938 -2.75 C 0.796875 -2.75 0.164062 -2.117188 0.164062 -1.339844 Z M 0.894531 -1.332031 C 0.894531 -1.722656 1.195312 -2.050781 1.585938 -2.050781 C 1.976562 -2.050781 2.28125 -1.722656 2.28125 -1.332031 C 2.28125 -0.9375 1.976562 -0.621094 1.585938 -0.621094 C 1.195312 -0.621094 0.894531 -0.9375 0.894531 -1.332031 Z M 0.894531 -1.332031" transform="translate(92.905 17.506)"/></g></g></g><g><g><g><path d="M 0.90625 -2.695312 L 0.609375 -2.695312 C 0.5 -2.695312 0.445312 -2.632812 0.445312 -2.527344 L 0.445312 -0.121094 C 0.445312 -0.03125 0.464844 0 0.574219 0 L 1.070312 0 C 1.179688 0 1.207031 -0.0273438 1.207031 -0.121094 L 1.207031 -1.53125 C 1.246094 -1.792969 1.546875 -2.007812 1.78125 -2.007812 C 2.066406 -2.007812 2.28125 -1.808594 2.28125 -1.515625 L 2.28125 -0.125 C 2.28125 -0.0273438 2.292969 0 2.410156 0 L 2.914062 0 C 3 0 3.042969 -0.03125 3.042969 -0.132812 L 3.042969 -1.640625 C 3.042969 -2.269531 2.65625 -2.726562 1.976562 -2.726562 C 1.617188 -2.726562 1.316406 -2.535156 1.152344 -2.34375 C 1.101562 -2.535156 1.125 -2.695312 0.90625 -2.695312 Z M 0.90625 -2.695312" transform="translate(96.076 17.506)"/></g></g></g><g><g><g><path d="M 2.296875 -0.148438 C 2.316406 -0.0585938 2.34375 0 2.453125 0 L 2.804688 0 C 2.886719 0 2.960938 -0.0507812 2.960938 -0.136719 L 2.960938 -2.546875 C 2.960938 -2.632812 2.886719 -2.695312 2.804688 -2.695312 L 2.496094 -2.703125 C 2.390625 -2.703125 2.371094 -2.671875 2.34375 -2.550781 L 2.289062 -2.34375 C 2.117188 -2.554688 1.9375 -2.730469 1.546875 -2.730469 C 0.757812 -2.730469 0.21875 -2.132812 0.21875 -1.339844 C 0.21875 -0.554688 0.769531 0.0546875 1.546875 0.0546875 L 1.558594 0.0546875 C 1.964844 0.0546875 2.132812 -0.132812 2.265625 -0.328125 C 2.277344 -0.257812 2.289062 -0.21875 2.296875 -0.148438 Z M 0.933594 -1.332031 C 0.933594 -1.726562 1.191406 -2.0625 1.589844 -2.0625 C 2.007812 -2.0625 2.253906 -1.726562 2.253906 -1.328125 C 2.253906 -0.921875 1.996094 -0.609375 1.589844 -0.609375 C 1.195312 -0.609375 0.933594 -0.925781 0.933594 -1.332031 Z M 0.933594 -1.332031" transform="translate(99.516 17.506)"/></g></g></g><g><g><g><path d="M 0.410156 -0.121094 C 0.410156 -0.0429688 0.449219 0 0.527344 0 L 1.035156 0 C 1.113281 0 1.15625 -0.0507812 1.15625 -0.121094 L 1.15625 -3.949219 C 1.15625 -4.019531 1.109375 -4.070312 1.035156 -4.070312 L 0.527344 -4.070312 C 0.457031 -4.070312 0.410156 -4.027344 0.410156 -3.949219 Z M 0.410156 -0.121094" transform="translate(102.775 17.506)"/></g></g></g><g><g><g><path d="M 4.425781 -2.035156 C 4.425781 -3.199219 3.484375 -4.132812 2.324219 -4.132812 C 1.167969 -4.132812 0.242188 -3.199219 0.242188 -2.035156 C 0.242188 -0.878906 1.167969 0.0546875 2.324219 0.0546875 C 3.484375 0.0546875 4.425781 -0.878906 4.425781 -2.035156 Z M 3.621094 -2.035156 C 3.621094 -1.300781 3.066406 -0.714844 2.324219 -0.714844 C 1.589844 -0.714844 1.042969 -1.300781 1.042969 -2.035156 C 1.042969 -2.777344 1.589844 -3.363281 2.324219 -3.363281 C 3.066406 -3.363281 3.621094 -2.777344 3.621094 -2.035156 Z M 3.621094 -2.035156" transform="translate(35.259 24.82)"/></g></g></g><g><g><g><path d="M 1.035156 -2.539062 C 1.015625 -2.609375 0.980469 -2.683594 0.894531 -2.683594 L 0.542969 -2.683594 C 0.472656 -2.683594 0.402344 -2.632812 0.402344 -2.539062 L 0.402344 -0.136719 C 0.402344 -0.0429688 0.449219 0 0.542969 0 L 1 0 C 1.097656 0 1.148438 -0.0429688 1.148438 -0.136719 L 1.148438 -1.523438 C 1.148438 -1.777344 1.339844 -2.058594 1.664062 -2.058594 C 1.761719 -2.058594 1.828125 -2.03125 1.929688 -1.957031 C 1.996094 -1.925781 2.0625 -1.894531 2.089844 -1.894531 C 2.132812 -1.894531 2.171875 -1.921875 2.207031 -1.96875 L 2.425781 -2.324219 C 2.441406 -2.351562 2.453125 -2.382812 2.453125 -2.402344 C 2.453125 -2.523438 2.085938 -2.699219 1.882812 -2.722656 C 1.847656 -2.726562 1.816406 -2.726562 1.777344 -2.726562 C 1.460938 -2.726562 1.222656 -2.5 1.089844 -2.324219 C 1.085938 -2.363281 1.042969 -2.5 1.035156 -2.539062 Z M 1.035156 -2.539062" transform="translate(39.938 24.82)"/></g></g></g><g><g><g><path d="M 2.167969 0.0546875 C 2.101562 0.300781 1.808594 0.445312 1.5625 0.445312 C 1.410156 0.445312 1.167969 0.417969 1.027344 0.285156 C 0.980469 0.253906 0.945312 0.234375 0.910156 0.234375 C 0.871094 0.234375 0.839844 0.257812 0.800781 0.296875 L 0.582031 0.59375 C 0.546875 0.632812 0.542969 0.667969 0.542969 0.703125 C 0.542969 0.761719 0.574219 0.8125 0.613281 0.839844 C 0.859375 1.0625 1.285156 1.148438 1.585938 1.148438 C 2.371094 1.148438 2.980469 0.660156 2.980469 -0.214844 L 2.980469 -2.535156 C 2.980469 -2.632812 2.890625 -2.6875 2.8125 -2.6875 L 2.496094 -2.6875 C 2.386719 -2.6875 2.375 -2.644531 2.34375 -2.546875 L 2.292969 -2.347656 C 2.132812 -2.527344 1.886719 -2.726562 1.542969 -2.726562 C 0.777344 -2.726562 0.21875 -2.117188 0.21875 -1.34375 C 0.21875 -0.566406 0.777344 0.0507812 1.542969 0.0507812 C 1.882812 0.0507812 2.089844 -0.113281 2.207031 -0.324219 C 2.207031 -0.199219 2.195312 -0.0390625 2.167969 0.0546875 Z M 0.9375 -1.332031 C 0.9375 -1.726562 1.195312 -2.0625 1.597656 -2.0625 C 2.011719 -2.0625 2.261719 -1.726562 2.261719 -1.328125 C 2.261719 -0.921875 2.003906 -0.609375 1.597656 -0.609375 C 1.203125 -0.609375 0.9375 -0.925781 0.9375 -1.332031 Z M 0.9375 -1.332031" transform="translate(42.539 24.82)"/></g></g></g><g><g><g><path d="M 2.296875 -0.148438 C 2.316406 -0.0585938 2.34375 0 2.453125 0 L 2.804688 0 C 2.886719 0 2.960938 -0.0507812 2.960938 -0.136719 L 2.960938 -2.546875 C 2.960938 -2.632812 2.886719 -2.695312 2.804688 -2.695312 L 2.496094 -2.703125 C 2.390625 -2.703125 2.371094 -2.671875 2.34375 -2.550781 L 2.289062 -2.34375 C 2.117188 -2.554688 1.9375 -2.730469 1.546875 -2.730469 C 0.757812 -2.730469 0.21875 -2.132812 0.21875 -1.339844 C 0.21875 -0.554688 0.769531 0.0546875 1.546875 0.0546875 L 1.558594 0.0546875 C 1.964844 0.0546875 2.132812 -0.132812 2.265625 -0.328125 C 2.277344 -0.257812 2.289062 -0.21875 2.296875 -0.148438 Z M 0.933594 -1.332031 C 0.933594 -1.726562 1.191406 -2.0625 1.589844 -2.0625 C 2.007812 -2.0625 2.253906 -1.726562 2.253906 -1.328125 C 2.253906 -0.921875 1.996094 -0.609375 1.589844 -0.609375 C 1.195312 -0.609375 0.933594 -0.925781 0.933594 -1.332031 Z M 0.933594 -1.332031" transform="translate(45.808 24.82)"/></g></g></g><g><g><g><path d="M 0.90625 -2.695312 L 0.609375 -2.695312 C 0.5 -2.695312 0.445312 -2.632812 0.445312 -2.527344 L 0.445312 -0.121094 C 0.445312 -0.03125 0.464844 0 0.574219 0 L 1.070312 0 C 1.179688 0 1.207031 -0.0273438 1.207031 -0.121094 L 1.207031 -1.53125 C 1.246094 -1.792969 1.546875 -2.007812 1.78125 -2.007812 C 2.066406 -2.007812 2.28125 -1.808594 2.28125 -1.515625 L 2.28125 -0.125 C 2.28125 -0.0273438 2.292969 0 2.410156 0 L 2.914062 0 C 3 0 3.042969 -0.03125 3.042969 -0.132812 L 3.042969 -1.640625 C 3.042969 -2.269531 2.65625 -2.726562 1.976562 -2.726562 C 1.617188 -2.726562 1.316406 -2.535156 1.152344 -2.34375 C 1.101562 -2.535156 1.125 -2.695312 0.90625 -2.695312 Z M 0.90625 -2.695312" transform="translate(49.067 24.82)"/></g></g></g><g><g><g><path d="M 1.136719 -2.5625 C 1.136719 -2.640625 1.0625 -2.695312 1 -2.695312 L 0.519531 -2.695312 C 0.4375 -2.695312 0.394531 -2.640625 0.394531 -2.5625 L 0.394531 -0.125 C 0.394531 -0.0429688 0.4375 0 0.519531 0 L 1 0 C 1.085938 0 1.136719 -0.0429688 1.136719 -0.125 Z M 0.324219 -3.496094 C 0.324219 -3.265625 0.515625 -3.078125 0.746094 -3.078125 C 0.988281 -3.078125 1.167969 -3.265625 1.167969 -3.496094 C 1.167969 -3.730469 0.988281 -3.917969 0.746094 -3.917969 C 0.515625 -3.917969 0.324219 -3.730469 0.324219 -3.496094 Z M 0.324219 -3.496094" transform="translate(52.507 24.82)"/></g></g></g><g><g><g><path d="M 0.335938 -2.183594 C 0.335938 -2.0625 0.402344 -2.007812 0.503906 -2.007812 L 1.636719 -2.007812 C 1.257812 -1.585938 0.6875 -1.003906 0.308594 -0.585938 C 0.273438 -0.546875 0.273438 -0.511719 0.273438 -0.472656 L 0.273438 -0.179688 C 0.273438 -0.0859375 0.351562 0 0.445312 0 L 2.472656 0 C 2.578125 0 2.644531 -0.09375 2.644531 -0.179688 L 2.644531 -0.511719 C 2.644531 -0.625 2.578125 -0.679688 2.472656 -0.679688 L 1.328125 -0.679688 L 2.59375 -2.0625 C 2.621094 -2.09375 2.621094 -2.132812 2.621094 -2.15625 L 2.621094 -2.523438 C 2.621094 -2.632812 2.539062 -2.6875 2.453125 -2.6875 L 0.503906 -2.6875 C 0.402344 -2.6875 0.335938 -2.621094 0.335938 -2.523438 Z M 0.335938 -2.183594" transform="translate(54.087 24.82)"/></g></g></g><g><g><g><path d="M 2.296875 -0.148438 C 2.316406 -0.0585938 2.34375 0 2.453125 0 L 2.804688 0 C 2.886719 0 2.960938 -0.0507812 2.960938 -0.136719 L 2.960938 -2.546875 C 2.960938 -2.632812 2.886719 -2.695312 2.804688 -2.695312 L 2.496094 -2.703125 C 2.390625 -2.703125 2.371094 -2.671875 2.34375 -2.550781 L 2.289062 -2.34375 C 2.117188 -2.554688 1.9375 -2.730469 1.546875 -2.730469 C 0.757812 -2.730469 0.21875 -2.132812 0.21875 -1.339844 C 0.21875 -0.554688 0.769531 0.0546875 1.546875 0.0546875 L 1.558594 0.0546875 C 1.964844 0.0546875 2.132812 -0.132812 2.265625 -0.328125 C 2.277344 -0.257812 2.289062 -0.21875 2.296875 -0.148438 Z M 0.933594 -1.332031 C 0.933594 -1.726562 1.191406 -2.0625 1.589844 -2.0625 C 2.007812 -2.0625 2.253906 -1.726562 2.253906 -1.328125 C 2.253906 -0.921875 1.996094 -0.609375 1.589844 -0.609375 C 1.195312 -0.609375 0.933594 -0.925781 0.933594 -1.332031 Z M 0.933594 -1.332031" transform="translate(56.923 24.82)"/></g></g></g><g><g><g><path d="M 0.449219 -2.695312 L 0.300781 -2.695312 C 0.191406 -2.695312 0.144531 -2.640625 0.144531 -2.535156 L 0.144531 -2.234375 C 0.144531 -2.117188 0.191406 -2.0625 0.300781 -2.0625 L 0.449219 -2.0625 L 0.449219 -0.160156 C 0.449219 -0.0546875 0.476562 0 0.585938 0 L 1.046875 0 C 1.15625 0 1.195312 -0.0546875 1.195312 -0.160156 L 1.195312 -2.0625 L 1.523438 -2.0625 C 1.613281 -2.0625 1.671875 -2.117188 1.671875 -2.234375 L 1.671875 -2.535156 C 1.671875 -2.640625 1.613281 -2.695312 1.523438 -2.695312 L 1.195312 -2.695312 L 1.195312 -3.496094 C 1.195312 -3.585938 1.167969 -3.660156 1.0625 -3.660156 C 1.054688 -3.660156 1.035156 -3.660156 1.027344 -3.652344 L 0.621094 -3.59375 C 0.503906 -3.582031 0.449219 -3.523438 0.449219 -3.433594 Z M 0.449219 -2.695312" transform="translate(60.182 24.82)"/></g></g></g><g><g><g><path d="M 1.136719 -2.5625 C 1.136719 -2.640625 1.0625 -2.695312 1 -2.695312 L 0.519531 -2.695312 C 0.4375 -2.695312 0.394531 -2.640625 0.394531 -2.5625 L 0.394531 -0.125 C 0.394531 -0.0429688 0.4375 0 0.519531 0 L 1 0 C 1.085938 0 1.136719 -0.0429688 1.136719 -0.125 Z M 0.324219 -3.496094 C 0.324219 -3.265625 0.515625 -3.078125 0.746094 -3.078125 C 0.988281 -3.078125 1.167969 -3.265625 1.167969 -3.496094 C 1.167969 -3.730469 0.988281 -3.917969 0.746094 -3.917969 C 0.515625 -3.917969 0.324219 -3.730469 0.324219 -3.496094 Z M 0.324219 -3.496094" transform="translate(61.981 24.82)"/></g></g></g><g><g><g><path d="M 0.164062 -1.339844 C 0.164062 -0.558594 0.796875 0.0585938 1.585938 0.0585938 C 2.371094 0.0585938 3.007812 -0.558594 3.007812 -1.339844 C 3.007812 -2.117188 2.371094 -2.75 1.585938 -2.75 C 0.796875 -2.75 0.164062 -2.117188 0.164062 -1.339844 Z M 0.894531 -1.332031 C 0.894531 -1.722656 1.195312 -2.050781 1.585938 -2.050781 C 1.976562 -2.050781 2.28125 -1.722656 2.28125 -1.332031 C 2.28125 -0.9375 1.976562 -0.621094 1.585938 -0.621094 C 1.195312 -0.621094 0.894531 -0.9375 0.894531 -1.332031 Z M 0.894531 -1.332031" transform="translate(63.56 24.82)"/></g></g></g><g><g><g><path d="M 0.90625 -2.695312 L 0.609375 -2.695312 C 0.5 -2.695312 0.445312 -2.632812 0.445312 -2.527344 L 0.445312 -0.121094 C 0.445312 -0.03125 0.464844 0 0.574219 0 L 1.070312 0 C 1.179688 0 1.207031 -0.0273438 1.207031 -0.121094 L 1.207031 -1.53125 C 1.246094 -1.792969 1.546875 -2.007812 1.78125 -2.007812 C 2.066406 -2.007812 2.28125 -1.808594 2.28125 -1.515625 L 2.28125 -0.125 C 2.28125 -0.0273438 2.292969 0 2.410156 0 L 2.914062 0 C 3 0 3.042969 -0.03125 3.042969 -0.132812 L 3.042969 -1.640625 C 3.042969 -2.269531 2.65625 -2.726562 1.976562 -2.726562 C 1.617188 -2.726562 1.316406 -2.535156 1.152344 -2.34375 C 1.101562 -2.535156 1.125 -2.695312 0.90625 -2.695312 Z M 0.90625 -2.695312" transform="translate(66.732 24.82)"/></g></g></g></svg>