<svg xmlns="http://www.w3.org/2000/svg" xmlns:xlink="http://www.w3.org/1999/xlink" width="187.5" viewBox="0 0 187.5 187.5" height="187.5" version="1.0"><defs><clipPath id="d"><path d="M 3 4 L 33 4 L 33 34 L 3 34 Z M 3 4"/></clipPath><clipPath id="e"><path d="M 0 23.695312 L 22.804688 0.890625 L 43.484375 21.574219 L 20.683594 44.375 Z M 0 23.695312"/></clipPath><clipPath id="f"><path d="M 0 23.695312 L 22.804688 0.890625 L 43.484375 21.574219 L 20.683594 44.375 Z M 0 23.695312"/></clipPath><clipPath id="c"><path d="M0 0H44V45H0z"/></clipPath><clipPath id="i"><path d="M 11 11 L 41 11 L 41 41 L 11 41 Z M 11 11"/></clipPath><clipPath id="j"><path d="M 0.625 23.019531 L 23.425781 0.214844 L 44.109375 20.898438 L 21.304688 43.703125 Z M 0.625 23.019531"/></clipPath><clipPath id="k"><path d="M 21.445312 43.84375 L 44.25 21.039062 L 23.566406 0.355469 L 0.765625 23.160156 Z M 21.445312 43.84375"/></clipPath><clipPath id="h"><path d="M0 0H45V45H0z"/></clipPath><clipPath id="n"><path d="M 3 11 L 33 11 L 33 41 L 3 41 Z M 3 11"/></clipPath><clipPath id="o"><path d="M 23 43.84375 L 0.199219 21.039062 L 20.878906 0.355469 L 43.683594 23.160156 Z M 23 43.84375"/></clipPath><clipPath id="p"><path d="M 23 43.84375 L 0.199219 21.039062 L 20.878906 0.355469 L 43.683594 23.160156 Z M 23 43.84375"/></clipPath><clipPath id="m"><path d="M0 0H44V45H0z"/></clipPath><clipPath id="s"><path d="M 11 4 L 41 4 L 41 34 L 11 34 Z M 11 4"/></clipPath><clipPath id="t"><path d="M 23.625 44.519531 L 0.820312 21.714844 L 21.503906 1.03125 L 44.308594 23.835938 Z M 23.625 44.519531"/></clipPath><clipPath id="u"><path d="M 21.445312 0.691406 L 44.25 23.496094 L 23.566406 44.179688 L 0.765625 21.375 Z M 21.445312 0.691406"/></clipPath><clipPath id="r"><path d="M0 0H45V45H0z"/></clipPath><mask id="b"><g filter="url(#a)"><path fill-opacity=".847" d="M-18.75 -18.75H206.25V206.25H-18.75z"/></g></mask><mask id="g"><g filter="url(#a)"><path fill-opacity=".8" d="M-18.75 -18.75H206.25V206.25H-18.75z"/></g></mask><mask id="l"><g filter="url(#a)"><path fill-opacity=".8" d="M-18.75 -18.75H206.25V206.25H-18.75z"/></g></mask><mask id="q"><g filter="url(#a)"><path fill-opacity=".8" d="M-18.75 -18.75H206.25V206.25H-18.75z"/></g></mask><filter x="0%" y="0%" width="100%" xmlns:xlink="http://www.w3.org/1999/xlink" xlink:type="simple" xlink:actuate="onLoad" height="100%" id="a" xlink:show="other"><feColorMatrix values="0 0 0 0 1 0 0 0 0 1 0 0 0 0 1 0 0 0 1 0" color-interpolation-filters="sRGB"/></filter></defs><g mask="url(#b)"><g><g clip-path="url(#c)" transform="translate(0 62)"><g clip-path="url(#d)"><g clip-path="url(#e)"><g clip-path="url(#f)"><path fill="#EC5242" d="M 27.863281 6.105469 C 19.957031 0.765625 11.792969 8.710938 15.996094 16.886719 C 7.820312 12.683594 -0.125 20.847656 5.214844 28.753906 C 10.054688 35.929688 32.023438 32.917969 32.023438 32.917969 C 32.023438 32.917969 35.039062 10.945312 27.863281 6.105469 Z M 27.863281 6.105469"/></g></g></g></g></g></g><g mask="url(#g)"><g><g clip-path="url(#h)" transform="translate(15 77)"><g clip-path="url(#i)"><g clip-path="url(#j)"><g clip-path="url(#k)"><path fill="#EC5242" d="M 39.035156 15.976562 C 44.375 23.882812 36.429688 32.050781 28.253906 27.84375 C 32.457031 36.019531 24.292969 43.964844 16.386719 38.628906 C 9.210938 33.785156 12.226562 11.816406 12.226562 11.816406 C 12.226562 11.816406 34.195312 8.804688 39.035156 15.976562 Z M 39.035156 15.976562"/></g></g></g></g></g></g><g mask="url(#l)"><g><g clip-path="url(#m)" transform="translate(0 77)"><g clip-path="url(#n)"><g clip-path="url(#o)"><g clip-path="url(#p)"><path fill="#EC5242" d="M 5.414062 15.976562 C 0.0742188 23.882812 8.019531 32.050781 16.195312 27.84375 C 11.992188 36.019531 20.15625 43.964844 28.0625 38.628906 C 35.238281 33.785156 32.222656 11.816406 32.222656 11.816406 C 32.222656 11.816406 10.253906 8.804688 5.414062 15.976562 Z M 5.414062 15.976562"/></g></g></g></g></g></g><g mask="url(#q)"><g><g clip-path="url(#r)" transform="translate(15 62)"><g clip-path="url(#s)"><g clip-path="url(#t)"><g clip-path="url(#u)"><path fill="#EC5242" d="M 39.035156 28.554688 C 44.375 20.648438 36.429688 12.484375 28.253906 16.6875 C 32.457031 8.511719 24.292969 0.566406 16.386719 5.90625 C 9.210938 10.746094 12.226562 32.71875 12.226562 32.71875 C 12.226562 32.71875 34.195312 35.730469 39.035156 28.554688 Z M 39.035156 28.554688"/></g></g></g></g></g></g><g fill="#EC5242"><g><g><path d="M 1.304688 -0.324219 C 1.304688 -0.113281 1.402344 0 1.613281 0 L 9.644531 0 C 9.851562 0 9.980469 -0.113281 9.980469 -0.324219 L 9.980469 -1.871094 C 9.980469 -2.082031 9.851562 -2.191406 9.644531 -2.191406 L 3.660156 -2.191406 L 3.660156 -5.144531 L 8.109375 -5.144531 C 8.335938 -5.144531 8.464844 -5.257812 8.464844 -5.464844 L 8.464844 -7 C 8.464844 -7.222656 8.320312 -7.320312 8.109375 -7.320312 L 3.660156 -7.320312 L 3.660156 -9.753906 L 9.496094 -9.753906 C 9.707031 -9.753906 9.820312 -9.867188 9.820312 -10.078125 L 9.820312 -11.640625 C 9.820312 -11.851562 9.707031 -11.964844 9.496094 -11.964844 L 1.613281 -11.964844 C 1.402344 -11.964844 1.304688 -11.851562 1.304688 -11.640625 Z M 1.304688 -0.324219" transform="translate(62.904 89.244)"/></g></g></g><g fill="#EC5242"><g><g><path d="M 1.210938 -0.355469 C 1.210938 -0.128906 1.320312 0 1.546875 0 L 3.046875 0 C 3.273438 0 3.402344 -0.144531 3.402344 -0.355469 L 3.402344 -11.609375 C 3.402344 -11.820312 3.257812 -11.964844 3.046875 -11.964844 L 1.546875 -11.964844 C 1.339844 -11.964844 1.210938 -11.835938 1.210938 -11.609375 Z M 1.210938 -0.355469" transform="translate(73.257 89.244)"/></g></g></g><g fill="#EC5242"><g><g><path d="M 8.625 -11.5625 C 8.625 -11.804688 8.402344 -11.964844 8.160156 -11.964844 L 6.835938 -11.964844 C 6.5625 -11.964844 6.417969 -11.804688 6.417969 -11.5625 L 6.417969 -7.078125 C 5.964844 -7.644531 5.417969 -8.015625 4.402344 -8.015625 C 2.113281 -8.015625 0.613281 -6.191406 0.613281 -3.917969 C 0.613281 -1.660156 2.144531 0.160156 4.371094 0.160156 C 5.464844 0.160156 6.046875 -0.175781 6.578125 -0.953125 C 6.660156 -0.546875 6.660156 -0.128906 6.964844 -0.046875 C 7.128906 -0.015625 7.320312 0 7.515625 0 L 8.222656 0 C 8.496094 -0.015625 8.625 -0.160156 8.625 -0.402344 Z M 6.628906 -3.902344 L 6.628906 -3.886719 C 6.609375 -2.726562 5.820312 -1.773438 4.691406 -1.773438 C 3.46875 -1.773438 2.773438 -2.726562 2.773438 -3.902344 C 2.773438 -5.078125 3.46875 -6.046875 4.691406 -6.046875 C 5.835938 -6.046875 6.628906 -5.078125 6.628906 -3.902344 Z M 6.628906 -3.902344" transform="translate(77.804 89.244)"/></g></g></g><g fill="#EC5242"><g><g><path d="M 2.949219 -3.207031 L 7.964844 -3.207031 C 8.433594 -3.207031 8.53125 -3.5625 8.53125 -4.402344 C 8.53125 -6.417969 6.804688 -8.078125 4.726562 -8.078125 C 2.546875 -8.078125 0.710938 -6.160156 0.710938 -3.933594 C 0.710938 -1.644531 2.578125 0.195312 4.820312 0.195312 C 5.742188 0.195312 6.5625 -0.128906 7.238281 -0.644531 C 7.367188 -0.757812 7.5 -0.871094 7.5 -1.03125 C 7.5 -1.097656 7.464844 -1.160156 7.417969 -1.242188 L 6.820312 -2.191406 C 6.742188 -2.304688 6.660156 -2.339844 6.578125 -2.339844 C 6.449219 -2.339844 6.304688 -2.191406 6.128906 -2.113281 C 5.722656 -1.886719 5.289062 -1.726562 4.835938 -1.726562 C 3.964844 -1.726562 3.046875 -2.273438 2.949219 -3.207031 Z M 2.949219 -4.757812 C 3.0625 -5.578125 3.886719 -6.242188 4.675781 -6.242188 C 5.644531 -6.242188 6.386719 -5.5625 6.417969 -4.757812 Z M 2.949219 -4.757812" transform="translate(87.14 89.244)"/></g></g></g><g fill="#EC5242"><g><g><path d="M 3.046875 -7.464844 C 2.984375 -7.675781 2.886719 -7.886719 2.628906 -7.886719 L 1.597656 -7.886719 C 1.386719 -7.886719 1.175781 -7.738281 1.175781 -7.464844 L 1.175781 -0.402344 C 1.175781 -0.128906 1.320312 0 1.597656 0 L 2.933594 0 C 3.226562 0 3.371094 -0.128906 3.371094 -0.402344 L 3.371094 -4.484375 C 3.371094 -5.222656 3.933594 -6.046875 4.886719 -6.046875 C 5.175781 -6.046875 5.371094 -5.964844 5.675781 -5.757812 C 5.871094 -5.660156 6.0625 -5.5625 6.144531 -5.5625 C 6.273438 -5.5625 6.386719 -5.644531 6.480469 -5.789062 L 7.128906 -6.835938 C 7.175781 -6.917969 7.207031 -7 7.207031 -7.0625 C 7.207031 -7.417969 6.128906 -7.933594 5.53125 -7.996094 C 5.433594 -8.015625 5.335938 -8.015625 5.222656 -8.015625 C 4.289062 -8.015625 3.597656 -7.351562 3.207031 -6.835938 C 3.191406 -6.949219 3.0625 -7.351562 3.046875 -7.464844 Z M 3.046875 -7.464844" transform="translate(96.364 89.244)"/></g></g></g><g fill="#EC5242"><g><g><path d="M 1.210938 -0.355469 C 1.210938 -0.128906 1.320312 0 1.546875 0 L 3.046875 0 C 3.273438 0 3.402344 -0.144531 3.402344 -0.355469 L 3.402344 -11.609375 C 3.402344 -11.820312 3.257812 -11.964844 3.046875 -11.964844 L 1.546875 -11.964844 C 1.339844 -11.964844 1.210938 -11.835938 1.210938 -11.609375 Z M 1.210938 -0.355469" transform="translate(104.007 89.244)"/></g></g></g><g fill="#EC5242"><g><g><path d="M 8.609375 -7.222656 C 8.660156 -7.367188 8.675781 -7.449219 8.675781 -7.515625 C 8.675781 -7.738281 8.5625 -7.902344 8.222656 -7.902344 L 6.835938 -7.902344 C 6.5625 -7.902344 6.386719 -7.804688 6.304688 -7.546875 L 4.5625 -2.820312 L 2.804688 -7.53125 C 2.742188 -7.738281 2.5625 -7.902344 2.289062 -7.902344 L 0.886719 -7.902344 C 0.597656 -7.902344 0.453125 -7.773438 0.453125 -7.546875 C 0.453125 -7.5 0.453125 -7.402344 0.515625 -7.273438 L 3.449219 -0.0820312 L 2.433594 2.644531 C 2.417969 2.710938 2.402344 2.789062 2.402344 2.855469 C 2.402344 3.113281 2.613281 3.191406 2.855469 3.191406 L 4.160156 3.191406 C 4.371094 3.191406 4.5625 3.078125 4.675781 2.839844 Z M 8.609375 -7.222656" transform="translate(108.554 89.244)"/></g></g></g><g fill="#EC5242"><g><g><path d="M 9.160156 -2.789062 C 8.59375 -2.355469 7.773438 -2.03125 6.902344 -2.03125 C 4.726562 -2.03125 3.097656 -3.820312 3.097656 -6 C 3.097656 -8.191406 4.726562 -9.902344 6.902344 -9.902344 C 7.773438 -9.902344 8.449219 -9.625 9.207031 -9.160156 C 9.304688 -9.109375 9.382812 -9.078125 9.464844 -9.078125 C 9.546875 -9.078125 9.609375 -9.109375 9.660156 -9.175781 L 10.511719 -10.625 C 10.5625 -10.707031 10.578125 -10.882812 10.417969 -11.03125 C 9.480469 -11.707031 8.351562 -12.140625 6.902344 -12.140625 C 3.484375 -12.140625 0.710938 -9.417969 0.710938 -6 C 0.710938 -2.578125 3.484375 0.175781 6.902344 0.175781 C 8.351562 0.175781 9.480469 -0.257812 10.402344 -0.953125 C 10.59375 -1.097656 10.640625 -1.226562 10.480469 -1.417969 L 9.675781 -2.789062 C 9.609375 -2.871094 9.53125 -2.917969 9.449219 -2.917969 C 9.351562 -2.917969 9.253906 -2.871094 9.160156 -2.789062 Z M 9.160156 -2.789062" transform="translate(122.615 89.244)"/></g></g></g><g fill="#EC5242"><g><g><path d="M 6.757812 -0.433594 C 6.804688 -0.175781 6.886719 0 7.207031 0 L 8.238281 0 C 8.480469 0 8.707031 -0.144531 8.707031 -0.402344 L 8.707031 -7.480469 C 8.707031 -7.738281 8.480469 -7.917969 8.238281 -7.917969 L 7.335938 -7.949219 C 7.03125 -7.949219 6.964844 -7.851562 6.886719 -7.5 L 6.722656 -6.886719 C 6.222656 -7.515625 5.691406 -8.03125 4.546875 -8.03125 C 2.226562 -8.03125 0.644531 -6.273438 0.644531 -3.933594 C 0.644531 -1.628906 2.257812 0.160156 4.546875 0.160156 L 4.578125 0.160156 C 5.773438 0.160156 6.273438 -0.386719 6.660156 -0.96875 C 6.691406 -0.757812 6.722656 -0.644531 6.757812 -0.433594 Z M 2.742188 -3.917969 C 2.742188 -5.078125 3.5 -6.0625 4.675781 -6.0625 C 5.902344 -6.0625 6.628906 -5.078125 6.628906 -3.902344 C 6.628906 -2.710938 5.871094 -1.789062 4.675781 -1.789062 C 3.515625 -1.789062 2.742188 -2.726562 2.742188 -3.917969 Z M 2.742188 -3.917969" transform="translate(133.984 89.244)"/></g></g></g><g fill="#EC5242"><g><g><path d="M 3.046875 -7.464844 C 2.984375 -7.675781 2.886719 -7.886719 2.628906 -7.886719 L 1.597656 -7.886719 C 1.386719 -7.886719 1.175781 -7.738281 1.175781 -7.464844 L 1.175781 -0.402344 C 1.175781 -0.128906 1.320312 0 1.597656 0 L 2.933594 0 C 3.226562 0 3.371094 -0.128906 3.371094 -0.402344 L 3.371094 -4.484375 C 3.371094 -5.222656 3.933594 -6.046875 4.886719 -6.046875 C 5.175781 -6.046875 5.371094 -5.964844 5.675781 -5.757812 C 5.871094 -5.660156 6.0625 -5.5625 6.144531 -5.5625 C 6.273438 -5.5625 6.386719 -5.644531 6.480469 -5.789062 L 7.128906 -6.835938 C 7.175781 -6.917969 7.207031 -7 7.207031 -7.0625 C 7.207031 -7.417969 6.128906 -7.933594 5.53125 -7.996094 C 5.433594 -8.015625 5.335938 -8.015625 5.222656 -8.015625 C 4.289062 -8.015625 3.597656 -7.351562 3.207031 -6.835938 C 3.191406 -6.949219 3.0625 -7.351562 3.046875 -7.464844 Z M 3.046875 -7.464844" transform="translate(143.562 89.244)"/></g></g></g><g fill="#EC5242"><g><g><path d="M 2.949219 -3.207031 L 7.964844 -3.207031 C 8.433594 -3.207031 8.53125 -3.5625 8.53125 -4.402344 C 8.53125 -6.417969 6.804688 -8.078125 4.726562 -8.078125 C 2.546875 -8.078125 0.710938 -6.160156 0.710938 -3.933594 C 0.710938 -1.644531 2.578125 0.195312 4.820312 0.195312 C 5.742188 0.195312 6.5625 -0.128906 7.238281 -0.644531 C 7.367188 -0.757812 7.5 -0.871094 7.5 -1.03125 C 7.5 -1.097656 7.464844 -1.160156 7.417969 -1.242188 L 6.820312 -2.191406 C 6.742188 -2.304688 6.660156 -2.339844 6.578125 -2.339844 C 6.449219 -2.339844 6.304688 -2.191406 6.128906 -2.113281 C 5.722656 -1.886719 5.289062 -1.726562 4.835938 -1.726562 C 3.964844 -1.726562 3.046875 -2.273438 2.949219 -3.207031 Z M 2.949219 -4.757812 C 3.0625 -5.578125 3.886719 -6.242188 4.675781 -6.242188 C 5.644531 -6.242188 6.386719 -5.5625 6.417969 -4.757812 Z M 2.949219 -4.757812" transform="translate(151.205 89.244)"/></g></g></g><g fill="#7B7B7B"><g><g><path d="M 5.988281 -1.246094 C 5.691406 -1.027344 5.09375 -0.78125 4.382812 -0.78125 C 2.746094 -0.78125 1.347656 -2.109375 1.347656 -3.796875 C 1.347656 -5.382812 2.613281 -6.832031 4.394531 -6.832031 C 5.0625 -6.832031 5.710938 -6.597656 6.214844 -6.234375 C 6.289062 -6.175781 6.359375 -6.152344 6.410156 -6.152344 C 6.472656 -6.152344 6.535156 -6.195312 6.585938 -6.277344 L 6.8125 -6.648438 C 6.832031 -6.679688 6.84375 -6.71875 6.84375 -6.761719 C 6.84375 -7.019531 6.144531 -7.335938 5.792969 -7.46875 C 5.351562 -7.644531 4.878906 -7.738281 4.382812 -7.738281 C 2.210938 -7.738281 0.453125 -5.96875 0.453125 -3.808594 C 0.453125 -1.636719 2.203125 0.113281 4.375 0.113281 C 5.269531 0.113281 6.082031 -0.15625 6.71875 -0.628906 L 6.738281 -0.648438 C 6.851562 -0.71875 6.882812 -0.792969 6.882812 -0.863281 L 6.882812 -3.148438 C 6.882812 -3.292969 6.769531 -3.375 6.648438 -3.375 L 6.214844 -3.375 C 6.0625 -3.375 5.988281 -3.292969 5.988281 -3.148438 Z M 5.988281 -1.246094" transform="translate(62.904 103.102)"/></g></g></g><g fill="#7B7B7B"><g><g><path d="M 1.71875 -7.410156 C 1.71875 -7.542969 1.625 -7.636719 1.492188 -7.636719 L 1.058594 -7.636719 C 0.914062 -7.636719 0.832031 -7.554688 0.832031 -7.410156 L 0.832031 -0.226562 C 0.832031 -0.0703125 0.90625 0 1.058594 0 L 1.492188 0 C 1.636719 0 1.71875 -0.0703125 1.71875 -0.226562 Z M 1.71875 -7.410156" transform="translate(70.374 103.102)"/></g></g></g><g fill="#7B7B7B"><g><g><path d="M 0.453125 -2.511719 C 0.453125 -1.050781 1.625 0.125 3.085938 0.125 C 4.546875 0.125 5.730469 -1.050781 5.730469 -2.511719 C 5.730469 -3.972656 4.546875 -5.15625 3.085938 -5.15625 C 1.625 -5.15625 0.453125 -3.972656 0.453125 -2.511719 Z M 1.285156 -2.511719 C 1.285156 -3.5 2.097656 -4.332031 3.085938 -4.332031 C 4.074219 -4.332031 4.898438 -3.5 4.898438 -2.511719 C 4.898438 -1.523438 4.074219 -0.699219 3.085938 -0.699219 C 2.097656 -0.699219 1.285156 -1.523438 1.285156 -2.511719 Z M 1.285156 -2.511719" transform="translate(72.926 103.102)"/></g></g></g><g fill="#7B7B7B"><g><g><path d="M 0.832031 -0.257812 C 0.832031 -0.09375 0.9375 0 1.121094 0 L 1.429688 0 C 1.605469 0 1.71875 -0.09375 1.71875 -0.257812 L 1.71875 -0.679688 C 2.058594 -0.214844 2.613281 0.101562 3.273438 0.101562 C 4.601562 0.101562 5.640625 -1.050781 5.640625 -2.511719 C 5.640625 -3.972656 4.601562 -5.132812 3.273438 -5.132812 C 2.582031 -5.132812 2.046875 -4.804688 1.71875 -4.320312 L 1.71875 -7.386719 C 1.71875 -7.542969 1.625 -7.636719 1.429688 -7.636719 L 1.132812 -7.636719 C 0.957031 -7.636719 0.832031 -7.542969 0.832031 -7.386719 Z M 1.636719 -2.5 C 1.636719 -3.46875 2.367188 -4.269531 3.191406 -4.269531 C 4.011719 -4.269531 4.742188 -3.46875 4.742188 -2.5 C 4.742188 -1.542969 4.011719 -0.742188 3.191406 -0.742188 C 2.367188 -0.742188 1.636719 -1.542969 1.636719 -2.5 Z M 1.636719 -2.5" transform="translate(79.202 103.102)"/></g></g></g><g fill="#7B7B7B"><g><g><path d="M 4.425781 -0.257812 C 4.425781 -0.101562 4.496094 0 4.683594 0 L 5.011719 0 C 5.15625 0 5.277344 -0.09375 5.277344 -0.226562 L 5.277344 -4.796875 C 5.277344 -4.960938 5.15625 -5.050781 5.011719 -5.050781 L 4.710938 -5.050781 C 4.539062 -5.050781 4.476562 -4.960938 4.464844 -4.796875 L 4.425781 -4.28125 C 4.117188 -4.722656 3.714844 -5.132812 2.871094 -5.132812 C 1.421875 -5.132812 0.410156 -3.972656 0.410156 -2.511719 C 0.410156 -1.050781 1.429688 0.101562 2.871094 0.101562 C 3.703125 0.101562 4.117188 -0.277344 4.425781 -0.742188 Z M 1.265625 -2.511719 C 1.265625 -3.46875 1.882812 -4.269531 2.871094 -4.269531 C 3.878906 -4.269531 4.425781 -3.457031 4.425781 -2.488281 C 4.425781 -1.503906 3.859375 -0.75 2.871094 -0.75 C 1.902344 -0.75 1.265625 -1.542969 1.265625 -2.511719 Z M 1.265625 -2.511719" transform="translate(85.304 103.102)"/></g></g></g><g fill="#7B7B7B"><g><g><path d="M 1.71875 -7.410156 C 1.71875 -7.542969 1.625 -7.636719 1.492188 -7.636719 L 1.058594 -7.636719 C 0.914062 -7.636719 0.832031 -7.554688 0.832031 -7.410156 L 0.832031 -0.226562 C 0.832031 -0.0703125 0.90625 0 1.058594 0 L 1.492188 0 C 1.636719 0 1.71875 -0.0703125 1.71875 -0.226562 Z M 1.71875 -7.410156" transform="translate(91.415 103.102)"/></g></g></g><g fill="#7B7B7B"><g><g><path d="M 6.71875 -6.964844 C 6.050781 -7.460938 5.246094 -7.738281 4.382812 -7.738281 C 2.210938 -7.738281 0.453125 -5.976562 0.453125 -3.808594 C 0.453125 -1.636719 2.203125 0.113281 4.375 0.113281 C 5.277344 0.113281 6.070312 -0.175781 6.71875 -0.648438 C 6.792969 -0.6875 6.832031 -0.75 6.832031 -0.824219 C 6.832031 -0.863281 6.824219 -0.914062 6.800781 -0.96875 L 6.566406 -1.359375 C 6.503906 -1.449219 6.453125 -1.480469 6.390625 -1.480469 C 6.296875 -1.480469 6.144531 -1.316406 6.007812 -1.253906 C 5.402344 -0.886719 4.917969 -0.773438 4.394531 -0.773438 C 2.800781 -0.773438 1.347656 -2.089844 1.347656 -3.796875 C 1.347656 -5.414062 2.613281 -6.832031 4.414062 -6.832031 C 5.042969 -6.832031 5.691406 -6.605469 6.203125 -6.234375 C 6.289062 -6.183594 6.347656 -6.164062 6.390625 -6.152344 C 6.453125 -6.152344 6.511719 -6.203125 6.566406 -6.277344 L 6.78125 -6.617188 C 6.8125 -6.65625 6.851562 -6.730469 6.851562 -6.792969 C 6.851562 -6.863281 6.800781 -6.914062 6.71875 -6.964844 Z M 6.71875 -6.964844" transform="translate(97.188 103.102)"/></g></g></g><g fill="#7B7B7B"><g><g><path d="M 0.453125 -2.511719 C 0.453125 -1.050781 1.625 0.125 3.085938 0.125 C 4.546875 0.125 5.730469 -1.050781 5.730469 -2.511719 C 5.730469 -3.972656 4.546875 -5.15625 3.085938 -5.15625 C 1.625 -5.15625 0.453125 -3.972656 0.453125 -2.511719 Z M 1.285156 -2.511719 C 1.285156 -3.5 2.097656 -4.332031 3.085938 -4.332031 C 4.074219 -4.332031 4.898438 -3.5 4.898438 -2.511719 C 4.898438 -1.523438 4.074219 -0.699219 3.085938 -0.699219 C 2.097656 -0.699219 1.285156 -1.523438 1.285156 -2.511719 Z M 1.285156 -2.511719" transform="translate(104.441 103.102)"/></g></g></g><g fill="#7B7B7B"><g><g><path d="M 1.6875 -4.804688 C 1.675781 -4.949219 1.585938 -5.03125 1.449219 -5.03125 L 1.058594 -5.03125 C 0.9375 -5.03125 0.832031 -4.949219 0.832031 -4.804688 L 0.832031 -0.226562 C 0.832031 -0.0820312 0.914062 0 1.070312 0 L 1.492188 0 C 1.636719 0 1.71875 -0.0703125 1.71875 -0.226562 L 1.71875 -3.167969 C 1.71875 -3.726562 2.542969 -4.261719 3.222656 -4.261719 C 4.003906 -4.261719 4.488281 -3.683594 4.488281 -2.996094 L 4.488281 -0.246094 C 4.488281 -0.0820312 4.527344 0 4.710938 0 L 5.132812 0 C 5.269531 0 5.382812 -0.09375 5.382812 -0.257812 L 5.382812 -2.996094 C 5.382812 -4.1875 4.628906 -5.144531 3.445312 -5.144531 C 2.828125 -5.144531 2.039062 -4.734375 1.71875 -4.34375 Z M 1.6875 -4.804688" transform="translate(110.718 103.102)"/></g></g></g><g fill="#7B7B7B"><g><g><path d="M 2.757812 -7.675781 C 1.585938 -7.65625 1.109375 -6.996094 1.109375 -6.039062 L 1.109375 -5.050781 L 0.578125 -5.050781 C 0.433594 -5.050781 0.320312 -4.980469 0.320312 -4.796875 L 0.320312 -4.527344 C 0.320312 -4.351562 0.433594 -4.238281 0.578125 -4.238281 L 1.109375 -4.238281 L 1.109375 -0.257812 C 1.109375 -0.101562 1.195312 0 1.359375 0 L 1.75 0 C 1.871094 0 2.015625 -0.09375 2.015625 -0.257812 L 2.015625 -4.238281 L 2.757812 -4.238281 C 2.910156 -4.238281 3.003906 -4.351562 3.003906 -4.527344 L 3.003906 -4.796875 C 3.003906 -4.980469 2.910156 -5.050781 2.757812 -5.050781 L 2.015625 -5.050781 L 2.015625 -6.03125 C 2.015625 -6.65625 2.292969 -6.78125 2.777344 -6.800781 C 2.921875 -6.800781 3.003906 -6.925781 3.003906 -7.058594 L 3.003906 -7.410156 C 3.003906 -7.574219 2.910156 -7.675781 2.757812 -7.675781 Z M 2.757812 -7.675781" transform="translate(116.799 103.102)"/></g></g></g><g fill="#7B7B7B"><g><g><path d="M 2.882812 0.125 C 3.519531 0.125 4.054688 -0.144531 4.515625 -0.453125 C 4.578125 -0.492188 4.683594 -0.566406 4.691406 -0.660156 C 4.691406 -0.6875 4.683594 -0.71875 4.652344 -0.75 L 4.363281 -1.183594 C 4.332031 -1.222656 4.289062 -1.246094 4.25 -1.246094 C 4.179688 -1.246094 4.105469 -1.214844 4.066406 -1.171875 C 3.734375 -0.894531 3.292969 -0.742188 2.882812 -0.742188 C 2.121094 -0.742188 1.480469 -1.308594 1.359375 -2.128906 L 4.515625 -2.128906 C 4.886719 -2.128906 5.1875 -2.191406 5.1875 -2.601562 L 5.1875 -2.726562 C 5.1875 -4.066406 4.136719 -5.15625 2.882812 -5.15625 C 1.535156 -5.15625 0.453125 -3.972656 0.453125 -2.511719 C 0.453125 -1.050781 1.535156 0.125 2.882812 0.125 Z M 1.398438 -2.890625 C 1.574219 -3.664062 2.152344 -4.289062 2.859375 -4.289062 C 3.550781 -4.289062 4.179688 -3.664062 4.3125 -2.890625 Z M 1.398438 -2.890625" transform="translate(120.132 103.102)"/></g></g></g><g fill="#7B7B7B"><g><g><path d="M 1.667969 -4.824219 C 1.644531 -4.949219 1.574219 -5.050781 1.429688 -5.050781 L 1.058594 -5.050781 C 0.9375 -5.050781 0.832031 -4.960938 0.832031 -4.824219 L 0.832031 -0.226562 C 0.832031 -0.0703125 0.914062 0 1.070312 0 L 1.492188 0 C 1.636719 0 1.71875 -0.0703125 1.71875 -0.226562 L 1.71875 -2.902344 C 1.71875 -3.53125 2.140625 -4.25 2.757812 -4.25 C 2.941406 -4.238281 3.179688 -4.167969 3.3125 -4.085938 C 3.332031 -4.074219 3.375 -4.035156 3.4375 -4.035156 C 3.476562 -4.035156 3.53125 -4.066406 3.570312 -4.136719 L 3.828125 -4.621094 C 3.839844 -4.652344 3.847656 -4.671875 3.847656 -4.703125 C 3.847656 -4.824219 3.332031 -5.132812 2.882812 -5.132812 C 2.242188 -5.132812 1.894531 -4.765625 1.71875 -4.445312 Z M 1.667969 -4.824219" transform="translate(125.606 103.102)"/></g></g></g><g fill="#7B7B7B"><g><g><path d="M 2.882812 0.125 C 3.519531 0.125 4.054688 -0.144531 4.515625 -0.453125 C 4.578125 -0.492188 4.683594 -0.566406 4.691406 -0.660156 C 4.691406 -0.6875 4.683594 -0.71875 4.652344 -0.75 L 4.363281 -1.183594 C 4.332031 -1.222656 4.289062 -1.246094 4.25 -1.246094 C 4.179688 -1.246094 4.105469 -1.214844 4.066406 -1.171875 C 3.734375 -0.894531 3.292969 -0.742188 2.882812 -0.742188 C 2.121094 -0.742188 1.480469 -1.308594 1.359375 -2.128906 L 4.515625 -2.128906 C 4.886719 -2.128906 5.1875 -2.191406 5.1875 -2.601562 L 5.1875 -2.726562 C 5.1875 -4.066406 4.136719 -5.15625 2.882812 -5.15625 C 1.535156 -5.15625 0.453125 -3.972656 0.453125 -2.511719 C 0.453125 -1.050781 1.535156 0.125 2.882812 0.125 Z M 1.398438 -2.890625 C 1.574219 -3.664062 2.152344 -4.289062 2.859375 -4.289062 C 3.550781 -4.289062 4.179688 -3.664062 4.3125 -2.890625 Z M 1.398438 -2.890625" transform="translate(129.526 103.102)"/></g></g></g><g fill="#7B7B7B"><g><g><path d="M 1.6875 -4.804688 C 1.675781 -4.949219 1.585938 -5.03125 1.449219 -5.03125 L 1.058594 -5.03125 C 0.9375 -5.03125 0.832031 -4.949219 0.832031 -4.804688 L 0.832031 -0.226562 C 0.832031 -0.0820312 0.914062 0 1.070312 0 L 1.492188 0 C 1.636719 0 1.71875 -0.0703125 1.71875 -0.226562 L 1.71875 -3.167969 C 1.71875 -3.726562 2.542969 -4.261719 3.222656 -4.261719 C 4.003906 -4.261719 4.488281 -3.683594 4.488281 -2.996094 L 4.488281 -0.246094 C 4.488281 -0.0820312 4.527344 0 4.710938 0 L 5.132812 0 C 5.269531 0 5.382812 -0.09375 5.382812 -0.257812 L 5.382812 -2.996094 C 5.382812 -4.1875 4.628906 -5.144531 3.445312 -5.144531 C 2.828125 -5.144531 2.039062 -4.734375 1.71875 -4.34375 Z M 1.6875 -4.804688" transform="translate(135 103.102)"/></g></g></g><g fill="#7B7B7B"><g><g><path d="M 3.035156 -0.699219 C 2.046875 -0.699219 1.222656 -1.523438 1.222656 -2.511719 C 1.222656 -3.5 2.046875 -4.332031 3.035156 -4.332031 C 3.476562 -4.332031 3.859375 -4.136719 4.179688 -3.890625 C 4.238281 -3.839844 4.3125 -3.808594 4.34375 -3.808594 C 4.402344 -3.808594 4.445312 -3.828125 4.476562 -3.867188 L 4.476562 -3.859375 L 4.753906 -4.300781 C 4.773438 -4.320312 4.785156 -4.382812 4.785156 -4.414062 C 4.785156 -4.488281 4.722656 -4.546875 4.621094 -4.621094 C 4.085938 -5 3.582031 -5.15625 3.035156 -5.15625 C 1.574219 -5.15625 0.402344 -3.972656 0.402344 -2.511719 C 0.402344 -1.050781 1.574219 0.125 3.035156 0.125 C 3.664062 0.125 4.21875 -0.132812 4.671875 -0.453125 C 4.734375 -0.492188 4.847656 -0.566406 4.847656 -0.660156 C 4.847656 -0.6875 4.835938 -0.71875 4.816406 -0.75 L 4.515625 -1.171875 C 4.496094 -1.214844 4.457031 -1.234375 4.402344 -1.234375 C 4.34375 -1.234375 4.269531 -1.203125 4.21875 -1.164062 C 3.898438 -0.886719 3.445312 -0.699219 3.035156 -0.699219 Z M 3.035156 -0.699219" transform="translate(141.081 103.102)"/></g></g></g><g fill="#7B7B7B"><g><g><path d="M 2.882812 0.125 C 3.519531 0.125 4.054688 -0.144531 4.515625 -0.453125 C 4.578125 -0.492188 4.683594 -0.566406 4.691406 -0.660156 C 4.691406 -0.6875 4.683594 -0.71875 4.652344 -0.75 L 4.363281 -1.183594 C 4.332031 -1.222656 4.289062 -1.246094 4.25 -1.246094 C 4.179688 -1.246094 4.105469 -1.214844 4.066406 -1.171875 C 3.734375 -0.894531 3.292969 -0.742188 2.882812 -0.742188 C 2.121094 -0.742188 1.480469 -1.308594 1.359375 -2.128906 L 4.515625 -2.128906 C 4.886719 -2.128906 5.1875 -2.191406 5.1875 -2.601562 L 5.1875 -2.726562 C 5.1875 -4.066406 4.136719 -5.15625 2.882812 -5.15625 C 1.535156 -5.15625 0.453125 -3.972656 0.453125 -2.511719 C 0.453125 -1.050781 1.535156 0.125 2.882812 0.125 Z M 1.398438 -2.890625 C 1.574219 -3.664062 2.152344 -4.289062 2.859375 -4.289062 C 3.550781 -4.289062 4.179688 -3.664062 4.3125 -2.890625 Z M 1.398438 -2.890625" transform="translate(146.339 103.102)"/></g></g></g><g fill="#7B7B7B"><g><g><path d="M 5.484375 0 C 5.617188 0 5.722656 -0.125 5.722656 -0.246094 L 5.722656 -0.648438 C 5.722656 -0.8125 5.617188 -0.875 5.484375 -0.875 L 1.976562 -0.875 C 2.5 -1.378906 4.464844 -3.261719 4.980469 -3.765625 C 5.382812 -4.15625 5.667969 -4.742188 5.667969 -5.402344 C 5.667969 -6.800781 4.515625 -7.6875 3.117188 -7.6875 C 2.160156 -7.6875 1.449219 -7.191406 0.988281 -6.617188 C 0.957031 -6.566406 0.894531 -6.460938 0.894531 -6.378906 C 0.894531 -6.339844 0.914062 -6.316406 0.945312 -6.277344 L 1.335938 -5.957031 C 1.359375 -5.9375 1.390625 -5.925781 1.421875 -5.925781 C 1.492188 -5.925781 1.585938 -5.988281 1.625 -6.050781 C 1.945312 -6.542969 2.5 -6.8125 3.054688 -6.832031 L 3.117188 -6.832031 C 4.011719 -6.832031 4.753906 -6.226562 4.753906 -5.382812 C 4.753906 -4.960938 4.609375 -4.640625 4.179688 -4.207031 L 0.667969 -0.78125 C 0.648438 -0.730469 0.636719 -0.6875 0.636719 -0.648438 L 0.636719 -0.246094 C 0.636719 -0.113281 0.75 0 0.886719 0 Z M 5.484375 0" transform="translate(155.033 103.102)"/></g></g></g><g fill="#7B7B7B"><g><g><path d="M 4.382812 -7.738281 C 2.210938 -7.738281 0.453125 -5.976562 0.453125 -3.808594 C 0.453125 -1.636719 2.203125 0.113281 4.375 0.113281 C 6.554688 0.113281 8.3125 -1.636719 8.3125 -3.796875 C 8.3125 -5.988281 6.542969 -7.738281 4.382812 -7.738281 Z M 1.347656 -3.816406 C 1.347656 -5.484375 2.695312 -6.84375 4.382812 -6.84375 C 6.050781 -6.84375 7.410156 -5.484375 7.410156 -3.816406 C 7.410156 -2.128906 6.050781 -0.773438 4.382812 -0.773438 C 2.695312 -0.773438 1.347656 -2.128906 1.347656 -3.816406 Z M 1.347656 -3.816406" transform="translate(161.371 103.102)"/></g></g></g><g fill="#7B7B7B"><g><g><path d="M 5.484375 0 C 5.617188 0 5.722656 -0.125 5.722656 -0.246094 L 5.722656 -0.648438 C 5.722656 -0.8125 5.617188 -0.875 5.484375 -0.875 L 1.976562 -0.875 C 2.5 -1.378906 4.464844 -3.261719 4.980469 -3.765625 C 5.382812 -4.15625 5.667969 -4.742188 5.667969 -5.402344 C 5.667969 -6.800781 4.515625 -7.6875 3.117188 -7.6875 C 2.160156 -7.6875 1.449219 -7.191406 0.988281 -6.617188 C 0.957031 -6.566406 0.894531 -6.460938 0.894531 -6.378906 C 0.894531 -6.339844 0.914062 -6.316406 0.945312 -6.277344 L 1.335938 -5.957031 C 1.359375 -5.9375 1.390625 -5.925781 1.421875 -5.925781 C 1.492188 -5.925781 1.585938 -5.988281 1.625 -6.050781 C 1.945312 -6.542969 2.5 -6.8125 3.054688 -6.832031 L 3.117188 -6.832031 C 4.011719 -6.832031 4.753906 -6.226562 4.753906 -5.382812 C 4.753906 -4.960938 4.609375 -4.640625 4.179688 -4.207031 L 0.667969 -0.78125 C 0.648438 -0.730469 0.636719 -0.6875 0.636719 -0.648438 L 0.636719 -0.246094 C 0.636719 -0.113281 0.75 0 0.886719 0 Z M 5.484375 0" transform="translate(170.148 103.102)"/></g></g></g><g fill="#7B7B7B"><g><g><path d="M 5.484375 0 C 5.617188 0 5.722656 -0.125 5.722656 -0.246094 L 5.722656 -0.648438 C 5.722656 -0.8125 5.617188 -0.875 5.484375 -0.875 L 1.976562 -0.875 C 2.5 -1.378906 4.464844 -3.261719 4.980469 -3.765625 C 5.382812 -4.15625 5.667969 -4.742188 5.667969 -5.402344 C 5.667969 -6.800781 4.515625 -7.6875 3.117188 -7.6875 C 2.160156 -7.6875 1.449219 -7.191406 0.988281 -6.617188 C 0.957031 -6.566406 0.894531 -6.460938 0.894531 -6.378906 C 0.894531 -6.339844 0.914062 -6.316406 0.945312 -6.277344 L 1.335938 -5.957031 C 1.359375 -5.9375 1.390625 -5.925781 1.421875 -5.925781 C 1.492188 -5.925781 1.585938 -5.988281 1.625 -6.050781 C 1.945312 -6.542969 2.5 -6.8125 3.054688 -6.832031 L 3.117188 -6.832031 C 4.011719 -6.832031 4.753906 -6.226562 4.753906 -5.382812 C 4.753906 -4.960938 4.609375 -4.640625 4.179688 -4.207031 L 0.667969 -0.78125 C 0.648438 -0.730469 0.636719 -0.6875 0.636719 -0.648438 L 0.636719 -0.246094 C 0.636719 -0.113281 0.75 0 0.886719 0 Z M 5.484375 0" transform="translate(176.486 103.102)"/></g></g></g><g fill="#7B7B7B"><g><g><path d="M 2.1875 -3.859375 C 1.101562 -3.859375 0.226562 -2.980469 0.226562 -1.898438 C 0.226562 -0.816406 1.097656 0.0546875 2.179688 0.0546875 C 3.269531 0.0546875 4.144531 -0.816406 4.144531 -1.894531 C 4.144531 -2.988281 3.261719 -3.859375 2.1875 -3.859375 Z M 0.671875 -1.902344 C 0.671875 -2.734375 1.34375 -3.414062 2.1875 -3.414062 C 3.015625 -3.414062 3.695312 -2.734375 3.695312 -1.902344 C 3.695312 -1.0625 3.015625 -0.386719 2.1875 -0.386719 C 1.34375 -0.386719 0.671875 -1.0625 0.671875 -1.902344 Z M 0.671875 -1.902344" transform="translate(62.904 110.713)"/></g></g></g><g fill="#7B7B7B"><g><g><path d="M 1.515625 -0.347656 C 1.019531 -0.347656 0.609375 -0.757812 0.609375 -1.253906 C 0.609375 -1.746094 1.019531 -2.160156 1.515625 -2.160156 C 1.734375 -2.160156 1.925781 -2.0625 2.082031 -1.941406 C 2.113281 -1.914062 2.148438 -1.898438 2.164062 -1.898438 C 2.195312 -1.898438 2.214844 -1.910156 2.230469 -1.929688 L 2.230469 -1.925781 L 2.371094 -2.144531 C 2.382812 -2.15625 2.386719 -2.1875 2.386719 -2.203125 C 2.386719 -2.238281 2.355469 -2.269531 2.304688 -2.304688 C 2.035156 -2.492188 1.785156 -2.570312 1.515625 -2.570312 C 0.785156 -2.570312 0.199219 -1.980469 0.199219 -1.253906 C 0.199219 -0.523438 0.785156 0.0625 1.515625 0.0625 C 1.828125 0.0625 2.105469 -0.0664062 2.328125 -0.226562 C 2.359375 -0.246094 2.417969 -0.28125 2.417969 -0.328125 C 2.417969 -0.34375 2.410156 -0.359375 2.402344 -0.375 L 2.253906 -0.585938 C 2.242188 -0.605469 2.222656 -0.617188 2.195312 -0.617188 C 2.164062 -0.617188 2.128906 -0.601562 2.105469 -0.578125 C 1.945312 -0.441406 1.71875 -0.347656 1.515625 -0.347656 Z M 1.515625 -0.347656" transform="translate(67.281 110.713)"/></g></g></g><g fill="#7B7B7B"><g><g><path d="M 1.289062 0.0429688 C 1.371094 0.0351562 1.417969 -0.00390625 1.417969 -0.0820312 L 1.417969 -0.246094 C 1.417969 -0.328125 1.363281 -0.375 1.289062 -0.375 C 1.082031 -0.378906 1.015625 -0.386719 1.015625 -0.734375 L 1.015625 -2.109375 L 1.394531 -2.109375 C 1.472656 -2.109375 1.507812 -2.148438 1.507812 -2.230469 L 1.507812 -2.402344 C 1.507812 -2.488281 1.472656 -2.519531 1.394531 -2.519531 L 1.015625 -2.519531 L 1.015625 -3.246094 C 1.015625 -3.316406 1 -3.382812 0.917969 -3.382812 L 0.65625 -3.34375 C 0.59375 -3.332031 0.570312 -3.304688 0.570312 -3.242188 L 0.570312 -2.519531 L 0.261719 -2.519531 C 0.179688 -2.519531 0.132812 -2.5 0.132812 -2.410156 L 0.132812 -2.222656 C 0.132812 -2.132812 0.179688 -2.109375 0.261719 -2.109375 L 0.570312 -2.109375 L 0.570312 -0.570312 C 0.570312 -0.0195312 0.878906 0.046875 1.207031 0.046875 C 1.238281 0.046875 1.261719 0.0429688 1.289062 0.0429688 Z M 1.289062 0.0429688" transform="translate(69.903 110.713)"/></g></g></g><g fill="#7B7B7B"><g><g><path d="M 0.308594 -0.242188 C 0.308594 -0.0625 0.453125 0.0820312 0.625 0.0820312 C 0.8125 0.0820312 0.949219 -0.0625 0.949219 -0.242188 C 0.949219 -0.421875 0.8125 -0.5625 0.625 -0.5625 C 0.453125 -0.5625 0.308594 -0.421875 0.308594 -0.242188 Z M 0.308594 -0.242188" transform="translate(71.586 110.713)"/></g></g></g><g fill="#7B7B7B"><g><g><path d="M 0.949219 -3.808594 C 0.921875 -3.808594 0.886719 -3.792969 0.882812 -3.792969 C 0.738281 -3.726562 0.621094 -3.667969 0.476562 -3.605469 C 0.414062 -3.578125 0.390625 -3.550781 0.390625 -3.488281 L 0.390625 -3.234375 C 0.390625 -3.1875 0.414062 -3.160156 0.457031 -3.160156 C 0.535156 -3.160156 0.714844 -3.253906 0.832031 -3.308594 L 0.832031 -0.113281 C 0.832031 -0.0351562 0.867188 0 0.945312 0 L 1.15625 0 C 1.238281 0 1.273438 -0.0351562 1.273438 -0.113281 L 1.273438 -3.695312 C 1.273438 -3.765625 1.230469 -3.808594 1.15625 -3.808594 Z M 0.949219 -3.808594" transform="translate(74.547 110.713)"/></g></g></g><g fill="#7B7B7B"><g><g><path d="M 2.1875 -3.859375 C 1.101562 -3.859375 0.226562 -2.980469 0.226562 -1.898438 C 0.226562 -0.816406 1.097656 0.0546875 2.179688 0.0546875 C 3.269531 0.0546875 4.144531 -0.816406 4.144531 -1.894531 C 4.144531 -2.988281 3.261719 -3.859375 2.1875 -3.859375 Z M 0.671875 -1.902344 C 0.671875 -2.734375 1.34375 -3.414062 2.1875 -3.414062 C 3.015625 -3.414062 3.695312 -2.734375 3.695312 -1.902344 C 3.695312 -1.0625 3.015625 -0.386719 2.1875 -0.386719 C 1.34375 -0.386719 0.671875 -1.0625 0.671875 -1.902344 Z M 0.671875 -1.902344" transform="translate(76.297 110.713)"/></g></g></g><g fill="#7B7B7B"><g><g><path d="M 2.734375 0 C 2.800781 0 2.851562 -0.0625 2.851562 -0.125 L 2.851562 -0.324219 C 2.851562 -0.40625 2.800781 -0.4375 2.734375 -0.4375 L 0.984375 -0.4375 C 1.246094 -0.6875 2.226562 -1.625 2.484375 -1.878906 C 2.683594 -2.074219 2.828125 -2.367188 2.828125 -2.695312 C 2.828125 -3.390625 2.253906 -3.832031 1.554688 -3.832031 C 1.078125 -3.832031 0.722656 -3.585938 0.492188 -3.300781 C 0.476562 -3.273438 0.445312 -3.222656 0.445312 -3.179688 C 0.445312 -3.160156 0.457031 -3.152344 0.472656 -3.128906 L 0.667969 -2.972656 C 0.675781 -2.960938 0.691406 -2.957031 0.707031 -2.957031 C 0.742188 -2.957031 0.789062 -2.988281 0.8125 -3.015625 C 0.96875 -3.261719 1.246094 -3.398438 1.523438 -3.40625 L 1.554688 -3.40625 C 2 -3.40625 2.371094 -3.105469 2.371094 -2.683594 C 2.371094 -2.472656 2.296875 -2.3125 2.082031 -2.097656 L 0.332031 -0.390625 C 0.324219 -0.363281 0.316406 -0.34375 0.316406 -0.324219 L 0.316406 -0.125 C 0.316406 -0.0546875 0.375 0 0.441406 0 Z M 2.734375 0" transform="translate(82.28 110.713)"/></g></g></g><g fill="#7B7B7B"><g><g><path d="M 2.1875 -3.859375 C 1.101562 -3.859375 0.226562 -2.980469 0.226562 -1.898438 C 0.226562 -0.816406 1.097656 0.0546875 2.179688 0.0546875 C 3.269531 0.0546875 4.144531 -0.816406 4.144531 -1.894531 C 4.144531 -2.988281 3.261719 -3.859375 2.1875 -3.859375 Z M 0.671875 -1.902344 C 0.671875 -2.734375 1.34375 -3.414062 2.1875 -3.414062 C 3.015625 -3.414062 3.695312 -2.734375 3.695312 -1.902344 C 3.695312 -1.0625 3.015625 -0.386719 2.1875 -0.386719 C 1.34375 -0.386719 0.671875 -1.0625 0.671875 -1.902344 Z M 0.671875 -1.902344" transform="translate(85.44 110.713)"/></g></g></g><g fill="#7B7B7B"><g><g><path d="M 2.734375 0 C 2.800781 0 2.851562 -0.0625 2.851562 -0.125 L 2.851562 -0.324219 C 2.851562 -0.40625 2.800781 -0.4375 2.734375 -0.4375 L 0.984375 -0.4375 C 1.246094 -0.6875 2.226562 -1.625 2.484375 -1.878906 C 2.683594 -2.074219 2.828125 -2.367188 2.828125 -2.695312 C 2.828125 -3.390625 2.253906 -3.832031 1.554688 -3.832031 C 1.078125 -3.832031 0.722656 -3.585938 0.492188 -3.300781 C 0.476562 -3.273438 0.445312 -3.222656 0.445312 -3.179688 C 0.445312 -3.160156 0.457031 -3.152344 0.472656 -3.128906 L 0.667969 -2.972656 C 0.675781 -2.960938 0.691406 -2.957031 0.707031 -2.957031 C 0.742188 -2.957031 0.789062 -2.988281 0.8125 -3.015625 C 0.96875 -3.261719 1.246094 -3.398438 1.523438 -3.40625 L 1.554688 -3.40625 C 2 -3.40625 2.371094 -3.105469 2.371094 -2.683594 C 2.371094 -2.472656 2.296875 -2.3125 2.082031 -2.097656 L 0.332031 -0.390625 C 0.324219 -0.363281 0.316406 -0.34375 0.316406 -0.324219 L 0.316406 -0.125 C 0.316406 -0.0546875 0.375 0 0.441406 0 Z M 2.734375 0" transform="translate(89.817 110.713)"/></g></g></g><g fill="#7B7B7B"><g><g><path d="M 2.734375 0 C 2.800781 0 2.851562 -0.0625 2.851562 -0.125 L 2.851562 -0.324219 C 2.851562 -0.40625 2.800781 -0.4375 2.734375 -0.4375 L 0.984375 -0.4375 C 1.246094 -0.6875 2.226562 -1.625 2.484375 -1.878906 C 2.683594 -2.074219 2.828125 -2.367188 2.828125 -2.695312 C 2.828125 -3.390625 2.253906 -3.832031 1.554688 -3.832031 C 1.078125 -3.832031 0.722656 -3.585938 0.492188 -3.300781 C 0.476562 -3.273438 0.445312 -3.222656 0.445312 -3.179688 C 0.445312 -3.160156 0.457031 -3.152344 0.472656 -3.128906 L 0.667969 -2.972656 C 0.675781 -2.960938 0.691406 -2.957031 0.707031 -2.957031 C 0.742188 -2.957031 0.789062 -2.988281 0.8125 -3.015625 C 0.96875 -3.261719 1.246094 -3.398438 1.523438 -3.40625 L 1.554688 -3.40625 C 2 -3.40625 2.371094 -3.105469 2.371094 -2.683594 C 2.371094 -2.472656 2.296875 -2.3125 2.082031 -2.097656 L 0.332031 -0.390625 C 0.324219 -0.363281 0.316406 -0.34375 0.316406 -0.324219 L 0.316406 -0.125 C 0.316406 -0.0546875 0.375 0 0.441406 0 Z M 2.734375 0" transform="translate(92.978 110.713)"/></g></g></g><g fill="#7B7B7B"><g><g><path d="M 0.308594 -0.230469 C 0.308594 -0.0664062 0.441406 0.0820312 0.601562 0.109375 L 0.601562 0.128906 C 0.601562 0.261719 0.503906 0.289062 0.503906 0.347656 C 0.503906 0.371094 0.519531 0.40625 0.542969 0.425781 L 0.621094 0.488281 C 0.640625 0.503906 0.65625 0.507812 0.683594 0.507812 C 0.769531 0.507812 0.992188 0.277344 0.992188 -0.207031 C 0.992188 -0.425781 0.847656 -0.574219 0.648438 -0.574219 C 0.460938 -0.574219 0.308594 -0.425781 0.308594 -0.230469 Z M 0.308594 -0.230469" transform="translate(96.14 110.713)"/></g></g></g><g fill="#7B7B7B"><g><g><path d="M 2.734375 0 C 2.800781 0 2.851562 -0.0625 2.851562 -0.125 L 2.851562 -0.324219 C 2.851562 -0.40625 2.800781 -0.4375 2.734375 -0.4375 L 0.984375 -0.4375 C 1.246094 -0.6875 2.226562 -1.625 2.484375 -1.878906 C 2.683594 -2.074219 2.828125 -2.367188 2.828125 -2.695312 C 2.828125 -3.390625 2.253906 -3.832031 1.554688 -3.832031 C 1.078125 -3.832031 0.722656 -3.585938 0.492188 -3.300781 C 0.476562 -3.273438 0.445312 -3.222656 0.445312 -3.179688 C 0.445312 -3.160156 0.457031 -3.152344 0.472656 -3.128906 L 0.667969 -2.972656 C 0.675781 -2.960938 0.691406 -2.957031 0.707031 -2.957031 C 0.742188 -2.957031 0.789062 -2.988281 0.8125 -3.015625 C 0.96875 -3.261719 1.246094 -3.398438 1.523438 -3.40625 L 1.554688 -3.40625 C 2 -3.40625 2.371094 -3.105469 2.371094 -2.683594 C 2.371094 -2.472656 2.296875 -2.3125 2.082031 -2.097656 L 0.332031 -0.390625 C 0.324219 -0.363281 0.316406 -0.34375 0.316406 -0.324219 L 0.316406 -0.125 C 0.316406 -0.0546875 0.375 0 0.441406 0 Z M 2.734375 0" transform="translate(99.1 110.713)"/></g></g></g><g fill="#7B7B7B"><g><g><path d="M 0.535156 -1.636719 C 0.453125 -1.636719 0.410156 -1.597656 0.410156 -1.523438 L 0.410156 -1.308594 C 0.410156 -1.230469 0.453125 -1.191406 0.535156 -1.191406 L 2.164062 -1.191406 C 2.230469 -1.191406 2.277344 -1.246094 2.277344 -1.308594 L 2.277344 -1.523438 C 2.277344 -1.597656 2.226562 -1.636719 2.164062 -1.636719 Z M 0.535156 -1.636719" transform="translate(103.867 110.713)"/></g></g></g><g fill="#7B7B7B"><g><g><path d="M 0.226562 -1.257812 C 0.226562 -0.527344 0.804688 0.0507812 1.527344 0.0507812 C 2.253906 0.0507812 2.835938 -0.527344 2.835938 -1.257812 C 2.835938 -1.980469 2.253906 -2.558594 1.527344 -2.558594 C 1.429688 -2.558594 1.339844 -2.539062 1.261719 -2.507812 C 1.476562 -2.882812 1.492188 -2.914062 1.933594 -3.679688 C 1.953125 -3.714844 1.953125 -3.75 1.953125 -3.765625 C 1.953125 -3.800781 1.925781 -3.8125 1.863281 -3.8125 L 1.597656 -3.8125 C 1.507812 -3.8125 1.472656 -3.78125 1.425781 -3.699219 L 0.410156 -1.929688 C 0.296875 -1.730469 0.226562 -1.503906 0.226562 -1.257812 Z M 0.671875 -1.257812 C 0.671875 -1.734375 1.046875 -2.132812 1.527344 -2.132812 C 2.011719 -2.132812 2.382812 -1.734375 2.382812 -1.257812 C 2.382812 -0.769531 2.011719 -0.378906 1.527344 -0.378906 C 1.046875 -0.378906 0.671875 -0.769531 0.671875 -1.257812 Z M 0.671875 -1.257812" transform="translate(108.126 110.713)"/></g></g></g><g fill="#7B7B7B"><g><g><path d="M 0.414062 0.863281 C 0.414062 0.9375 0.476562 0.992188 0.5625 0.992188 L 0.714844 0.992188 C 0.8125 0.992188 0.863281 0.9375 0.863281 0.863281 L 0.863281 -0.347656 C 1.019531 -0.113281 1.273438 0.0429688 1.621094 0.0429688 C 2.285156 0.0429688 2.800781 -0.535156 2.800781 -1.261719 C 2.800781 -1.992188 2.285156 -2.570312 1.621094 -2.570312 C 1.292969 -2.570312 1.015625 -2.390625 0.855469 -2.164062 L 0.835938 -2.390625 C 0.832031 -2.46875 0.773438 -2.519531 0.6875 -2.519531 L 0.554688 -2.519531 C 0.46875 -2.519531 0.414062 -2.472656 0.414062 -2.390625 Z M 0.855469 -1.253906 L 0.855469 -1.261719 C 0.863281 -1.734375 1.183594 -2.132812 1.601562 -2.132812 C 2.015625 -2.132812 2.339844 -1.734375 2.339844 -1.253906 C 2.339844 -0.769531 2.015625 -0.378906 1.601562 -0.378906 C 1.183594 -0.378906 0.855469 -0.769531 0.855469 -1.253906 Z M 0.855469 -1.253906" transform="translate(112.805 110.713)"/></g></g></g><g fill="#7B7B7B"><g><g><path d="M 0.308594 -0.242188 C 0.308594 -0.0625 0.453125 0.0820312 0.625 0.0820312 C 0.8125 0.0820312 0.949219 -0.0625 0.949219 -0.242188 C 0.949219 -0.421875 0.8125 -0.5625 0.625 -0.5625 C 0.453125 -0.5625 0.308594 -0.421875 0.308594 -0.242188 Z M 0.308594 -0.242188" transform="translate(115.838 110.713)"/></g></g></g><g fill="#7B7B7B"><g><g><path d="M 0.839844 -2.394531 C 0.835938 -2.464844 0.796875 -2.507812 0.722656 -2.507812 L 0.527344 -2.507812 C 0.460938 -2.507812 0.414062 -2.46875 0.414062 -2.394531 L 0.414062 -0.113281 C 0.414062 -0.0429688 0.457031 0 0.535156 0 L 0.742188 0 C 0.816406 0 0.855469 -0.0351562 0.855469 -0.113281 L 0.855469 -1.515625 C 0.855469 -1.851562 1.160156 -2.125 1.492188 -2.125 C 1.867188 -2.125 2.035156 -1.851562 2.035156 -1.507812 L 2.035156 -0.125 C 2.035156 -0.0429688 2.0625 0 2.148438 0 L 2.355469 0 C 2.433594 0 2.476562 -0.046875 2.476562 -0.128906 L 2.476562 -1.503906 C 2.476562 -1.859375 2.808594 -2.125 3.113281 -2.125 C 3.5 -2.125 3.652344 -1.851562 3.652344 -1.507812 L 3.652344 -0.125 C 3.652344 -0.0429688 3.695312 0 3.785156 0 L 3.972656 0 C 4.042969 0 4.101562 -0.046875 4.101562 -0.128906 L 4.101562 -1.503906 C 4.101562 -2.074219 3.765625 -2.566406 3.179688 -2.566406 C 2.800781 -2.566406 2.503906 -2.335938 2.34375 -2.03125 C 2.203125 -2.3125 1.976562 -2.554688 1.574219 -2.554688 C 1.257812 -2.554688 0.996094 -2.367188 0.855469 -2.171875 Z M 0.839844 -2.394531" transform="translate(117.192 110.713)"/></g></g></g><g fill="#7B7B7B"><g><g><path d="M 0.308594 -0.242188 C 0.308594 -0.0625 0.453125 0.0820312 0.625 0.0820312 C 0.8125 0.0820312 0.949219 -0.0625 0.949219 -0.242188 C 0.949219 -0.421875 0.8125 -0.5625 0.625 -0.5625 C 0.453125 -0.5625 0.308594 -0.421875 0.308594 -0.242188 Z M 0.308594 -0.242188" transform="translate(121.672 110.713)"/></g></g></g><g fill="#7B7B7B"><g><g><path d="M 3.351562 -3.472656 C 3.015625 -3.71875 2.617188 -3.859375 2.1875 -3.859375 C 1.101562 -3.859375 0.226562 -2.980469 0.226562 -1.898438 C 0.226562 -0.816406 1.097656 0.0546875 2.179688 0.0546875 C 2.632812 0.0546875 3.027344 -0.0859375 3.351562 -0.324219 C 3.386719 -0.34375 3.40625 -0.375 3.40625 -0.410156 C 3.40625 -0.429688 3.402344 -0.457031 3.390625 -0.480469 L 3.273438 -0.675781 C 3.242188 -0.722656 3.21875 -0.738281 3.1875 -0.738281 C 3.140625 -0.738281 3.0625 -0.65625 2.996094 -0.625 C 2.695312 -0.441406 2.453125 -0.386719 2.191406 -0.386719 C 1.394531 -0.386719 0.671875 -1.042969 0.671875 -1.894531 C 0.671875 -2.699219 1.304688 -3.40625 2.203125 -3.40625 C 2.515625 -3.40625 2.835938 -3.292969 3.09375 -3.109375 C 3.136719 -3.082031 3.164062 -3.074219 3.1875 -3.070312 C 3.21875 -3.070312 3.246094 -3.09375 3.273438 -3.128906 L 3.382812 -3.300781 C 3.398438 -3.320312 3.417969 -3.355469 3.417969 -3.386719 C 3.417969 -3.421875 3.390625 -3.449219 3.351562 -3.472656 Z M 3.351562 -3.472656" transform="translate(62.904 117.554)"/></g></g></g><g fill="#7B7B7B"><g><g><path d="M 0.855469 -2.40625 C 0.855469 -2.472656 0.8125 -2.519531 0.742188 -2.519531 L 0.527344 -2.519531 C 0.457031 -2.519531 0.414062 -2.476562 0.414062 -2.40625 L 0.414062 -0.113281 C 0.414062 -0.0351562 0.453125 0 0.527344 0 L 0.742188 0 C 0.816406 0 0.855469 -0.0351562 0.855469 -0.113281 Z M 0.3125 -3.226562 C 0.3125 -3.054688 0.457031 -2.910156 0.636719 -2.910156 C 0.820312 -2.910156 0.960938 -3.054688 0.960938 -3.226562 C 0.960938 -3.40625 0.820312 -3.550781 0.636719 -3.550781 C 0.457031 -3.550781 0.3125 -3.40625 0.3125 -3.226562 Z M 0.3125 -3.226562" transform="translate(66.522 117.554)"/></g></g></g><g fill="#7B7B7B"><g><g><path d="M 2.589844 -3.683594 C 2.589844 -3.761719 2.53125 -3.808594 2.441406 -3.808594 L 2.292969 -3.808594 C 2.195312 -3.808594 2.148438 -3.761719 2.148438 -3.683594 L 2.148438 -2.15625 C 1.984375 -2.394531 1.761719 -2.558594 1.375 -2.558594 C 0.65625 -2.558594 0.195312 -1.980469 0.195312 -1.253906 C 0.195312 -0.523438 0.65625 0.0507812 1.375 0.0507812 C 1.761719 0.0507812 1.980469 -0.109375 2.148438 -0.339844 L 2.148438 -0.128906 C 2.148438 -0.046875 2.207031 0 2.292969 0 L 2.449219 0 C 2.539062 0 2.589844 -0.046875 2.589844 -0.128906 Z M 2.191406 -1.246094 C 2.191406 -0.769531 1.878906 -0.371094 1.417969 -0.371094 C 0.902344 -0.371094 0.640625 -0.769531 0.640625 -1.246094 C 0.640625 -1.730469 0.902344 -2.128906 1.417969 -2.128906 C 1.882812 -2.128906 2.191406 -1.730469 2.191406 -1.246094 Z M 2.191406 -1.246094" transform="translate(67.794 117.554)"/></g></g></g><g fill="#7B7B7B"><g><g><path d="M 2.207031 -0.128906 C 2.207031 -0.0507812 2.242188 0 2.335938 0 L 2.5 0 C 2.570312 0 2.632812 -0.046875 2.632812 -0.113281 L 2.632812 -2.390625 C 2.632812 -2.472656 2.570312 -2.519531 2.5 -2.519531 L 2.351562 -2.519531 C 2.261719 -2.519531 2.230469 -2.472656 2.226562 -2.390625 L 2.207031 -2.132812 C 2.050781 -2.355469 1.851562 -2.558594 1.429688 -2.558594 C 0.707031 -2.558594 0.207031 -1.980469 0.207031 -1.253906 C 0.207031 -0.523438 0.714844 0.0507812 1.429688 0.0507812 C 1.847656 0.0507812 2.050781 -0.136719 2.207031 -0.371094 Z M 0.632812 -1.253906 C 0.632812 -1.730469 0.9375 -2.128906 1.429688 -2.128906 C 1.933594 -2.128906 2.207031 -1.722656 2.207031 -1.242188 C 2.207031 -0.75 1.925781 -0.375 1.429688 -0.375 C 0.949219 -0.375 0.632812 -0.769531 0.632812 -1.253906 Z M 0.632812 -1.253906" transform="translate(70.765 117.554)"/></g></g></g><g fill="#7B7B7B"><g><g><path d="M 2.589844 -3.683594 C 2.589844 -3.761719 2.53125 -3.808594 2.441406 -3.808594 L 2.292969 -3.808594 C 2.195312 -3.808594 2.148438 -3.761719 2.148438 -3.683594 L 2.148438 -2.15625 C 1.984375 -2.394531 1.761719 -2.558594 1.375 -2.558594 C 0.65625 -2.558594 0.195312 -1.980469 0.195312 -1.253906 C 0.195312 -0.523438 0.65625 0.0507812 1.375 0.0507812 C 1.761719 0.0507812 1.980469 -0.109375 2.148438 -0.339844 L 2.148438 -0.128906 C 2.148438 -0.046875 2.207031 0 2.292969 0 L 2.449219 0 C 2.539062 0 2.589844 -0.046875 2.589844 -0.128906 Z M 2.191406 -1.246094 C 2.191406 -0.769531 1.878906 -0.371094 1.417969 -0.371094 C 0.902344 -0.371094 0.640625 -0.769531 0.640625 -1.246094 C 0.640625 -1.730469 0.902344 -2.128906 1.417969 -2.128906 C 1.882812 -2.128906 2.191406 -1.730469 2.191406 -1.246094 Z M 2.191406 -1.246094" transform="translate(73.813 117.554)"/></g></g></g><g fill="#7B7B7B"><g><g><path d="M 1.4375 0.0625 C 1.753906 0.0625 2.023438 -0.0703125 2.253906 -0.226562 C 2.285156 -0.246094 2.335938 -0.28125 2.339844 -0.328125 C 2.339844 -0.34375 2.335938 -0.359375 2.320312 -0.375 L 2.175781 -0.589844 C 2.160156 -0.609375 2.140625 -0.621094 2.121094 -0.621094 C 2.082031 -0.621094 2.046875 -0.605469 2.027344 -0.585938 C 1.863281 -0.445312 1.640625 -0.371094 1.4375 -0.371094 C 1.058594 -0.371094 0.738281 -0.652344 0.675781 -1.0625 L 2.253906 -1.0625 C 2.4375 -1.0625 2.585938 -1.09375 2.585938 -1.296875 L 2.585938 -1.359375 C 2.585938 -2.027344 2.0625 -2.570312 1.4375 -2.570312 C 0.765625 -2.570312 0.226562 -1.980469 0.226562 -1.253906 C 0.226562 -0.523438 0.765625 0.0625 1.4375 0.0625 Z M 0.699219 -1.441406 C 0.785156 -1.828125 1.074219 -2.140625 1.425781 -2.140625 C 1.769531 -2.140625 2.082031 -1.828125 2.148438 -1.441406 Z M 0.699219 -1.441406" transform="translate(76.784 117.554)"/></g></g></g><g fill="#7B7B7B"><g><g><path d="M 2.589844 -3.683594 C 2.589844 -3.761719 2.53125 -3.808594 2.441406 -3.808594 L 2.292969 -3.808594 C 2.195312 -3.808594 2.148438 -3.761719 2.148438 -3.683594 L 2.148438 -2.15625 C 1.984375 -2.394531 1.761719 -2.558594 1.375 -2.558594 C 0.65625 -2.558594 0.195312 -1.980469 0.195312 -1.253906 C 0.195312 -0.523438 0.65625 0.0507812 1.375 0.0507812 C 1.761719 0.0507812 1.980469 -0.109375 2.148438 -0.339844 L 2.148438 -0.128906 C 2.148438 -0.046875 2.207031 0 2.292969 0 L 2.449219 0 C 2.539062 0 2.589844 -0.046875 2.589844 -0.128906 Z M 2.191406 -1.246094 C 2.191406 -0.769531 1.878906 -0.371094 1.417969 -0.371094 C 0.902344 -0.371094 0.640625 -0.769531 0.640625 -1.246094 C 0.640625 -1.730469 0.902344 -2.128906 1.417969 -2.128906 C 1.882812 -2.128906 2.191406 -1.730469 2.191406 -1.246094 Z M 2.191406 -1.246094" transform="translate(81.12 117.554)"/></g></g></g><g fill="#7B7B7B"><g><g><path d="M 2.207031 -0.128906 C 2.207031 -0.0507812 2.242188 0 2.335938 0 L 2.5 0 C 2.570312 0 2.632812 -0.046875 2.632812 -0.113281 L 2.632812 -2.390625 C 2.632812 -2.472656 2.570312 -2.519531 2.5 -2.519531 L 2.351562 -2.519531 C 2.261719 -2.519531 2.230469 -2.472656 2.226562 -2.390625 L 2.207031 -2.132812 C 2.050781 -2.355469 1.851562 -2.558594 1.429688 -2.558594 C 0.707031 -2.558594 0.207031 -1.980469 0.207031 -1.253906 C 0.207031 -0.523438 0.714844 0.0507812 1.429688 0.0507812 C 1.847656 0.0507812 2.050781 -0.136719 2.207031 -0.371094 Z M 0.632812 -1.253906 C 0.632812 -1.730469 0.9375 -2.128906 1.429688 -2.128906 C 1.933594 -2.128906 2.207031 -1.722656 2.207031 -1.242188 C 2.207031 -0.75 1.925781 -0.375 1.429688 -0.375 C 0.949219 -0.375 0.632812 -0.769531 0.632812 -1.253906 Z M 0.632812 -1.253906" transform="translate(84.091 117.554)"/></g></g></g><g fill="#7B7B7B"><g><g><path d="M 0.199219 -0.511719 C 0.304688 -0.144531 0.703125 0.046875 1.074219 0.046875 C 1.601562 0.046875 1.984375 -0.234375 1.984375 -0.691406 C 1.984375 -1.101562 1.652344 -1.371094 1.109375 -1.507812 C 0.914062 -1.558594 0.6875 -1.648438 0.6875 -1.859375 C 0.6875 -2.023438 0.855469 -2.179688 1.101562 -2.179688 C 1.289062 -2.179688 1.421875 -2.0625 1.519531 -1.929688 C 1.554688 -1.882812 1.585938 -1.832031 1.621094 -1.832031 C 1.632812 -1.832031 1.648438 -1.835938 1.65625 -1.847656 L 1.867188 -1.996094 C 1.902344 -2.023438 1.886719 -2.058594 1.871094 -2.082031 C 1.699219 -2.390625 1.476562 -2.582031 1.097656 -2.582031 C 0.609375 -2.582031 0.277344 -2.277344 0.277344 -1.859375 C 0.277344 -1.460938 0.574219 -1.210938 1.027344 -1.09375 C 1.308594 -1.015625 1.554688 -0.917969 1.554688 -0.691406 C 1.554688 -0.488281 1.304688 -0.359375 1.074219 -0.359375 C 0.9375 -0.359375 0.675781 -0.429688 0.601562 -0.640625 C 0.589844 -0.683594 0.554688 -0.722656 0.511719 -0.722656 C 0.503906 -0.722656 0.492188 -0.722656 0.480469 -0.71875 L 0.226562 -0.617188 C 0.183594 -0.601562 0.183594 -0.542969 0.199219 -0.511719 Z M 0.199219 -0.511719" transform="translate(87.139 117.554)"/></g></g></g><g fill="#7B7B7B"><g><g><path d="M 0.882812 -0.832031 L 2.75 -0.832031 L 3.046875 -0.0976562 C 3.070312 -0.0429688 3.121094 0 3.1875 0 L 3.40625 0 C 3.472656 0 3.519531 -0.0273438 3.519531 -0.0820312 C 3.519531 -0.101562 3.503906 -0.144531 3.503906 -0.144531 L 2.027344 -3.714844 C 2.011719 -3.75 1.984375 -3.808594 1.898438 -3.808594 L 1.75 -3.808594 C 1.65625 -3.808594 1.636719 -3.75 1.621094 -3.714844 C 1.621094 -3.710938 1.617188 -3.710938 0.132812 -0.148438 C 0.132812 -0.148438 0.125 -0.117188 0.125 -0.0820312 C 0.125 -0.0273438 0.160156 0 0.230469 0 L 0.453125 0 C 0.523438 0 0.5625 -0.03125 0.59375 -0.101562 Z M 1.820312 -3.144531 L 2.570312 -1.265625 L 1.066406 -1.265625 Z M 1.820312 -3.144531" transform="translate(90.926 117.554)"/></g></g></g><g fill="#7B7B7B"><g><g><path d="M 0.832031 -2.40625 C 0.820312 -2.46875 0.785156 -2.519531 0.714844 -2.519531 L 0.527344 -2.519531 C 0.46875 -2.519531 0.414062 -2.472656 0.414062 -2.40625 L 0.414062 -0.113281 C 0.414062 -0.0351562 0.457031 0 0.535156 0 L 0.742188 0 C 0.816406 0 0.855469 -0.0351562 0.855469 -0.113281 L 0.855469 -1.445312 C 0.855469 -1.761719 1.066406 -2.121094 1.375 -2.121094 C 1.46875 -2.113281 1.585938 -2.078125 1.652344 -2.035156 C 1.664062 -2.03125 1.683594 -2.011719 1.714844 -2.011719 C 1.734375 -2.011719 1.761719 -2.027344 1.78125 -2.0625 L 1.910156 -2.304688 C 1.914062 -2.320312 1.917969 -2.328125 1.917969 -2.34375 C 1.917969 -2.40625 1.664062 -2.558594 1.4375 -2.558594 C 1.117188 -2.558594 0.945312 -2.375 0.855469 -2.214844 Z M 0.832031 -2.40625" transform="translate(94.6 117.554)"/></g></g></g><g fill="#7B7B7B"><g><g><path d="M 1.289062 0.0429688 C 1.371094 0.0351562 1.417969 -0.00390625 1.417969 -0.0820312 L 1.417969 -0.246094 C 1.417969 -0.328125 1.363281 -0.375 1.289062 -0.375 C 1.082031 -0.378906 1.015625 -0.386719 1.015625 -0.734375 L 1.015625 -2.109375 L 1.394531 -2.109375 C 1.472656 -2.109375 1.507812 -2.148438 1.507812 -2.230469 L 1.507812 -2.402344 C 1.507812 -2.488281 1.472656 -2.519531 1.394531 -2.519531 L 1.015625 -2.519531 L 1.015625 -3.246094 C 1.015625 -3.316406 1 -3.382812 0.917969 -3.382812 L 0.65625 -3.34375 C 0.59375 -3.332031 0.570312 -3.304688 0.570312 -3.242188 L 0.570312 -2.519531 L 0.261719 -2.519531 C 0.179688 -2.519531 0.132812 -2.5 0.132812 -2.410156 L 0.132812 -2.222656 C 0.132812 -2.132812 0.179688 -2.109375 0.261719 -2.109375 L 0.570312 -2.109375 L 0.570312 -0.570312 C 0.570312 -0.0195312 0.878906 0.046875 1.207031 0.046875 C 1.238281 0.046875 1.261719 0.0429688 1.289062 0.0429688 Z M 1.289062 0.0429688" transform="translate(96.555 117.554)"/></g></g></g><g fill="#7B7B7B"><g><g><path d="M 1.4375 0.0625 C 1.753906 0.0625 2.023438 -0.0703125 2.253906 -0.226562 C 2.285156 -0.246094 2.335938 -0.28125 2.339844 -0.328125 C 2.339844 -0.34375 2.335938 -0.359375 2.320312 -0.375 L 2.175781 -0.589844 C 2.160156 -0.609375 2.140625 -0.621094 2.121094 -0.621094 C 2.082031 -0.621094 2.046875 -0.605469 2.027344 -0.585938 C 1.863281 -0.445312 1.640625 -0.371094 1.4375 -0.371094 C 1.058594 -0.371094 0.738281 -0.652344 0.675781 -1.0625 L 2.253906 -1.0625 C 2.4375 -1.0625 2.585938 -1.09375 2.585938 -1.296875 L 2.585938 -1.359375 C 2.585938 -2.027344 2.0625 -2.570312 1.4375 -2.570312 C 0.765625 -2.570312 0.226562 -1.980469 0.226562 -1.253906 C 0.226562 -0.523438 0.765625 0.0625 1.4375 0.0625 Z M 0.699219 -1.441406 C 0.785156 -1.828125 1.074219 -2.140625 1.425781 -2.140625 C 1.769531 -2.140625 2.082031 -1.828125 2.148438 -1.441406 Z M 0.699219 -1.441406" transform="translate(98.238 117.554)"/></g></g></g><g fill="#7B7B7B"><g><g><path d="M 0.199219 -0.511719 C 0.304688 -0.144531 0.703125 0.046875 1.074219 0.046875 C 1.601562 0.046875 1.984375 -0.234375 1.984375 -0.691406 C 1.984375 -1.101562 1.652344 -1.371094 1.109375 -1.507812 C 0.914062 -1.558594 0.6875 -1.648438 0.6875 -1.859375 C 0.6875 -2.023438 0.855469 -2.179688 1.101562 -2.179688 C 1.289062 -2.179688 1.421875 -2.0625 1.519531 -1.929688 C 1.554688 -1.882812 1.585938 -1.832031 1.621094 -1.832031 C 1.632812 -1.832031 1.648438 -1.835938 1.65625 -1.847656 L 1.867188 -1.996094 C 1.902344 -2.023438 1.886719 -2.058594 1.871094 -2.082031 C 1.699219 -2.390625 1.476562 -2.582031 1.097656 -2.582031 C 0.609375 -2.582031 0.277344 -2.277344 0.277344 -1.859375 C 0.277344 -1.460938 0.574219 -1.210938 1.027344 -1.09375 C 1.308594 -1.015625 1.554688 -0.917969 1.554688 -0.691406 C 1.554688 -0.488281 1.304688 -0.359375 1.074219 -0.359375 C 0.9375 -0.359375 0.675781 -0.429688 0.601562 -0.640625 C 0.589844 -0.683594 0.554688 -0.722656 0.511719 -0.722656 C 0.503906 -0.722656 0.492188 -0.722656 0.480469 -0.71875 L 0.226562 -0.617188 C 0.183594 -0.601562 0.183594 -0.542969 0.199219 -0.511719 Z M 0.199219 -0.511719" transform="translate(100.968 117.554)"/></g></g></g><g fill="#7B7B7B"><g><g><path d="M 0.414062 0.984375 C 0.414062 1.0625 0.453125 1.097656 0.527344 1.097656 L 0.738281 1.097656 C 0.816406 1.097656 0.855469 1.0625 0.855469 0.984375 L 0.855469 -3.808594 C 0.855469 -3.878906 0.800781 -3.921875 0.738281 -3.921875 L 0.527344 -3.921875 C 0.453125 -3.921875 0.414062 -3.867188 0.414062 -3.808594 Z M 0.414062 0.984375" transform="translate(104.754 117.554)"/></g></g></g><g fill="#7B7B7B"><g><g><path d="M 2.777344 -2.601562 C 2.777344 -2.1875 2.449219 -1.832031 2.015625 -1.832031 L 0.855469 -1.832031 L 0.855469 -3.371094 L 2.011719 -3.371094 C 2.441406 -3.371094 2.777344 -3.007812 2.777344 -2.601562 Z M 0.414062 -0.113281 C 0.414062 -0.0351562 0.457031 0 0.527344 0 L 0.742188 0 C 0.820312 0 0.855469 -0.0351562 0.855469 -0.113281 L 0.855469 -1.394531 L 1.753906 -1.394531 C 1.820312 -1.394531 2.035156 -1.394531 2.074219 -1.402344 L 2.695312 -0.0976562 C 2.726562 -0.0351562 2.761719 0 2.828125 0 L 3.109375 0 C 3.171875 0 3.203125 -0.0273438 3.203125 -0.0664062 C 3.203125 -0.078125 3.195312 -0.09375 3.191406 -0.113281 L 2.515625 -1.503906 C 2.929688 -1.691406 3.21875 -2.113281 3.21875 -2.597656 C 3.21875 -3.261719 2.683594 -3.808594 2.011719 -3.808594 L 0.527344 -3.808594 C 0.457031 -3.808594 0.414062 -3.765625 0.414062 -3.683594 Z M 0.414062 -0.113281" transform="translate(107.648 117.554)"/></g></g></g><g fill="#7B7B7B"><g><g><path d="M 0.855469 -2.40625 C 0.855469 -2.472656 0.8125 -2.519531 0.742188 -2.519531 L 0.527344 -2.519531 C 0.457031 -2.519531 0.414062 -2.476562 0.414062 -2.40625 L 0.414062 -0.113281 C 0.414062 -0.0351562 0.453125 0 0.527344 0 L 0.742188 0 C 0.816406 0 0.855469 -0.0351562 0.855469 -0.113281 Z M 0.3125 -3.226562 C 0.3125 -3.054688 0.457031 -2.910156 0.636719 -2.910156 C 0.820312 -2.910156 0.960938 -3.054688 0.960938 -3.226562 C 0.960938 -3.40625 0.820312 -3.550781 0.636719 -3.550781 C 0.457031 -3.550781 0.3125 -3.40625 0.3125 -3.226562 Z M 0.3125 -3.226562" transform="translate(111.091 117.554)"/></g></g></g><g fill="#7B7B7B"><g><g><path d="M 0.226562 -1.253906 C 0.226562 -0.523438 0.8125 0.0625 1.539062 0.0625 C 2.269531 0.0625 2.859375 -0.523438 2.859375 -1.253906 C 2.859375 -1.980469 2.269531 -2.570312 1.539062 -2.570312 C 0.8125 -2.570312 0.226562 -1.980469 0.226562 -1.253906 Z M 0.640625 -1.253906 C 0.640625 -1.746094 1.046875 -2.160156 1.539062 -2.160156 C 2.03125 -2.160156 2.441406 -1.746094 2.441406 -1.253906 C 2.441406 -0.757812 2.03125 -0.347656 1.539062 -0.347656 C 1.046875 -0.347656 0.640625 -0.757812 0.640625 -1.253906 Z M 0.640625 -1.253906" transform="translate(112.364 117.554)"/></g></g></g><g fill="#7B7B7B"><g><g><path d="M 2.589844 -3.683594 C 2.589844 -3.761719 2.53125 -3.808594 2.441406 -3.808594 L 2.292969 -3.808594 C 2.195312 -3.808594 2.148438 -3.761719 2.148438 -3.683594 L 2.148438 -2.15625 C 1.984375 -2.394531 1.761719 -2.558594 1.375 -2.558594 C 0.65625 -2.558594 0.195312 -1.980469 0.195312 -1.253906 C 0.195312 -0.523438 0.65625 0.0507812 1.375 0.0507812 C 1.761719 0.0507812 1.980469 -0.109375 2.148438 -0.339844 L 2.148438 -0.128906 C 2.148438 -0.046875 2.207031 0 2.292969 0 L 2.449219 0 C 2.539062 0 2.589844 -0.046875 2.589844 -0.128906 Z M 2.191406 -1.246094 C 2.191406 -0.769531 1.878906 -0.371094 1.417969 -0.371094 C 0.902344 -0.371094 0.640625 -0.769531 0.640625 -1.246094 C 0.640625 -1.730469 0.902344 -2.128906 1.417969 -2.128906 C 1.882812 -2.128906 2.191406 -1.730469 2.191406 -1.246094 Z M 2.191406 -1.246094" transform="translate(117.1 117.554)"/></g></g></g><g fill="#7B7B7B"><g><g><path d="M 1.4375 0.0625 C 1.753906 0.0625 2.023438 -0.0703125 2.253906 -0.226562 C 2.285156 -0.246094 2.335938 -0.28125 2.339844 -0.328125 C 2.339844 -0.34375 2.335938 -0.359375 2.320312 -0.375 L 2.175781 -0.589844 C 2.160156 -0.609375 2.140625 -0.621094 2.121094 -0.621094 C 2.082031 -0.621094 2.046875 -0.605469 2.027344 -0.585938 C 1.863281 -0.445312 1.640625 -0.371094 1.4375 -0.371094 C 1.058594 -0.371094 0.738281 -0.652344 0.675781 -1.0625 L 2.253906 -1.0625 C 2.4375 -1.0625 2.585938 -1.09375 2.585938 -1.296875 L 2.585938 -1.359375 C 2.585938 -2.027344 2.0625 -2.570312 1.4375 -2.570312 C 0.765625 -2.570312 0.226562 -1.980469 0.226562 -1.253906 C 0.226562 -0.523438 0.765625 0.0625 1.4375 0.0625 Z M 0.699219 -1.441406 C 0.785156 -1.828125 1.074219 -2.140625 1.425781 -2.140625 C 1.769531 -2.140625 2.082031 -1.828125 2.148438 -1.441406 Z M 0.699219 -1.441406" transform="translate(120.071 117.554)"/></g></g></g><g fill="#7B7B7B"><g><g><path d="M 0.0351562 -0.230469 C 0.214844 -0.046875 0.46875 0.0625 0.742188 0.0625 C 1.246094 0.0625 1.652344 -0.332031 1.652344 -0.847656 L 1.652344 -3.695312 C 1.652344 -3.765625 1.609375 -3.808594 1.539062 -3.808594 L 1.324219 -3.808594 C 1.246094 -3.808594 1.210938 -3.761719 1.210938 -3.699219 L 1.210938 -0.847656 C 1.210938 -0.585938 1.003906 -0.375 0.742188 -0.375 C 0.511719 -0.375 0.398438 -0.480469 0.328125 -0.550781 C 0.3125 -0.5625 0.292969 -0.570312 0.273438 -0.570312 C 0.257812 -0.570312 0.230469 -0.570312 0.199219 -0.535156 L 0.0507812 -0.371094 C 0.0195312 -0.34375 0.0117188 -0.324219 0.0117188 -0.292969 C 0.0117188 -0.265625 0.0195312 -0.246094 0.0351562 -0.230469 Z M 0.0351562 -0.230469" transform="translate(124.407 117.554)"/></g></g></g><g fill="#7B7B7B"><g><g><path d="M 2.207031 -0.128906 C 2.207031 -0.0507812 2.242188 0 2.335938 0 L 2.5 0 C 2.570312 0 2.632812 -0.046875 2.632812 -0.113281 L 2.632812 -2.390625 C 2.632812 -2.472656 2.570312 -2.519531 2.5 -2.519531 L 2.351562 -2.519531 C 2.261719 -2.519531 2.230469 -2.472656 2.226562 -2.390625 L 2.207031 -2.132812 C 2.050781 -2.355469 1.851562 -2.558594 1.429688 -2.558594 C 0.707031 -2.558594 0.207031 -1.980469 0.207031 -1.253906 C 0.207031 -0.523438 0.714844 0.0507812 1.429688 0.0507812 C 1.847656 0.0507812 2.050781 -0.136719 2.207031 -0.371094 Z M 0.632812 -1.253906 C 0.632812 -1.730469 0.9375 -2.128906 1.429688 -2.128906 C 1.933594 -2.128906 2.207031 -1.722656 2.207031 -1.242188 C 2.207031 -0.75 1.925781 -0.375 1.429688 -0.375 C 0.949219 -0.375 0.632812 -0.769531 0.632812 -1.253906 Z M 0.632812 -1.253906" transform="translate(126.46 117.554)"/></g></g></g><g fill="#7B7B7B"><g><g><path d="M 0.839844 -2.394531 C 0.835938 -2.46875 0.789062 -2.507812 0.722656 -2.507812 L 0.527344 -2.507812 C 0.46875 -2.507812 0.414062 -2.46875 0.414062 -2.394531 L 0.414062 -0.113281 C 0.414062 -0.0429688 0.457031 0 0.535156 0 L 0.742188 0 C 0.816406 0 0.855469 -0.0351562 0.855469 -0.113281 L 0.855469 -1.582031 C 0.855469 -1.859375 1.265625 -2.125 1.605469 -2.125 C 1.996094 -2.125 2.238281 -1.835938 2.238281 -1.492188 L 2.238281 -0.125 C 2.238281 -0.0429688 2.257812 0 2.351562 0 L 2.558594 0 C 2.628906 0 2.683594 -0.046875 2.683594 -0.128906 L 2.683594 -1.492188 C 2.683594 -2.089844 2.308594 -2.566406 1.71875 -2.566406 C 1.410156 -2.566406 1.015625 -2.359375 0.855469 -2.164062 Z M 0.839844 -2.394531" transform="translate(129.507 117.554)"/></g></g></g><g fill="#7B7B7B"><g><g><path d="M 0.855469 -2.40625 C 0.855469 -2.472656 0.8125 -2.519531 0.742188 -2.519531 L 0.527344 -2.519531 C 0.457031 -2.519531 0.414062 -2.476562 0.414062 -2.40625 L 0.414062 -0.113281 C 0.414062 -0.0351562 0.453125 0 0.527344 0 L 0.742188 0 C 0.816406 0 0.855469 -0.0351562 0.855469 -0.113281 Z M 0.3125 -3.226562 C 0.3125 -3.054688 0.457031 -2.910156 0.636719 -2.910156 C 0.820312 -2.910156 0.960938 -3.054688 0.960938 -3.226562 C 0.960938 -3.40625 0.820312 -3.550781 0.636719 -3.550781 C 0.457031 -3.550781 0.3125 -3.40625 0.3125 -3.226562 Z M 0.3125 -3.226562" transform="translate(132.54 117.554)"/></g></g></g><g fill="#7B7B7B"><g><g><path d="M 1.4375 0.0625 C 1.753906 0.0625 2.023438 -0.0703125 2.253906 -0.226562 C 2.285156 -0.246094 2.335938 -0.28125 2.339844 -0.328125 C 2.339844 -0.34375 2.335938 -0.359375 2.320312 -0.375 L 2.175781 -0.589844 C 2.160156 -0.609375 2.140625 -0.621094 2.121094 -0.621094 C 2.082031 -0.621094 2.046875 -0.605469 2.027344 -0.585938 C 1.863281 -0.445312 1.640625 -0.371094 1.4375 -0.371094 C 1.058594 -0.371094 0.738281 -0.652344 0.675781 -1.0625 L 2.253906 -1.0625 C 2.4375 -1.0625 2.585938 -1.09375 2.585938 -1.296875 L 2.585938 -1.359375 C 2.585938 -2.027344 2.0625 -2.570312 1.4375 -2.570312 C 0.765625 -2.570312 0.226562 -1.980469 0.226562 -1.253906 C 0.226562 -0.523438 0.765625 0.0625 1.4375 0.0625 Z M 0.699219 -1.441406 C 0.785156 -1.828125 1.074219 -2.140625 1.425781 -2.140625 C 1.769531 -2.140625 2.082031 -1.828125 2.148438 -1.441406 Z M 0.699219 -1.441406" transform="translate(133.812 117.554)"/></g></g></g><g fill="#7B7B7B"><g><g><path d="M 0.832031 -2.40625 C 0.820312 -2.46875 0.785156 -2.519531 0.714844 -2.519531 L 0.527344 -2.519531 C 0.46875 -2.519531 0.414062 -2.472656 0.414062 -2.40625 L 0.414062 -0.113281 C 0.414062 -0.0351562 0.457031 0 0.535156 0 L 0.742188 0 C 0.816406 0 0.855469 -0.0351562 0.855469 -0.113281 L 0.855469 -1.445312 C 0.855469 -1.761719 1.066406 -2.121094 1.375 -2.121094 C 1.46875 -2.113281 1.585938 -2.078125 1.652344 -2.035156 C 1.664062 -2.03125 1.683594 -2.011719 1.714844 -2.011719 C 1.734375 -2.011719 1.761719 -2.027344 1.78125 -2.0625 L 1.910156 -2.304688 C 1.914062 -2.320312 1.917969 -2.328125 1.917969 -2.34375 C 1.917969 -2.40625 1.664062 -2.558594 1.4375 -2.558594 C 1.117188 -2.558594 0.945312 -2.375 0.855469 -2.214844 Z M 0.832031 -2.40625" transform="translate(136.542 117.554)"/></g></g></g><g fill="#7B7B7B"><g><g><path d="M 0.226562 -1.253906 C 0.226562 -0.523438 0.8125 0.0625 1.539062 0.0625 C 2.269531 0.0625 2.859375 -0.523438 2.859375 -1.253906 C 2.859375 -1.980469 2.269531 -2.570312 1.539062 -2.570312 C 0.8125 -2.570312 0.226562 -1.980469 0.226562 -1.253906 Z M 0.640625 -1.253906 C 0.640625 -1.746094 1.046875 -2.160156 1.539062 -2.160156 C 2.03125 -2.160156 2.441406 -1.746094 2.441406 -1.253906 C 2.441406 -0.757812 2.03125 -0.347656 1.539062 -0.347656 C 1.046875 -0.347656 0.640625 -0.757812 0.640625 -1.253906 Z M 0.640625 -1.253906" transform="translate(138.497 117.554)"/></g></g></g></svg>